%TF.GenerationSoftware,KiCad,Pcbnew,9.0.6+dfsg-1*%
%TF.CreationDate,2025-11-20T13:37:38+09:00*%
%TF.ProjectId,hiraboard,68697261-626f-4617-9264-2e6b69636164,rev?*%
%TF.SameCoordinates,Original*%
%TF.FileFunction,Paste,Top*%
%TF.FilePolarity,Positive*%
%FSLAX46Y46*%
G04 Gerber Fmt 4.6, Leading zero omitted, Abs format (unit mm)*
G04 Created by KiCad (PCBNEW 9.0.6+dfsg-1) date 2025-11-20 13:37:38*
%MOMM*%
%LPD*%
G01*
G04 APERTURE LIST*
G04 Aperture macros list*
%AMRoundRect*
0 Rectangle with rounded corners*
0 $1 Rounding radius*
0 $2 $3 $4 $5 $6 $7 $8 $9 X,Y pos of 4 corners*
0 Add a 4 corners polygon primitive as box body*
4,1,4,$2,$3,$4,$5,$6,$7,$8,$9,$2,$3,0*
0 Add four circle primitives for the rounded corners*
1,1,$1+$1,$2,$3*
1,1,$1+$1,$4,$5*
1,1,$1+$1,$6,$7*
1,1,$1+$1,$8,$9*
0 Add four rect primitives between the rounded corners*
20,1,$1+$1,$2,$3,$4,$5,0*
20,1,$1+$1,$4,$5,$6,$7,0*
20,1,$1+$1,$6,$7,$8,$9,0*
20,1,$1+$1,$8,$9,$2,$3,0*%
G04 Aperture macros list end*
%ADD10C,0.150000*%
%ADD11RoundRect,0.062500X-0.387500X-0.062500X0.387500X-0.062500X0.387500X0.062500X-0.387500X0.062500X0*%
%ADD12RoundRect,0.040000X-0.040000X-0.605000X0.040000X-0.605000X0.040000X0.605000X-0.040000X0.605000X0*%
%ADD13RoundRect,0.140000X0.140000X0.170000X-0.140000X0.170000X-0.140000X-0.170000X0.140000X-0.170000X0*%
%ADD14RoundRect,0.250000X-0.450000X-0.350000X0.450000X-0.350000X0.450000X0.350000X-0.450000X0.350000X0*%
%ADD15RoundRect,0.140000X-0.219203X-0.021213X-0.021213X-0.219203X0.219203X0.021213X0.021213X0.219203X0*%
%ADD16RoundRect,0.135000X-0.185000X0.135000X-0.185000X-0.135000X0.185000X-0.135000X0.185000X0.135000X0*%
%ADD17RoundRect,0.140000X0.170000X-0.140000X0.170000X0.140000X-0.170000X0.140000X-0.170000X-0.140000X0*%
%ADD18RoundRect,0.150000X0.150000X-0.587500X0.150000X0.587500X-0.150000X0.587500X-0.150000X-0.587500X0*%
%ADD19RoundRect,0.249999X-0.395001X-0.395001X0.395001X-0.395001X0.395001X0.395001X-0.395001X0.395001X0*%
%ADD20RoundRect,0.050000X-0.387500X-0.050000X0.387500X-0.050000X0.387500X0.050000X-0.387500X0.050000X0*%
%ADD21RoundRect,0.050000X-0.050000X-0.387500X0.050000X-0.387500X0.050000X0.387500X-0.050000X0.387500X0*%
%ADD22RoundRect,0.200000X-0.800000X0.200000X-0.800000X-0.200000X0.800000X-0.200000X0.800000X0.200000X0*%
%ADD23RoundRect,0.135000X0.226274X0.035355X0.035355X0.226274X-0.226274X-0.035355X-0.035355X-0.226274X0*%
%ADD24RoundRect,0.140000X0.021213X-0.219203X0.219203X-0.021213X-0.021213X0.219203X-0.219203X0.021213X0*%
%ADD25RoundRect,0.225000X-0.250000X0.225000X-0.250000X-0.225000X0.250000X-0.225000X0.250000X0.225000X0*%
%ADD26R,0.600000X1.450000*%
%ADD27R,0.300000X1.450000*%
%ADD28RoundRect,0.225000X0.225000X0.250000X-0.225000X0.250000X-0.225000X-0.250000X0.225000X-0.250000X0*%
G04 APERTURE END LIST*
D10*
X193837299Y-116886356D02*
X193789680Y-116838737D01*
X193789680Y-116838737D02*
X193694442Y-116695880D01*
X193694442Y-116695880D02*
X193646823Y-116600642D01*
X193646823Y-116600642D02*
X193599204Y-116457785D01*
X193599204Y-116457785D02*
X193551585Y-116219689D01*
X193551585Y-116219689D02*
X193551585Y-116029213D01*
X193551585Y-116029213D02*
X193599204Y-115791118D01*
X193599204Y-115791118D02*
X193646823Y-115648261D01*
X193646823Y-115648261D02*
X193694442Y-115553023D01*
X193694442Y-115553023D02*
X193789680Y-115410165D01*
X193789680Y-115410165D02*
X193837299Y-115362546D01*
X194789680Y-116410165D02*
X194742061Y-116457785D01*
X194742061Y-116457785D02*
X194599204Y-116505404D01*
X194599204Y-116505404D02*
X194503966Y-116505404D01*
X194503966Y-116505404D02*
X194361109Y-116457785D01*
X194361109Y-116457785D02*
X194265871Y-116362546D01*
X194265871Y-116362546D02*
X194218252Y-116267308D01*
X194218252Y-116267308D02*
X194170633Y-116076832D01*
X194170633Y-116076832D02*
X194170633Y-115933975D01*
X194170633Y-115933975D02*
X194218252Y-115743499D01*
X194218252Y-115743499D02*
X194265871Y-115648261D01*
X194265871Y-115648261D02*
X194361109Y-115553023D01*
X194361109Y-115553023D02*
X194503966Y-115505404D01*
X194503966Y-115505404D02*
X194599204Y-115505404D01*
X194599204Y-115505404D02*
X194742061Y-115553023D01*
X194742061Y-115553023D02*
X194789680Y-115600642D01*
X195123014Y-116886356D02*
X195170633Y-116838737D01*
X195170633Y-116838737D02*
X195265871Y-116695880D01*
X195265871Y-116695880D02*
X195313490Y-116600642D01*
X195313490Y-116600642D02*
X195361109Y-116457785D01*
X195361109Y-116457785D02*
X195408728Y-116219689D01*
X195408728Y-116219689D02*
X195408728Y-116029213D01*
X195408728Y-116029213D02*
X195361109Y-115791118D01*
X195361109Y-115791118D02*
X195313490Y-115648261D01*
X195313490Y-115648261D02*
X195265871Y-115553023D01*
X195265871Y-115553023D02*
X195170633Y-115410165D01*
X195170633Y-115410165D02*
X195123014Y-115362546D01*
X195884919Y-116505404D02*
X195884919Y-115505404D01*
X195884919Y-115981594D02*
X196456347Y-115981594D01*
X196456347Y-116505404D02*
X196456347Y-115505404D01*
X197361109Y-116505404D02*
X197361109Y-115981594D01*
X197361109Y-115981594D02*
X197313490Y-115886356D01*
X197313490Y-115886356D02*
X197218252Y-115838737D01*
X197218252Y-115838737D02*
X197027776Y-115838737D01*
X197027776Y-115838737D02*
X196932538Y-115886356D01*
X197361109Y-116457785D02*
X197265871Y-116505404D01*
X197265871Y-116505404D02*
X197027776Y-116505404D01*
X197027776Y-116505404D02*
X196932538Y-116457785D01*
X196932538Y-116457785D02*
X196884919Y-116362546D01*
X196884919Y-116362546D02*
X196884919Y-116267308D01*
X196884919Y-116267308D02*
X196932538Y-116172070D01*
X196932538Y-116172070D02*
X197027776Y-116124451D01*
X197027776Y-116124451D02*
X197265871Y-116124451D01*
X197265871Y-116124451D02*
X197361109Y-116076832D01*
X197837300Y-116505404D02*
X197837300Y-115838737D01*
X197837300Y-116029213D02*
X197884919Y-115933975D01*
X197884919Y-115933975D02*
X197932538Y-115886356D01*
X197932538Y-115886356D02*
X198027776Y-115838737D01*
X198027776Y-115838737D02*
X198123014Y-115838737D01*
X198884919Y-115838737D02*
X198884919Y-116505404D01*
X198456348Y-115838737D02*
X198456348Y-116362546D01*
X198456348Y-116362546D02*
X198503967Y-116457785D01*
X198503967Y-116457785D02*
X198599205Y-116505404D01*
X198599205Y-116505404D02*
X198742062Y-116505404D01*
X198742062Y-116505404D02*
X198837300Y-116457785D01*
X198837300Y-116457785D02*
X198884919Y-116410165D01*
X199361110Y-116505404D02*
X199361110Y-115505404D01*
X199456348Y-116124451D02*
X199742062Y-116505404D01*
X199742062Y-115838737D02*
X199361110Y-116219689D01*
X200170634Y-116505404D02*
X200170634Y-115838737D01*
X200170634Y-115505404D02*
X200123015Y-115553023D01*
X200123015Y-115553023D02*
X200170634Y-115600642D01*
X200170634Y-115600642D02*
X200218253Y-115553023D01*
X200218253Y-115553023D02*
X200170634Y-115505404D01*
X200170634Y-115505404D02*
X200170634Y-115600642D01*
X201408729Y-116505404D02*
X201408729Y-115505404D01*
X201408729Y-115981594D02*
X201980157Y-115981594D01*
X201980157Y-116505404D02*
X201980157Y-115505404D01*
X202456348Y-116505404D02*
X202456348Y-115838737D01*
X202456348Y-115505404D02*
X202408729Y-115553023D01*
X202408729Y-115553023D02*
X202456348Y-115600642D01*
X202456348Y-115600642D02*
X202503967Y-115553023D01*
X202503967Y-115553023D02*
X202456348Y-115505404D01*
X202456348Y-115505404D02*
X202456348Y-115600642D01*
X202932538Y-116505404D02*
X202932538Y-115838737D01*
X202932538Y-116029213D02*
X202980157Y-115933975D01*
X202980157Y-115933975D02*
X203027776Y-115886356D01*
X203027776Y-115886356D02*
X203123014Y-115838737D01*
X203123014Y-115838737D02*
X203218252Y-115838737D01*
X203980157Y-116505404D02*
X203980157Y-115981594D01*
X203980157Y-115981594D02*
X203932538Y-115886356D01*
X203932538Y-115886356D02*
X203837300Y-115838737D01*
X203837300Y-115838737D02*
X203646824Y-115838737D01*
X203646824Y-115838737D02*
X203551586Y-115886356D01*
X203980157Y-116457785D02*
X203884919Y-116505404D01*
X203884919Y-116505404D02*
X203646824Y-116505404D01*
X203646824Y-116505404D02*
X203551586Y-116457785D01*
X203551586Y-116457785D02*
X203503967Y-116362546D01*
X203503967Y-116362546D02*
X203503967Y-116267308D01*
X203503967Y-116267308D02*
X203551586Y-116172070D01*
X203551586Y-116172070D02*
X203646824Y-116124451D01*
X203646824Y-116124451D02*
X203884919Y-116124451D01*
X203884919Y-116124451D02*
X203980157Y-116076832D01*
X204408729Y-116457785D02*
X204503967Y-116505404D01*
X204503967Y-116505404D02*
X204694443Y-116505404D01*
X204694443Y-116505404D02*
X204789681Y-116457785D01*
X204789681Y-116457785D02*
X204837300Y-116362546D01*
X204837300Y-116362546D02*
X204837300Y-116314927D01*
X204837300Y-116314927D02*
X204789681Y-116219689D01*
X204789681Y-116219689D02*
X204694443Y-116172070D01*
X204694443Y-116172070D02*
X204551586Y-116172070D01*
X204551586Y-116172070D02*
X204456348Y-116124451D01*
X204456348Y-116124451D02*
X204408729Y-116029213D01*
X204408729Y-116029213D02*
X204408729Y-115981594D01*
X204408729Y-115981594D02*
X204456348Y-115886356D01*
X204456348Y-115886356D02*
X204551586Y-115838737D01*
X204551586Y-115838737D02*
X204694443Y-115838737D01*
X204694443Y-115838737D02*
X204789681Y-115886356D01*
X205694443Y-116505404D02*
X205694443Y-115981594D01*
X205694443Y-115981594D02*
X205646824Y-115886356D01*
X205646824Y-115886356D02*
X205551586Y-115838737D01*
X205551586Y-115838737D02*
X205361110Y-115838737D01*
X205361110Y-115838737D02*
X205265872Y-115886356D01*
X205694443Y-116457785D02*
X205599205Y-116505404D01*
X205599205Y-116505404D02*
X205361110Y-116505404D01*
X205361110Y-116505404D02*
X205265872Y-116457785D01*
X205265872Y-116457785D02*
X205218253Y-116362546D01*
X205218253Y-116362546D02*
X205218253Y-116267308D01*
X205218253Y-116267308D02*
X205265872Y-116172070D01*
X205265872Y-116172070D02*
X205361110Y-116124451D01*
X205361110Y-116124451D02*
X205599205Y-116124451D01*
X205599205Y-116124451D02*
X205694443Y-116076832D01*
X206075396Y-115838737D02*
X206265872Y-116505404D01*
X206265872Y-116505404D02*
X206456348Y-116029213D01*
X206456348Y-116029213D02*
X206646824Y-116505404D01*
X206646824Y-116505404D02*
X206837300Y-115838737D01*
X207646824Y-116505404D02*
X207646824Y-115981594D01*
X207646824Y-115981594D02*
X207599205Y-115886356D01*
X207599205Y-115886356D02*
X207503967Y-115838737D01*
X207503967Y-115838737D02*
X207313491Y-115838737D01*
X207313491Y-115838737D02*
X207218253Y-115886356D01*
X207646824Y-116457785D02*
X207551586Y-116505404D01*
X207551586Y-116505404D02*
X207313491Y-116505404D01*
X207313491Y-116505404D02*
X207218253Y-116457785D01*
X207218253Y-116457785D02*
X207170634Y-116362546D01*
X207170634Y-116362546D02*
X207170634Y-116267308D01*
X207170634Y-116267308D02*
X207218253Y-116172070D01*
X207218253Y-116172070D02*
X207313491Y-116124451D01*
X207313491Y-116124451D02*
X207551586Y-116124451D01*
X207551586Y-116124451D02*
X207646824Y-116076832D01*
X193551585Y-118115348D02*
X193551585Y-117115348D01*
X193551585Y-117591538D02*
X194123013Y-117591538D01*
X194123013Y-118115348D02*
X194123013Y-117115348D01*
X195027775Y-118115348D02*
X195027775Y-117591538D01*
X195027775Y-117591538D02*
X194980156Y-117496300D01*
X194980156Y-117496300D02*
X194884918Y-117448681D01*
X194884918Y-117448681D02*
X194694442Y-117448681D01*
X194694442Y-117448681D02*
X194599204Y-117496300D01*
X195027775Y-118067729D02*
X194932537Y-118115348D01*
X194932537Y-118115348D02*
X194694442Y-118115348D01*
X194694442Y-118115348D02*
X194599204Y-118067729D01*
X194599204Y-118067729D02*
X194551585Y-117972490D01*
X194551585Y-117972490D02*
X194551585Y-117877252D01*
X194551585Y-117877252D02*
X194599204Y-117782014D01*
X194599204Y-117782014D02*
X194694442Y-117734395D01*
X194694442Y-117734395D02*
X194932537Y-117734395D01*
X194932537Y-117734395D02*
X195027775Y-117686776D01*
X195932537Y-118067729D02*
X195837299Y-118115348D01*
X195837299Y-118115348D02*
X195646823Y-118115348D01*
X195646823Y-118115348D02*
X195551585Y-118067729D01*
X195551585Y-118067729D02*
X195503966Y-118020109D01*
X195503966Y-118020109D02*
X195456347Y-117924871D01*
X195456347Y-117924871D02*
X195456347Y-117639157D01*
X195456347Y-117639157D02*
X195503966Y-117543919D01*
X195503966Y-117543919D02*
X195551585Y-117496300D01*
X195551585Y-117496300D02*
X195646823Y-117448681D01*
X195646823Y-117448681D02*
X195837299Y-117448681D01*
X195837299Y-117448681D02*
X195932537Y-117496300D01*
X196361109Y-118115348D02*
X196361109Y-117115348D01*
X196456347Y-117734395D02*
X196742061Y-118115348D01*
X196742061Y-117448681D02*
X196361109Y-117829633D01*
X198361109Y-118067729D02*
X198265871Y-118115348D01*
X198265871Y-118115348D02*
X198075395Y-118115348D01*
X198075395Y-118115348D02*
X197980157Y-118067729D01*
X197980157Y-118067729D02*
X197932538Y-118020109D01*
X197932538Y-118020109D02*
X197884919Y-117924871D01*
X197884919Y-117924871D02*
X197884919Y-117639157D01*
X197884919Y-117639157D02*
X197932538Y-117543919D01*
X197932538Y-117543919D02*
X197980157Y-117496300D01*
X197980157Y-117496300D02*
X198075395Y-117448681D01*
X198075395Y-117448681D02*
X198265871Y-117448681D01*
X198265871Y-117448681D02*
X198361109Y-117496300D01*
X198932538Y-118115348D02*
X198837300Y-118067729D01*
X198837300Y-118067729D02*
X198789681Y-117972490D01*
X198789681Y-117972490D02*
X198789681Y-117115348D01*
X199742062Y-117448681D02*
X199742062Y-118115348D01*
X199313491Y-117448681D02*
X199313491Y-117972490D01*
X199313491Y-117972490D02*
X199361110Y-118067729D01*
X199361110Y-118067729D02*
X199456348Y-118115348D01*
X199456348Y-118115348D02*
X199599205Y-118115348D01*
X199599205Y-118115348D02*
X199694443Y-118067729D01*
X199694443Y-118067729D02*
X199742062Y-118020109D01*
X200218253Y-118115348D02*
X200218253Y-117115348D01*
X200218253Y-117496300D02*
X200313491Y-117448681D01*
X200313491Y-117448681D02*
X200503967Y-117448681D01*
X200503967Y-117448681D02*
X200599205Y-117496300D01*
X200599205Y-117496300D02*
X200646824Y-117543919D01*
X200646824Y-117543919D02*
X200694443Y-117639157D01*
X200694443Y-117639157D02*
X200694443Y-117924871D01*
X200694443Y-117924871D02*
X200646824Y-118020109D01*
X200646824Y-118020109D02*
X200599205Y-118067729D01*
X200599205Y-118067729D02*
X200503967Y-118115348D01*
X200503967Y-118115348D02*
X200313491Y-118115348D01*
X200313491Y-118115348D02*
X200218253Y-118067729D01*
D11*
%TO.C,U3*%
X198500000Y-91000000D03*
X198500000Y-91500000D03*
X198500000Y-92000000D03*
X198500000Y-92500000D03*
X195650000Y-92500000D03*
X195650000Y-92000000D03*
X195650000Y-91500000D03*
X195650000Y-91000000D03*
D12*
X197075000Y-91750000D03*
%TD*%
D13*
%TO.C,C14*%
X200480000Y-104000000D03*
X199520000Y-104000000D03*
%TD*%
D14*
%TO.C,Y1*%
X199300000Y-107200000D03*
X201500000Y-107200000D03*
X201500000Y-105500000D03*
X199300000Y-105500000D03*
%TD*%
D15*
%TO.C,C17*%
X204339411Y-105339411D03*
X203660589Y-104660589D03*
%TD*%
%TO.C,C9*%
X205339411Y-104839411D03*
X204660589Y-104160589D03*
%TD*%
D16*
%TO.C,R5*%
X203000000Y-107510000D03*
X203000000Y-106490000D03*
%TD*%
D17*
%TO.C,C15*%
X197500000Y-106480000D03*
X197500000Y-105520000D03*
%TD*%
D16*
%TO.C,R7*%
X204990000Y-89990000D03*
X204990000Y-91010000D03*
%TD*%
D18*
%TO.C,U2*%
X197050000Y-85875000D03*
X198950000Y-85875000D03*
X198000000Y-84000000D03*
%TD*%
D17*
%TO.C,C10*%
X199560591Y-89115233D03*
X199560591Y-88155233D03*
%TD*%
%TO.C,C8*%
X200500000Y-90480000D03*
X200500000Y-89520000D03*
%TD*%
D19*
%TO.C,U1*%
X200262500Y-97400000D03*
X200262500Y-99000000D03*
X201862500Y-97400000D03*
X201862500Y-99000000D03*
D20*
X197625000Y-95600000D03*
X197625000Y-96000000D03*
X197625000Y-96400000D03*
X197625000Y-96800000D03*
X197625000Y-97200000D03*
X197625000Y-97600000D03*
X197625000Y-98000000D03*
X197625000Y-98400000D03*
X197625000Y-98800000D03*
X197625000Y-99200000D03*
X197625000Y-99600000D03*
X197625000Y-100000000D03*
X197625000Y-100400000D03*
X197625000Y-100800000D03*
D21*
X198462500Y-101637500D03*
X198862500Y-101637500D03*
X199262500Y-101637500D03*
X199662500Y-101637500D03*
X200062500Y-101637500D03*
X200462500Y-101637500D03*
X200862500Y-101637500D03*
X201262500Y-101637500D03*
X201662500Y-101637500D03*
X202062500Y-101637500D03*
X202462500Y-101637500D03*
X202862500Y-101637500D03*
X203262500Y-101637500D03*
X203662500Y-101637500D03*
D20*
X204500000Y-100800000D03*
X204500000Y-100400000D03*
X204500000Y-100000000D03*
X204500000Y-99600000D03*
X204500000Y-99200000D03*
X204500000Y-98800000D03*
X204500000Y-98400000D03*
X204500000Y-98000000D03*
X204500000Y-97600000D03*
X204500000Y-97200000D03*
X204500000Y-96800000D03*
X204500000Y-96400000D03*
X204500000Y-96000000D03*
X204500000Y-95600000D03*
D21*
X203662500Y-94762500D03*
X203262500Y-94762500D03*
X202862500Y-94762500D03*
X202462500Y-94762500D03*
X202062500Y-94762500D03*
X201662500Y-94762500D03*
X201262500Y-94762500D03*
X200862500Y-94762500D03*
X200462500Y-94762500D03*
X200062500Y-94762500D03*
X199662500Y-94762500D03*
X199262500Y-94762500D03*
X198862500Y-94762500D03*
X198462500Y-94762500D03*
%TD*%
D16*
%TO.C,R4*%
X202500000Y-85000000D03*
X202500000Y-86020000D03*
%TD*%
D22*
%TO.C,SW1*%
X205500000Y-83900000D03*
X205500000Y-88100000D03*
%TD*%
D17*
%TO.C,C7*%
X204000000Y-92980000D03*
X204000000Y-92020000D03*
%TD*%
%TO.C,C6*%
X201410430Y-91336444D03*
X201410430Y-90376444D03*
%TD*%
D23*
%TO.C,R6*%
X196360624Y-94860624D03*
X195639376Y-94139376D03*
%TD*%
D24*
%TO.C,C1*%
X205160589Y-92839411D03*
X205839411Y-92160589D03*
%TD*%
D16*
%TO.C,R3*%
X201500000Y-84990000D03*
X201500000Y-86010000D03*
%TD*%
D25*
%TO.C,C12*%
X195500000Y-84225000D03*
X195500000Y-85775000D03*
%TD*%
D17*
%TO.C,C11*%
X203344207Y-90189221D03*
X203344207Y-89229221D03*
%TD*%
D13*
%TO.C,C2*%
X195480000Y-99000000D03*
X194520000Y-99000000D03*
%TD*%
D26*
%TO.C,J1*%
X203750000Y-81500000D03*
X202950000Y-81500000D03*
D27*
X201750000Y-81500000D03*
X200750000Y-81500000D03*
X200250000Y-81500000D03*
X199250000Y-81500000D03*
D26*
X198050000Y-81500000D03*
X197250000Y-81500000D03*
X197250000Y-81500000D03*
X198050000Y-81500000D03*
D27*
X198750000Y-81500000D03*
X199750000Y-81500000D03*
X201250000Y-81500000D03*
X202250000Y-81500000D03*
D26*
X202950000Y-81500000D03*
X203750000Y-81500000D03*
%TD*%
D28*
%TO.C,C13*%
X198275000Y-88000000D03*
X196725000Y-88000000D03*
%TD*%
D16*
%TO.C,R2*%
X200500000Y-84990000D03*
X200500000Y-86010000D03*
%TD*%
%TO.C,R1*%
X203000000Y-86980000D03*
X203000000Y-88000000D03*
%TD*%
M02*
