M48
; DRILL file {KiCad 9.0.6+dfsg-1} date 2025-11-20T13:37:43+0900
; FORMAT={-:-/ absolute / metric / decimal}
; #@! TF.CreationDate,2025-11-20T13:37:43+09:00
; #@! TF.GenerationSoftware,Kicad,Pcbnew,9.0.6+dfsg-1
; #@! TF.FileFunction,Plated,1,2,PTH
FMAT,2
METRIC
; #@! TA.AperFunction,Plated,PTH,ViaDrill
T1C0.300
; #@! TA.AperFunction,Plated,PTH,ComponentDrill
T2C0.600
; #@! TA.AperFunction,Plated,PTH,ComponentDrill
T3C1.000
%
G90
G05
T1
X193.0Y-97.0
X194.5Y-76.0
X194.5Y-94.0
X194.52Y-99.0
X195.0Y-95.5
X195.5Y-123.5
X197.25Y-93.25
X198.0Y-90.0
X198.5Y-98.0
X198.75Y-96.75
X198.95Y-87.0
X199.0Y-100.0
X200.0Y-96.0
X201.062Y-98.2
X201.5Y-107.2
X201.62Y-95.537
X202.082Y-100.742
X203.344Y-89.229
X203.457Y-100.543
X203.5Y-96.0
X203.5Y-99.0
X203.51Y-91.01
X204.0Y-92.02
X204.339Y-105.339
X204.661Y-104.161
X206.25Y-90.25
X206.801Y-89.199
X207.0Y-101.5
X208.0Y-110.5
T3
X191.44Y-76.331
X191.44Y-78.871
X191.44Y-81.411
X191.44Y-83.951
X191.44Y-86.491
X191.44Y-89.031
X191.44Y-91.571
X191.44Y-94.111
X191.44Y-96.651
X191.44Y-99.191
X191.44Y-101.731
X191.44Y-104.271
X191.44Y-106.811
X191.44Y-109.351
X191.44Y-111.891
X191.44Y-114.431
X191.44Y-116.971
X191.44Y-119.511
X191.44Y-122.051
X191.44Y-124.591
X197.96Y-124.0
X200.5Y-124.0
X203.04Y-124.0
X209.628Y-76.344
X209.628Y-78.884
X209.628Y-81.424
X209.628Y-83.964
X209.628Y-86.504
X209.628Y-89.044
X209.628Y-91.584
X209.628Y-94.124
X209.628Y-96.664
X209.628Y-99.204
X209.628Y-101.744
X209.628Y-104.284
X209.628Y-106.824
X209.628Y-109.364
X209.628Y-111.904
X209.628Y-114.444
X209.628Y-116.984
X209.628Y-119.524
X209.628Y-122.064
X209.628Y-124.604
T2
G00X196.18Y-76.705
M15
G01X196.18Y-76.105
M16
G05
G00X196.18Y-81.135
M15
G01X196.18Y-80.035
M16
G05
G00X204.82Y-76.705
M15
G01X204.82Y-76.105
M16
G05
G00X204.82Y-81.135
M15
G01X204.82Y-80.035
M16
G05
M30
