%TF.GenerationSoftware,KiCad,Pcbnew,9.0.6+dfsg-1*%
%TF.CreationDate,2025-11-20T13:37:38+09:00*%
%TF.ProjectId,hiraboard,68697261-626f-4617-9264-2e6b69636164,rev?*%
%TF.SameCoordinates,Original*%
%TF.FileFunction,Soldermask,Bot*%
%TF.FilePolarity,Negative*%
%FSLAX46Y46*%
G04 Gerber Fmt 4.6, Leading zero omitted, Abs format (unit mm)*
G04 Created by KiCad (PCBNEW 9.0.6+dfsg-1) date 2025-11-20 13:37:38*
%MOMM*%
%LPD*%
G01*
G04 APERTURE LIST*
G04 Aperture macros list*
%AMRoundRect*
0 Rectangle with rounded corners*
0 $1 Rounding radius*
0 $2 $3 $4 $5 $6 $7 $8 $9 X,Y pos of 4 corners*
0 Add a 4 corners polygon primitive as box body*
4,1,4,$2,$3,$4,$5,$6,$7,$8,$9,$2,$3,0*
0 Add four circle primitives for the rounded corners*
1,1,$1+$1,$2,$3*
1,1,$1+$1,$4,$5*
1,1,$1+$1,$6,$7*
1,1,$1+$1,$8,$9*
0 Add four rect primitives between the rounded corners*
20,1,$1+$1,$2,$3,$4,$5,0*
20,1,$1+$1,$4,$5,$6,$7,0*
20,1,$1+$1,$6,$7,$8,$9,0*
20,1,$1+$1,$8,$9,$2,$3,0*%
G04 Aperture macros list end*
%ADD10C,1.700000*%
%ADD11R,1.700000X1.700000*%
%ADD12C,0.650000*%
%ADD13O,1.000000X2.100000*%
%ADD14O,1.000000X1.600000*%
%ADD15RoundRect,0.140000X-0.140000X-0.170000X0.140000X-0.170000X0.140000X0.170000X-0.140000X0.170000X0*%
G04 APERTURE END LIST*
D10*
%TO.C,J2*%
X191439678Y-124591419D03*
X191439678Y-122051419D03*
X191439678Y-119511419D03*
X191439678Y-116971419D03*
X191439678Y-114431419D03*
X191439678Y-111891419D03*
X191439678Y-109351419D03*
X191439678Y-106811419D03*
X191439678Y-104271419D03*
X191439678Y-101731419D03*
X191439678Y-99191419D03*
X191439678Y-96651419D03*
X191439678Y-94111419D03*
X191439678Y-91571419D03*
X191439678Y-89031419D03*
X191439678Y-86491419D03*
X191439678Y-83951419D03*
X191439678Y-81411419D03*
X191439678Y-78871419D03*
D11*
X191439678Y-76331419D03*
%TD*%
D10*
%TO.C,J3*%
X209627987Y-124604160D03*
X209627987Y-122064160D03*
X209627987Y-119524160D03*
X209627987Y-116984160D03*
X209627987Y-114444160D03*
X209627987Y-111904160D03*
X209627987Y-109364160D03*
X209627987Y-106824160D03*
X209627987Y-104284160D03*
X209627987Y-101744160D03*
X209627987Y-99204160D03*
X209627987Y-96664160D03*
X209627987Y-94124160D03*
X209627987Y-91584160D03*
X209627987Y-89044160D03*
X209627987Y-86504160D03*
X209627987Y-83964160D03*
X209627987Y-81424160D03*
X209627987Y-78884160D03*
D11*
X209627987Y-76344160D03*
%TD*%
%TO.C,J4*%
X197960000Y-124000000D03*
D10*
X200500000Y-124000000D03*
X203040000Y-124000000D03*
%TD*%
D12*
%TO.C,J1*%
X203390000Y-80055000D03*
X197610000Y-80055000D03*
D13*
X204820000Y-80585000D03*
D14*
X204820000Y-76405000D03*
D13*
X196180000Y-80585000D03*
D14*
X196180000Y-76405000D03*
%TD*%
D15*
%TO.C,C4*%
X205520000Y-95500000D03*
X206480000Y-95500000D03*
%TD*%
%TO.C,C5*%
X200020000Y-97000000D03*
X200980000Y-97000000D03*
%TD*%
%TO.C,C3*%
X205520000Y-99000000D03*
X206480000Y-99000000D03*
%TD*%
%TO.C,C16*%
X203520000Y-98000000D03*
X204480000Y-98000000D03*
%TD*%
M02*
