%TF.GenerationSoftware,KiCad,Pcbnew,9.0.6+dfsg-1*%
%TF.CreationDate,2025-11-20T13:37:38+09:00*%
%TF.ProjectId,hiraboard,68697261-626f-4617-9264-2e6b69636164,rev?*%
%TF.SameCoordinates,Original*%
%TF.FileFunction,Soldermask,Top*%
%TF.FilePolarity,Negative*%
%FSLAX46Y46*%
G04 Gerber Fmt 4.6, Leading zero omitted, Abs format (unit mm)*
G04 Created by KiCad (PCBNEW 9.0.6+dfsg-1) date 2025-11-20 13:37:38*
%MOMM*%
%LPD*%
G01*
G04 APERTURE LIST*
G04 Aperture macros list*
%AMRoundRect*
0 Rectangle with rounded corners*
0 $1 Rounding radius*
0 $2 $3 $4 $5 $6 $7 $8 $9 X,Y pos of 4 corners*
0 Add a 4 corners polygon primitive as box body*
4,1,4,$2,$3,$4,$5,$6,$7,$8,$9,$2,$3,0*
0 Add four circle primitives for the rounded corners*
1,1,$1+$1,$2,$3*
1,1,$1+$1,$4,$5*
1,1,$1+$1,$6,$7*
1,1,$1+$1,$8,$9*
0 Add four rect primitives between the rounded corners*
20,1,$1+$1,$2,$3,$4,$5,0*
20,1,$1+$1,$4,$5,$6,$7,0*
20,1,$1+$1,$6,$7,$8,$9,0*
20,1,$1+$1,$8,$9,$2,$3,0*%
G04 Aperture macros list end*
%ADD10C,1.700000*%
%ADD11R,1.700000X1.700000*%
%ADD12R,0.200000X1.600000*%
%ADD13RoundRect,0.062500X-0.387500X-0.062500X0.387500X-0.062500X0.387500X0.062500X-0.387500X0.062500X0*%
%ADD14RoundRect,0.140000X0.140000X0.170000X-0.140000X0.170000X-0.140000X-0.170000X0.140000X-0.170000X0*%
%ADD15RoundRect,0.250000X-0.450000X-0.350000X0.450000X-0.350000X0.450000X0.350000X-0.450000X0.350000X0*%
%ADD16RoundRect,0.140000X-0.219203X-0.021213X-0.021213X-0.219203X0.219203X0.021213X0.021213X0.219203X0*%
%ADD17RoundRect,0.135000X-0.185000X0.135000X-0.185000X-0.135000X0.185000X-0.135000X0.185000X0.135000X0*%
%ADD18RoundRect,0.140000X0.170000X-0.140000X0.170000X0.140000X-0.170000X0.140000X-0.170000X-0.140000X0*%
%ADD19RoundRect,0.150000X0.150000X-0.587500X0.150000X0.587500X-0.150000X0.587500X-0.150000X-0.587500X0*%
%ADD20RoundRect,0.050000X-0.387500X-0.050000X0.387500X-0.050000X0.387500X0.050000X-0.387500X0.050000X0*%
%ADD21RoundRect,0.050000X-0.050000X-0.387500X0.050000X-0.387500X0.050000X0.387500X-0.050000X0.387500X0*%
%ADD22R,3.200000X3.200000*%
%ADD23RoundRect,0.200000X-0.800000X0.200000X-0.800000X-0.200000X0.800000X-0.200000X0.800000X0.200000X0*%
%ADD24RoundRect,0.135000X0.226274X0.035355X0.035355X0.226274X-0.226274X-0.035355X-0.035355X-0.226274X0*%
%ADD25RoundRect,0.140000X0.021213X-0.219203X0.219203X-0.021213X-0.021213X0.219203X-0.219203X0.021213X0*%
%ADD26RoundRect,0.225000X-0.250000X0.225000X-0.250000X-0.225000X0.250000X-0.225000X0.250000X0.225000X0*%
%ADD27C,0.650000*%
%ADD28R,0.600000X1.450000*%
%ADD29R,0.300000X1.450000*%
%ADD30O,1.000000X2.100000*%
%ADD31O,1.000000X1.600000*%
%ADD32RoundRect,0.225000X0.225000X0.250000X-0.225000X0.250000X-0.225000X-0.250000X0.225000X-0.250000X0*%
G04 APERTURE END LIST*
D10*
%TO.C,J2*%
X191439678Y-124591419D03*
X191439678Y-122051419D03*
X191439678Y-119511419D03*
X191439678Y-116971419D03*
X191439678Y-114431419D03*
X191439678Y-111891419D03*
X191439678Y-109351419D03*
X191439678Y-106811419D03*
X191439678Y-104271419D03*
X191439678Y-101731419D03*
X191439678Y-99191419D03*
X191439678Y-96651419D03*
X191439678Y-94111419D03*
X191439678Y-91571419D03*
X191439678Y-89031419D03*
X191439678Y-86491419D03*
X191439678Y-83951419D03*
X191439678Y-81411419D03*
X191439678Y-78871419D03*
D11*
X191439678Y-76331419D03*
%TD*%
D12*
%TO.C,U3*%
X197075000Y-91750000D03*
D13*
X198500000Y-91000000D03*
X198500000Y-91500000D03*
X198500000Y-92000000D03*
X198500000Y-92500000D03*
X195650000Y-92500000D03*
X195650000Y-92000000D03*
X195650000Y-91500000D03*
X195650000Y-91000000D03*
%TD*%
D14*
%TO.C,C14*%
X200480000Y-104000000D03*
X199520000Y-104000000D03*
%TD*%
D15*
%TO.C,Y1*%
X199300000Y-107200000D03*
X201500000Y-107200000D03*
X201500000Y-105500000D03*
X199300000Y-105500000D03*
%TD*%
D16*
%TO.C,C17*%
X204339411Y-105339411D03*
X203660589Y-104660589D03*
%TD*%
%TO.C,C9*%
X205339411Y-104839411D03*
X204660589Y-104160589D03*
%TD*%
D17*
%TO.C,R5*%
X203000000Y-107510000D03*
X203000000Y-106490000D03*
%TD*%
D10*
%TO.C,J3*%
X209627987Y-124604160D03*
X209627987Y-122064160D03*
X209627987Y-119524160D03*
X209627987Y-116984160D03*
X209627987Y-114444160D03*
X209627987Y-111904160D03*
X209627987Y-109364160D03*
X209627987Y-106824160D03*
X209627987Y-104284160D03*
X209627987Y-101744160D03*
X209627987Y-99204160D03*
X209627987Y-96664160D03*
X209627987Y-94124160D03*
X209627987Y-91584160D03*
X209627987Y-89044160D03*
X209627987Y-86504160D03*
X209627987Y-83964160D03*
X209627987Y-81424160D03*
X209627987Y-78884160D03*
D11*
X209627987Y-76344160D03*
%TD*%
D18*
%TO.C,C15*%
X197500000Y-106480000D03*
X197500000Y-105520000D03*
%TD*%
D17*
%TO.C,R7*%
X204990000Y-89990000D03*
X204990000Y-91010000D03*
%TD*%
D19*
%TO.C,U2*%
X197050000Y-85875000D03*
X198950000Y-85875000D03*
X198000000Y-84000000D03*
%TD*%
D18*
%TO.C,C10*%
X199560591Y-89115233D03*
X199560591Y-88155233D03*
%TD*%
%TO.C,C8*%
X200500000Y-90480000D03*
X200500000Y-89520000D03*
%TD*%
D20*
%TO.C,U1*%
X197625000Y-95600000D03*
X197625000Y-96000000D03*
X197625000Y-96400000D03*
X197625000Y-96800000D03*
X197625000Y-97200000D03*
X197625000Y-97600000D03*
X197625000Y-98000000D03*
X197625000Y-98400000D03*
X197625000Y-98800000D03*
X197625000Y-99200000D03*
X197625000Y-99600000D03*
X197625000Y-100000000D03*
X197625000Y-100400000D03*
X197625000Y-100800000D03*
D21*
X198462500Y-101637500D03*
X198862500Y-101637500D03*
X199262500Y-101637500D03*
X199662500Y-101637500D03*
X200062500Y-101637500D03*
X200462500Y-101637500D03*
X200862500Y-101637500D03*
X201262500Y-101637500D03*
X201662500Y-101637500D03*
X202062500Y-101637500D03*
X202462500Y-101637500D03*
X202862500Y-101637500D03*
X203262500Y-101637500D03*
X203662500Y-101637500D03*
D20*
X204500000Y-100800000D03*
X204500000Y-100400000D03*
X204500000Y-100000000D03*
X204500000Y-99600000D03*
X204500000Y-99200000D03*
X204500000Y-98800000D03*
X204500000Y-98400000D03*
X204500000Y-98000000D03*
X204500000Y-97600000D03*
X204500000Y-97200000D03*
X204500000Y-96800000D03*
X204500000Y-96400000D03*
X204500000Y-96000000D03*
X204500000Y-95600000D03*
D21*
X203662500Y-94762500D03*
X203262500Y-94762500D03*
X202862500Y-94762500D03*
X202462500Y-94762500D03*
X202062500Y-94762500D03*
X201662500Y-94762500D03*
X201262500Y-94762500D03*
X200862500Y-94762500D03*
X200462500Y-94762500D03*
X200062500Y-94762500D03*
X199662500Y-94762500D03*
X199262500Y-94762500D03*
X198862500Y-94762500D03*
X198462500Y-94762500D03*
D22*
X201062500Y-98200000D03*
%TD*%
D17*
%TO.C,R4*%
X202500000Y-85000000D03*
X202500000Y-86020000D03*
%TD*%
D23*
%TO.C,SW1*%
X205500000Y-83900000D03*
X205500000Y-88100000D03*
%TD*%
D18*
%TO.C,C7*%
X204000000Y-92980000D03*
X204000000Y-92020000D03*
%TD*%
%TO.C,C6*%
X201410430Y-91336444D03*
X201410430Y-90376444D03*
%TD*%
D24*
%TO.C,R6*%
X196360624Y-94860624D03*
X195639376Y-94139376D03*
%TD*%
D25*
%TO.C,C1*%
X205160589Y-92839411D03*
X205839411Y-92160589D03*
%TD*%
D11*
%TO.C,J4*%
X197960000Y-124000000D03*
D10*
X200500000Y-124000000D03*
X203040000Y-124000000D03*
%TD*%
D17*
%TO.C,R3*%
X201500000Y-84990000D03*
X201500000Y-86010000D03*
%TD*%
D26*
%TO.C,C12*%
X195500000Y-84225000D03*
X195500000Y-85775000D03*
%TD*%
D18*
%TO.C,C11*%
X203344207Y-90189221D03*
X203344207Y-89229221D03*
%TD*%
D14*
%TO.C,C2*%
X195480000Y-99000000D03*
X194520000Y-99000000D03*
%TD*%
D27*
%TO.C,J1*%
X203390000Y-80055000D03*
X197610000Y-80055000D03*
D28*
X203750000Y-81500000D03*
X202950000Y-81500000D03*
D29*
X201750000Y-81500000D03*
X200750000Y-81500000D03*
X200250000Y-81500000D03*
X199250000Y-81500000D03*
D28*
X198050000Y-81500000D03*
X197250000Y-81500000D03*
X197250000Y-81500000D03*
X198050000Y-81500000D03*
D29*
X198750000Y-81500000D03*
X199750000Y-81500000D03*
X201250000Y-81500000D03*
X202250000Y-81500000D03*
D28*
X202950000Y-81500000D03*
X203750000Y-81500000D03*
D30*
X204820000Y-80585000D03*
D31*
X204820000Y-76405000D03*
D30*
X196180000Y-80585000D03*
D31*
X196180000Y-76405000D03*
%TD*%
D32*
%TO.C,C13*%
X198275000Y-88000000D03*
X196725000Y-88000000D03*
%TD*%
D17*
%TO.C,R2*%
X200500000Y-84990000D03*
X200500000Y-86010000D03*
%TD*%
%TO.C,R1*%
X203000000Y-86980000D03*
X203000000Y-88000000D03*
%TD*%
M02*
