%TF.GenerationSoftware,KiCad,Pcbnew,9.0.6+dfsg-1*%
%TF.CreationDate,2025-11-20T13:37:38+09:00*%
%TF.ProjectId,hiraboard,68697261-626f-4617-9264-2e6b69636164,rev?*%
%TF.SameCoordinates,Original*%
%TF.FileFunction,Copper,L1,Top*%
%TF.FilePolarity,Positive*%
%FSLAX46Y46*%
G04 Gerber Fmt 4.6, Leading zero omitted, Abs format (unit mm)*
G04 Created by KiCad (PCBNEW 9.0.6+dfsg-1) date 2025-11-20 13:37:38*
%MOMM*%
%LPD*%
G01*
G04 APERTURE LIST*
G04 Aperture macros list*
%AMRoundRect*
0 Rectangle with rounded corners*
0 $1 Rounding radius*
0 $2 $3 $4 $5 $6 $7 $8 $9 X,Y pos of 4 corners*
0 Add a 4 corners polygon primitive as box body*
4,1,4,$2,$3,$4,$5,$6,$7,$8,$9,$2,$3,0*
0 Add four circle primitives for the rounded corners*
1,1,$1+$1,$2,$3*
1,1,$1+$1,$4,$5*
1,1,$1+$1,$6,$7*
1,1,$1+$1,$8,$9*
0 Add four rect primitives between the rounded corners*
20,1,$1+$1,$2,$3,$4,$5,0*
20,1,$1+$1,$4,$5,$6,$7,0*
20,1,$1+$1,$6,$7,$8,$9,0*
20,1,$1+$1,$8,$9,$2,$3,0*%
G04 Aperture macros list end*
%TA.AperFunction,ComponentPad*%
%ADD10C,1.700000*%
%TD*%
%TA.AperFunction,ComponentPad*%
%ADD11R,1.700000X1.700000*%
%TD*%
%TA.AperFunction,HeatsinkPad*%
%ADD12R,0.200000X1.600000*%
%TD*%
%TA.AperFunction,SMDPad,CuDef*%
%ADD13RoundRect,0.062500X-0.387500X-0.062500X0.387500X-0.062500X0.387500X0.062500X-0.387500X0.062500X0*%
%TD*%
%TA.AperFunction,SMDPad,CuDef*%
%ADD14RoundRect,0.140000X0.140000X0.170000X-0.140000X0.170000X-0.140000X-0.170000X0.140000X-0.170000X0*%
%TD*%
%TA.AperFunction,SMDPad,CuDef*%
%ADD15RoundRect,0.250000X-0.450000X-0.350000X0.450000X-0.350000X0.450000X0.350000X-0.450000X0.350000X0*%
%TD*%
%TA.AperFunction,SMDPad,CuDef*%
%ADD16RoundRect,0.140000X-0.219203X-0.021213X-0.021213X-0.219203X0.219203X0.021213X0.021213X0.219203X0*%
%TD*%
%TA.AperFunction,SMDPad,CuDef*%
%ADD17RoundRect,0.135000X-0.185000X0.135000X-0.185000X-0.135000X0.185000X-0.135000X0.185000X0.135000X0*%
%TD*%
%TA.AperFunction,SMDPad,CuDef*%
%ADD18RoundRect,0.140000X0.170000X-0.140000X0.170000X0.140000X-0.170000X0.140000X-0.170000X-0.140000X0*%
%TD*%
%TA.AperFunction,SMDPad,CuDef*%
%ADD19RoundRect,0.150000X0.150000X-0.587500X0.150000X0.587500X-0.150000X0.587500X-0.150000X-0.587500X0*%
%TD*%
%TA.AperFunction,SMDPad,CuDef*%
%ADD20RoundRect,0.050000X-0.387500X-0.050000X0.387500X-0.050000X0.387500X0.050000X-0.387500X0.050000X0*%
%TD*%
%TA.AperFunction,SMDPad,CuDef*%
%ADD21RoundRect,0.050000X-0.050000X-0.387500X0.050000X-0.387500X0.050000X0.387500X-0.050000X0.387500X0*%
%TD*%
%TA.AperFunction,HeatsinkPad*%
%ADD22R,3.200000X3.200000*%
%TD*%
%TA.AperFunction,SMDPad,CuDef*%
%ADD23RoundRect,0.200000X-0.800000X0.200000X-0.800000X-0.200000X0.800000X-0.200000X0.800000X0.200000X0*%
%TD*%
%TA.AperFunction,SMDPad,CuDef*%
%ADD24RoundRect,0.135000X0.226274X0.035355X0.035355X0.226274X-0.226274X-0.035355X-0.035355X-0.226274X0*%
%TD*%
%TA.AperFunction,SMDPad,CuDef*%
%ADD25RoundRect,0.140000X0.021213X-0.219203X0.219203X-0.021213X-0.021213X0.219203X-0.219203X0.021213X0*%
%TD*%
%TA.AperFunction,SMDPad,CuDef*%
%ADD26RoundRect,0.225000X-0.250000X0.225000X-0.250000X-0.225000X0.250000X-0.225000X0.250000X0.225000X0*%
%TD*%
%TA.AperFunction,SMDPad,CuDef*%
%ADD27R,0.600000X1.450000*%
%TD*%
%TA.AperFunction,SMDPad,CuDef*%
%ADD28R,0.300000X1.450000*%
%TD*%
%TA.AperFunction,HeatsinkPad*%
%ADD29O,1.000000X2.100000*%
%TD*%
%TA.AperFunction,HeatsinkPad*%
%ADD30O,1.000000X1.600000*%
%TD*%
%TA.AperFunction,SMDPad,CuDef*%
%ADD31RoundRect,0.225000X0.225000X0.250000X-0.225000X0.250000X-0.225000X-0.250000X0.225000X-0.250000X0*%
%TD*%
%TA.AperFunction,ViaPad*%
%ADD32C,0.600000*%
%TD*%
%TA.AperFunction,Conductor*%
%ADD33C,0.200000*%
%TD*%
G04 APERTURE END LIST*
D10*
%TO.P,J2,20,Pin_20*%
%TO.N,GPIO15*%
X191439678Y-124591419D03*
%TO.P,J2,19,Pin_19*%
%TO.N,GPIO14*%
X191439678Y-122051419D03*
%TO.P,J2,18,Pin_18*%
%TO.N,GND*%
X191439678Y-119511419D03*
%TO.P,J2,17,Pin_17*%
%TO.N,GPIO13*%
X191439678Y-116971419D03*
%TO.P,J2,16,Pin_16*%
%TO.N,GPIO12*%
X191439678Y-114431419D03*
%TO.P,J2,15,Pin_15*%
%TO.N,GPIO11*%
X191439678Y-111891419D03*
%TO.P,J2,14,Pin_14*%
%TO.N,GPIO10*%
X191439678Y-109351419D03*
%TO.P,J2,13,Pin_13*%
%TO.N,GND*%
X191439678Y-106811419D03*
%TO.P,J2,12,Pin_12*%
%TO.N,GPIO9*%
X191439678Y-104271419D03*
%TO.P,J2,11,Pin_11*%
%TO.N,GPIO8*%
X191439678Y-101731419D03*
%TO.P,J2,10,Pin_10*%
%TO.N,GPIO7*%
X191439678Y-99191419D03*
%TO.P,J2,9,Pin_9*%
%TO.N,GPIO6*%
X191439678Y-96651419D03*
%TO.P,J2,8,Pin_8*%
%TO.N,GND*%
X191439678Y-94111419D03*
%TO.P,J2,7,Pin_7*%
%TO.N,GPIO5*%
X191439678Y-91571419D03*
%TO.P,J2,6,Pin_6*%
%TO.N,GPIO4*%
X191439678Y-89031419D03*
%TO.P,J2,5,Pin_5*%
%TO.N,GPIO3*%
X191439678Y-86491419D03*
%TO.P,J2,4,Pin_4*%
%TO.N,GPIO2*%
X191439678Y-83951419D03*
%TO.P,J2,3,Pin_3*%
%TO.N,GND*%
X191439678Y-81411419D03*
%TO.P,J2,2,Pin_2*%
%TO.N,GPIO1*%
X191439678Y-78871419D03*
D11*
%TO.P,J2,1,Pin_1*%
%TO.N,GPIO0*%
X191439678Y-76331419D03*
%TD*%
D12*
%TO.P,U3,9*%
%TO.N,N/C*%
X197075000Y-91750000D03*
D13*
%TO.P,U3,8,VCC*%
%TO.N,+3V3*%
X198500000Y-91000000D03*
%TO.P,U3,7,~{HOLD}/~{RESET}/IO_{3}*%
%TO.N,QSPI_SD3*%
X198500000Y-91500000D03*
%TO.P,U3,6,CLK*%
%TO.N,QSPI_SCLK*%
X198500000Y-92000000D03*
%TO.P,U3,5,DI/IO_{0}*%
%TO.N,QSPI_SD0*%
X198500000Y-92500000D03*
%TO.P,U3,4,GND*%
%TO.N,GND*%
X195650000Y-92500000D03*
%TO.P,U3,3,~{WP}/IO_{2}*%
%TO.N,QSPI_SD2*%
X195650000Y-92000000D03*
%TO.P,U3,2,DO/IO_{1}*%
%TO.N,QSPI_SD1*%
X195650000Y-91500000D03*
%TO.P,U3,1,~{CS}*%
%TO.N,QSPI_SS*%
X195650000Y-91000000D03*
%TD*%
D14*
%TO.P,C14,1*%
%TO.N,XIN*%
X200480000Y-104000000D03*
%TO.P,C14,2*%
%TO.N,GND*%
X199520000Y-104000000D03*
%TD*%
D15*
%TO.P,Y1,1,1*%
%TO.N,Net-(C15-Pad1)*%
X199300000Y-107200000D03*
%TO.P,Y1,2,2*%
%TO.N,GND*%
X201500000Y-107200000D03*
%TO.P,Y1,3,3*%
%TO.N,XIN*%
X201500000Y-105500000D03*
%TO.P,Y1,4,4*%
%TO.N,GND*%
X199300000Y-105500000D03*
%TD*%
D16*
%TO.P,C17,2*%
%TO.N,GND*%
X204339411Y-105339411D03*
%TO.P,C17,1*%
%TO.N,+3V3*%
X203660589Y-104660589D03*
%TD*%
%TO.P,C9,2*%
%TO.N,GND*%
X205339411Y-104839411D03*
%TO.P,C9,1*%
%TO.N,+1V1*%
X204660589Y-104160589D03*
%TD*%
D17*
%TO.P,R5,2*%
%TO.N,Net-(C15-Pad1)*%
X203000000Y-107510000D03*
%TO.P,R5,1*%
%TO.N,XOUT*%
X203000000Y-106490000D03*
%TD*%
D10*
%TO.P,J3,20,Pin_20*%
%TO.N,GPIO16*%
X209627987Y-124604160D03*
%TO.P,J3,19,Pin_19*%
%TO.N,GPIO17*%
X209627987Y-122064160D03*
%TO.P,J3,18,Pin_18*%
%TO.N,GND*%
X209627987Y-119524160D03*
%TO.P,J3,17,Pin_17*%
%TO.N,GPIO18*%
X209627987Y-116984160D03*
%TO.P,J3,16,Pin_16*%
%TO.N,GPIO19*%
X209627987Y-114444160D03*
%TO.P,J3,15,Pin_15*%
%TO.N,GPIO20*%
X209627987Y-111904160D03*
%TO.P,J3,14,Pin_14*%
%TO.N,GPIO21*%
X209627987Y-109364160D03*
%TO.P,J3,13,Pin_13*%
%TO.N,GND*%
X209627987Y-106824160D03*
%TO.P,J3,12,Pin_12*%
%TO.N,GPIO22*%
X209627987Y-104284160D03*
%TO.P,J3,11,Pin_11*%
%TO.N,RUN*%
X209627987Y-101744160D03*
%TO.P,J3,10,Pin_10*%
%TO.N,GPIO23*%
X209627987Y-99204160D03*
%TO.P,J3,9,Pin_9*%
%TO.N,GPIO24*%
X209627987Y-96664160D03*
%TO.P,J3,8,Pin_8*%
%TO.N,GND*%
X209627987Y-94124160D03*
%TO.P,J3,7,Pin_7*%
%TO.N,GPIO26_ADC0*%
X209627987Y-91584160D03*
%TO.P,J3,6,Pin_6*%
%TO.N,GPIO27_ADC1*%
X209627987Y-89044160D03*
%TO.P,J3,5,Pin_5*%
%TO.N,+3V3*%
X209627987Y-86504160D03*
%TO.P,J3,4,Pin_4*%
%TO.N,GPIO28_ADC2*%
X209627987Y-83964160D03*
%TO.P,J3,3,Pin_3*%
%TO.N,GND*%
X209627987Y-81424160D03*
%TO.P,J3,2,Pin_2*%
%TO.N,GPIO29_ADC3*%
X209627987Y-78884160D03*
D11*
%TO.P,J3,1,Pin_1*%
%TO.N,VBUS*%
X209627987Y-76344160D03*
%TD*%
D18*
%TO.P,C15,1*%
%TO.N,Net-(C15-Pad1)*%
X197500000Y-106480000D03*
%TO.P,C15,2*%
%TO.N,GND*%
X197500000Y-105520000D03*
%TD*%
D17*
%TO.P,R7,1*%
%TO.N,Net-(R7-Pad1)*%
X204990000Y-89990000D03*
%TO.P,R7,2*%
%TO.N,QSPI_SS*%
X204990000Y-91010000D03*
%TD*%
D19*
%TO.P,U2,1,GND*%
%TO.N,GND*%
X197050000Y-85875000D03*
%TO.P,U2,2,VO*%
%TO.N,+3V3*%
X198950000Y-85875000D03*
%TO.P,U2,3,VI*%
%TO.N,Net-(U2-VI)*%
X198000000Y-84000000D03*
%TD*%
D18*
%TO.P,C10,1*%
%TO.N,+1V1*%
X199560591Y-89115233D03*
%TO.P,C10,2*%
%TO.N,GND*%
X199560591Y-88155233D03*
%TD*%
%TO.P,C8,1*%
%TO.N,+3V3*%
X200500000Y-90480000D03*
%TO.P,C8,2*%
%TO.N,GND*%
X200500000Y-89520000D03*
%TD*%
D20*
%TO.P,U1,1,IOVDD*%
%TO.N,+3V3*%
X197625000Y-95600000D03*
%TO.P,U1,2,GPIO0*%
%TO.N,GPIO0*%
X197625000Y-96000000D03*
%TO.P,U1,3,GPIO1*%
%TO.N,GPIO1*%
X197625000Y-96400000D03*
%TO.P,U1,4,GPIO2*%
%TO.N,GPIO2*%
X197625000Y-96800000D03*
%TO.P,U1,5,GPIO3*%
%TO.N,GPIO3*%
X197625000Y-97200000D03*
%TO.P,U1,6,GPIO4*%
%TO.N,GPIO4*%
X197625000Y-97600000D03*
%TO.P,U1,7,GPIO5*%
%TO.N,GPIO5*%
X197625000Y-98000000D03*
%TO.P,U1,8,GPIO6*%
%TO.N,GPIO6*%
X197625000Y-98400000D03*
%TO.P,U1,9,GPIO7*%
%TO.N,GPIO7*%
X197625000Y-98800000D03*
%TO.P,U1,10,IOVDD*%
%TO.N,+3V3*%
X197625000Y-99200000D03*
%TO.P,U1,11,GPIO8*%
%TO.N,GPIO8*%
X197625000Y-99600000D03*
%TO.P,U1,12,GPIO9*%
%TO.N,GPIO9*%
X197625000Y-100000000D03*
%TO.P,U1,13,GPIO10*%
%TO.N,GPIO10*%
X197625000Y-100400000D03*
%TO.P,U1,14,GPIO11*%
%TO.N,GPIO11*%
X197625000Y-100800000D03*
D21*
%TO.P,U1,15,GPIO12*%
%TO.N,GPIO12*%
X198462500Y-101637500D03*
%TO.P,U1,16,GPIO13*%
%TO.N,GPIO13*%
X198862500Y-101637500D03*
%TO.P,U1,17,GPIO14*%
%TO.N,GPIO14*%
X199262500Y-101637500D03*
%TO.P,U1,18,GPIO15*%
%TO.N,GPIO15*%
X199662500Y-101637500D03*
%TO.P,U1,19,TESTEN*%
%TO.N,GND*%
X200062500Y-101637500D03*
%TO.P,U1,20,XIN*%
%TO.N,XIN*%
X200462500Y-101637500D03*
%TO.P,U1,21,XOUT*%
%TO.N,XOUT*%
X200862500Y-101637500D03*
%TO.P,U1,22,IOVDD*%
%TO.N,+3V3*%
X201262500Y-101637500D03*
%TO.P,U1,23,DVDD*%
%TO.N,+1V1*%
X201662500Y-101637500D03*
%TO.P,U1,24,SWCLK*%
%TO.N,SWCLK*%
X202062500Y-101637500D03*
%TO.P,U1,25,SWD*%
%TO.N,SWD*%
X202462500Y-101637500D03*
%TO.P,U1,26,RUN*%
%TO.N,RUN*%
X202862500Y-101637500D03*
%TO.P,U1,27,GPIO16*%
%TO.N,GPIO16*%
X203262500Y-101637500D03*
%TO.P,U1,28,GPIO17*%
%TO.N,GPIO17*%
X203662500Y-101637500D03*
D20*
%TO.P,U1,29,GPIO18*%
%TO.N,GPIO18*%
X204500000Y-100800000D03*
%TO.P,U1,30,GPIO19*%
%TO.N,GPIO19*%
X204500000Y-100400000D03*
%TO.P,U1,31,GPIO20*%
%TO.N,GPIO20*%
X204500000Y-100000000D03*
%TO.P,U1,32,GPIO21*%
%TO.N,GPIO21*%
X204500000Y-99600000D03*
%TO.P,U1,33,IOVDD*%
%TO.N,+3V3*%
X204500000Y-99200000D03*
%TO.P,U1,34,GPIO22*%
%TO.N,GPIO22*%
X204500000Y-98800000D03*
%TO.P,U1,35,GPIO23*%
%TO.N,GPIO23*%
X204500000Y-98400000D03*
%TO.P,U1,36,GPIO24*%
%TO.N,GPIO24*%
X204500000Y-98000000D03*
%TO.P,U1,37,GPIO25*%
%TO.N,unconnected-(U1-GPIO25-Pad37)*%
X204500000Y-97600000D03*
%TO.P,U1,38,GPIO26_ADC0*%
%TO.N,GPIO26_ADC0*%
X204500000Y-97200000D03*
%TO.P,U1,39,GPIO27_ADC1*%
%TO.N,GPIO27_ADC1*%
X204500000Y-96800000D03*
%TO.P,U1,40,GPIO28_ADC2*%
%TO.N,GPIO28_ADC2*%
X204500000Y-96400000D03*
%TO.P,U1,41,GPIO29_ADC3*%
%TO.N,GPIO29_ADC3*%
X204500000Y-96000000D03*
%TO.P,U1,42,IOVDD*%
%TO.N,+3V3*%
X204500000Y-95600000D03*
D21*
%TO.P,U1,43,ADC_AVDD*%
X203662500Y-94762500D03*
%TO.P,U1,44,VREG_IN*%
X203262500Y-94762500D03*
%TO.P,U1,45,VREG_VOUT*%
%TO.N,+1V1*%
X202862500Y-94762500D03*
%TO.P,U1,46,USB_DM*%
%TO.N,Net-(U1-USB_DM)*%
X202462500Y-94762500D03*
%TO.P,U1,47,USB_DP*%
%TO.N,Net-(U1-USB_DP)*%
X202062500Y-94762500D03*
%TO.P,U1,48,USB_VDD*%
%TO.N,+3V3*%
X201662500Y-94762500D03*
%TO.P,U1,49,IOVDD*%
X201262500Y-94762500D03*
%TO.P,U1,50,DVDD*%
%TO.N,+1V1*%
X200862500Y-94762500D03*
%TO.P,U1,51,QSPI_SD3*%
%TO.N,QSPI_SD3*%
X200462500Y-94762500D03*
%TO.P,U1,52,QSPI_SCLK*%
%TO.N,QSPI_SCLK*%
X200062500Y-94762500D03*
%TO.P,U1,53,QSPI_SD0*%
%TO.N,QSPI_SD0*%
X199662500Y-94762500D03*
%TO.P,U1,54,QSPI_SD2*%
%TO.N,QSPI_SD2*%
X199262500Y-94762500D03*
%TO.P,U1,55,QSPI_SD1*%
%TO.N,QSPI_SD1*%
X198862500Y-94762500D03*
%TO.P,U1,56,QSPI_SS*%
%TO.N,QSPI_SS*%
X198462500Y-94762500D03*
D22*
%TO.P,U1,57,GND*%
%TO.N,GND*%
X201062500Y-98200000D03*
%TD*%
D17*
%TO.P,R4,1*%
%TO.N,USB_D-*%
X202500000Y-85000000D03*
%TO.P,R4,2*%
%TO.N,Net-(U1-USB_DM)*%
X202500000Y-86020000D03*
%TD*%
D23*
%TO.P,SW1,1,1*%
%TO.N,GND*%
X205500000Y-83900000D03*
%TO.P,SW1,2,2*%
%TO.N,Net-(R7-Pad1)*%
X205500000Y-88100000D03*
%TD*%
D18*
%TO.P,C7,1*%
%TO.N,+3V3*%
X204000000Y-92980000D03*
%TO.P,C7,2*%
%TO.N,GND*%
X204000000Y-92020000D03*
%TD*%
%TO.P,C6,1*%
%TO.N,+3V3*%
X201410430Y-91336444D03*
%TO.P,C6,2*%
%TO.N,GND*%
X201410430Y-90376444D03*
%TD*%
D24*
%TO.P,R6,1*%
%TO.N,+3V3*%
X196360624Y-94860624D03*
%TO.P,R6,2*%
%TO.N,QSPI_SS*%
X195639376Y-94139376D03*
%TD*%
D25*
%TO.P,C1,1*%
%TO.N,+3V3*%
X205160589Y-92839411D03*
%TO.P,C1,2*%
%TO.N,GND*%
X205839411Y-92160589D03*
%TD*%
D11*
%TO.P,J4,1,Pin_1*%
%TO.N,SWCLK*%
X197960000Y-124000000D03*
D10*
%TO.P,J4,2,Pin_2*%
%TO.N,GND*%
X200500000Y-124000000D03*
%TO.P,J4,3,Pin_3*%
%TO.N,SWD*%
X203040000Y-124000000D03*
%TD*%
D17*
%TO.P,R3,1*%
%TO.N,USB_D+*%
X201500000Y-84990000D03*
%TO.P,R3,2*%
%TO.N,Net-(U1-USB_DP)*%
X201500000Y-86010000D03*
%TD*%
D26*
%TO.P,C12,1*%
%TO.N,Net-(U2-VI)*%
X195500000Y-84225000D03*
%TO.P,C12,2*%
%TO.N,GND*%
X195500000Y-85775000D03*
%TD*%
D18*
%TO.P,C11,1*%
%TO.N,+1V1*%
X203344207Y-90189221D03*
%TO.P,C11,2*%
%TO.N,GND*%
X203344207Y-89229221D03*
%TD*%
D14*
%TO.P,C2,1*%
%TO.N,+3V3*%
X195480000Y-99000000D03*
%TO.P,C2,2*%
%TO.N,GND*%
X194520000Y-99000000D03*
%TD*%
D27*
%TO.P,J1,A1,GND*%
%TO.N,GND*%
X203750000Y-81500000D03*
%TO.P,J1,A4,VBUS*%
%TO.N,Net-(U2-VI)*%
X202950000Y-81500000D03*
D28*
%TO.P,J1,A5,CC1*%
%TO.N,Net-(J1-CC1)*%
X201750000Y-81500000D03*
%TO.P,J1,A6,D+*%
%TO.N,USB_D+*%
X200750000Y-81500000D03*
%TO.P,J1,A7,D-*%
%TO.N,USB_D-*%
X200250000Y-81500000D03*
%TO.P,J1,A8*%
%TO.N,N/C*%
X199250000Y-81500000D03*
D27*
%TO.P,J1,A9,VBUS*%
%TO.N,Net-(U2-VI)*%
X198050000Y-81500000D03*
%TO.P,J1,A12,GND*%
%TO.N,GND*%
X197250000Y-81500000D03*
%TO.P,J1,B1,GND*%
X197250000Y-81500000D03*
%TO.P,J1,B4,VBUS*%
%TO.N,Net-(U2-VI)*%
X198050000Y-81500000D03*
D28*
%TO.P,J1,B5,CC2*%
%TO.N,Net-(J1-CC2)*%
X198750000Y-81500000D03*
%TO.P,J1,B6,D+*%
%TO.N,USB_D+*%
X199750000Y-81500000D03*
%TO.P,J1,B7,D-*%
%TO.N,USB_D-*%
X201250000Y-81500000D03*
%TO.P,J1,B8*%
%TO.N,N/C*%
X202250000Y-81500000D03*
D27*
%TO.P,J1,B9,VBUS*%
%TO.N,Net-(U2-VI)*%
X202950000Y-81500000D03*
%TO.P,J1,B12,GND*%
%TO.N,GND*%
X203750000Y-81500000D03*
D29*
%TO.P,J1,S1,SHIELD*%
X204820000Y-80585000D03*
D30*
X204820000Y-76405000D03*
D29*
X196180000Y-80585000D03*
D30*
X196180000Y-76405000D03*
%TD*%
D31*
%TO.P,C13,1*%
%TO.N,+3V3*%
X198275000Y-88000000D03*
%TO.P,C13,2*%
%TO.N,GND*%
X196725000Y-88000000D03*
%TD*%
D17*
%TO.P,R2,1*%
%TO.N,Net-(J1-CC2)*%
X200500000Y-84990000D03*
%TO.P,R2,2*%
%TO.N,GND*%
X200500000Y-86010000D03*
%TD*%
%TO.P,R1,1*%
%TO.N,Net-(J1-CC1)*%
X203000000Y-86980000D03*
%TO.P,R1,2*%
%TO.N,GND*%
X203000000Y-88000000D03*
%TD*%
D32*
%TO.N,GND*%
X194500000Y-76000000D03*
X197250000Y-93250000D03*
X195500000Y-123500000D03*
X208000000Y-110500000D03*
X204339411Y-105339411D03*
X194520000Y-99000000D03*
X201062500Y-98200000D03*
X206250000Y-90250000D03*
X201500000Y-107200000D03*
X204000000Y-92020000D03*
X203344207Y-89229221D03*
%TO.N,+3V3*%
X201620488Y-95537176D03*
X199000000Y-100000000D03*
X198950000Y-87000000D03*
X203500000Y-96000000D03*
X203500000Y-99000000D03*
X200000000Y-96000000D03*
%TO.N,+1V1*%
X204660589Y-104160589D03*
X206801000Y-89199000D03*
%TO.N,GPIO1*%
X195000000Y-95500000D03*
%TO.N,GPIO5*%
X198500000Y-98000000D03*
X193000000Y-97000000D03*
%TO.N,GPIO0*%
X194500000Y-94000000D03*
%TO.N,GPIO2*%
X198750000Y-96750000D03*
%TO.N,GPIO21*%
X207000000Y-101500000D03*
%TO.N,RUN*%
X203456511Y-100543489D03*
%TO.N,SWCLK*%
X202082078Y-100742488D03*
%TO.N,QSPI_SS*%
X198000000Y-90000000D03*
X203510000Y-91010000D03*
%TD*%
D33*
%TO.N,GND*%
X210399000Y-106101000D02*
X210399000Y-106000000D01*
X209708415Y-106791585D02*
X210399000Y-106101000D01*
X209514082Y-106791585D02*
X209708415Y-106791585D01*
X196500000Y-92500000D02*
X197250000Y-93250000D01*
X195650000Y-92500000D02*
X196500000Y-92500000D01*
X203750000Y-81500000D02*
X203905000Y-81500000D01*
X203905000Y-81500000D02*
X204820000Y-80585000D01*
X201062500Y-98200000D02*
X202500000Y-96762500D01*
X205839411Y-92160589D02*
X206500000Y-91500000D01*
X199520000Y-103980000D02*
X199520000Y-104000000D01*
X197250000Y-81500000D02*
X197095000Y-81500000D01*
X200062500Y-101637500D02*
X200062500Y-103437500D01*
X197050000Y-85875000D02*
X197050000Y-86450000D01*
X200500000Y-89520000D02*
X200553986Y-89520000D01*
X204839411Y-104839411D02*
X204339411Y-105339411D01*
X200500000Y-89020000D02*
X199500000Y-88020000D01*
X203750000Y-81500000D02*
X203750000Y-82150000D01*
X200553986Y-89520000D02*
X201410430Y-90376444D01*
X201062500Y-98200000D02*
X200062500Y-99200000D01*
X199280000Y-105520000D02*
X199300000Y-105500000D01*
X199520000Y-104000000D02*
X199520000Y-105280000D01*
X199800000Y-105500000D02*
X201500000Y-107200000D01*
X197504468Y-85875000D02*
X197050000Y-85875000D01*
X195500000Y-85775000D02*
X196950000Y-85775000D01*
X203344207Y-89229221D02*
X203344207Y-88344207D01*
X200500000Y-86010000D02*
X200495000Y-86015000D01*
X197050000Y-81700000D02*
X197250000Y-81500000D01*
X206500000Y-91500000D02*
X206500000Y-90500000D01*
X204140589Y-92160589D02*
X204000000Y-92020000D01*
X206500000Y-90500000D02*
X206250000Y-90250000D01*
X200500000Y-86010000D02*
X199326500Y-84836500D01*
X200495000Y-86015000D02*
X200495000Y-86995000D01*
X198542968Y-84836500D02*
X197504468Y-85875000D01*
X203344207Y-88344207D02*
X203000000Y-88000000D01*
X205339411Y-104839411D02*
X204839411Y-104839411D01*
X199326500Y-84836500D02*
X198542968Y-84836500D01*
X199520000Y-105280000D02*
X199300000Y-105500000D01*
X205500000Y-85500000D02*
X205500000Y-83900000D01*
X197050000Y-86450000D02*
X196725000Y-86775000D01*
X200062500Y-103437500D02*
X199520000Y-103980000D01*
X199300000Y-105500000D02*
X199800000Y-105500000D01*
X197500000Y-105520000D02*
X199280000Y-105520000D01*
X203000000Y-88000000D02*
X205500000Y-85500000D01*
X205839411Y-92160589D02*
X204140589Y-92160589D01*
X200062500Y-99200000D02*
X200062500Y-101637500D01*
X200500000Y-89520000D02*
X200500000Y-89020000D01*
X196950000Y-85775000D02*
X197050000Y-85875000D01*
X196725000Y-86775000D02*
X196725000Y-88000000D01*
%TO.N,+3V3*%
X203662500Y-94762500D02*
X203262500Y-94762500D01*
X201662500Y-94762500D02*
X201662500Y-95495164D01*
X201410430Y-91747930D02*
X201662500Y-92000000D01*
X203500000Y-93480000D02*
X203500000Y-93500000D01*
X198200000Y-99200000D02*
X199000000Y-100000000D01*
X201410430Y-91336444D02*
X201410430Y-91747930D01*
X201662500Y-94762500D02*
X201662500Y-92000000D01*
X198450000Y-88000000D02*
X198950000Y-87500000D01*
X199600000Y-95600000D02*
X200000000Y-96000000D01*
X203500000Y-93500000D02*
X203262500Y-93737500D01*
X203262500Y-93737500D02*
X203262500Y-94762500D01*
X198950000Y-87000000D02*
X198950000Y-87500000D01*
X201680400Y-100142489D02*
X202922011Y-100142489D01*
X200500000Y-91500000D02*
X201262500Y-92262500D01*
X205160589Y-93264411D02*
X205160589Y-92839411D01*
X196632900Y-99200000D02*
X196432900Y-99000000D01*
X203294789Y-104660589D02*
X203660589Y-104660589D01*
X203700000Y-99200000D02*
X203500000Y-99000000D01*
X196360624Y-94860624D02*
X196885624Y-94860624D01*
X204500000Y-95600000D02*
X203900000Y-95600000D01*
X196432900Y-99000000D02*
X195480000Y-99000000D01*
X203700000Y-99200000D02*
X204500000Y-99200000D01*
X197625000Y-95600000D02*
X199600000Y-95600000D01*
X204000000Y-92980000D02*
X203500000Y-93480000D01*
X203500000Y-96000000D02*
X203500000Y-99000000D01*
X201262500Y-101637500D02*
X201262500Y-100560389D01*
X198500000Y-91000000D02*
X199201300Y-91000000D01*
X198950000Y-87500000D02*
X198950000Y-90748700D01*
X203662500Y-94762500D02*
X203662500Y-94337500D01*
X197625000Y-99200000D02*
X196632900Y-99200000D01*
X203662500Y-95837500D02*
X203500000Y-96000000D01*
X203662500Y-94762500D02*
X205160589Y-93264411D01*
X203662500Y-94762500D02*
X203662500Y-95837500D01*
X198950000Y-90748700D02*
X199201300Y-91000000D01*
X201262500Y-100560389D02*
X201680400Y-100142489D01*
X201262500Y-101637500D02*
X201262500Y-102628300D01*
X201262500Y-94762500D02*
X201662500Y-94762500D01*
X197625000Y-99200000D02*
X198200000Y-99200000D01*
X196885624Y-94860624D02*
X197625000Y-95600000D01*
X203900000Y-95600000D02*
X203500000Y-96000000D01*
X200500000Y-90480000D02*
X200500000Y-91500000D01*
X201262500Y-102628300D02*
X203294789Y-104660589D01*
X202922011Y-100142489D02*
X203500000Y-99564500D01*
X203500000Y-99564500D02*
X203500000Y-99000000D01*
X198275000Y-88000000D02*
X198450000Y-88000000D01*
X201262500Y-92262500D02*
X201262500Y-94762500D01*
X198950000Y-85875000D02*
X198950000Y-87000000D01*
X201662500Y-95495164D02*
X201620488Y-95537176D01*
%TO.N,+1V1*%
X200862500Y-92429600D02*
X199602300Y-91169400D01*
X204462600Y-103962600D02*
X203163900Y-103962600D01*
X206801000Y-87686936D02*
X206513064Y-87399000D01*
X201371545Y-96138176D02*
X200862500Y-95629131D01*
X202361824Y-96138176D02*
X201371545Y-96138176D01*
X200862500Y-95629131D02*
X200862500Y-94762500D01*
X203955207Y-89578221D02*
X203344207Y-90189221D01*
X199602300Y-91169400D02*
X199602300Y-89082300D01*
X202862500Y-90670928D02*
X203344207Y-90189221D01*
X206513064Y-87399000D02*
X204486936Y-87399000D01*
X203955207Y-87930729D02*
X203955207Y-89578221D01*
X203163900Y-103962600D02*
X201662500Y-102461200D01*
X204660589Y-104160589D02*
X204462600Y-103962600D01*
X206801000Y-89199000D02*
X206801000Y-87686936D01*
X204486936Y-87399000D02*
X203955207Y-87930729D01*
X199602300Y-89082300D02*
X199500000Y-88980000D01*
X202862500Y-95637500D02*
X202361824Y-96138176D01*
X201662500Y-102461200D02*
X201662500Y-101637500D01*
X200862500Y-94762500D02*
X200862500Y-92429600D01*
X202862500Y-94762500D02*
X202862500Y-90670928D01*
X202862500Y-94762500D02*
X202862500Y-95637500D01*
%TO.N,Net-(U2-VI)*%
X198500000Y-78000000D02*
X202000000Y-78000000D01*
X198050000Y-81500000D02*
X198286000Y-81264000D01*
X202950000Y-80571008D02*
X202950000Y-81500000D01*
X198050000Y-81500000D02*
X198050000Y-83950000D01*
X202500000Y-80121008D02*
X202950000Y-80571008D01*
X197775000Y-84225000D02*
X198000000Y-84000000D01*
X202000000Y-78000000D02*
X202500000Y-78500000D01*
X198050000Y-83950000D02*
X198000000Y-84000000D01*
X195500000Y-84225000D02*
X197775000Y-84225000D01*
X198286000Y-78214000D02*
X198500000Y-78000000D01*
X202500000Y-78500000D02*
X202500000Y-80121008D01*
X198286000Y-81264000D02*
X198286000Y-78214000D01*
%TO.N,XIN*%
X200480000Y-104000000D02*
X200480000Y-104480000D01*
X200462500Y-102962500D02*
X200480000Y-102980000D01*
X200480000Y-102980000D02*
X200480000Y-104000000D01*
X200462500Y-101637500D02*
X200462500Y-102962500D01*
X200480000Y-104480000D02*
X201500000Y-105500000D01*
%TO.N,Net-(C15-Pad1)*%
X202409000Y-108101000D02*
X200201000Y-108101000D01*
X200201000Y-108101000D02*
X199300000Y-107200000D01*
X198580000Y-106480000D02*
X199300000Y-107200000D01*
X203000000Y-107510000D02*
X202409000Y-108101000D01*
X197500000Y-106480000D02*
X198580000Y-106480000D01*
%TO.N,USB_D+*%
X200750000Y-80250000D02*
X200750000Y-81500000D01*
X201500000Y-84500000D02*
X201500000Y-84990000D01*
X199750000Y-81500000D02*
X199750000Y-79750000D01*
X199750000Y-82750000D02*
X201500000Y-84500000D01*
X200500000Y-79500000D02*
X201000000Y-80000000D01*
X199750000Y-81500000D02*
X199750000Y-82750000D01*
X199750000Y-79750000D02*
X200000000Y-79500000D01*
X200000000Y-79500000D02*
X200500000Y-79500000D01*
X201000000Y-80000000D02*
X200750000Y-80250000D01*
%TO.N,Net-(J1-CC1)*%
X201750000Y-82409900D02*
X203121000Y-83780900D01*
X203121000Y-83780900D02*
X203121000Y-86859000D01*
X203121000Y-86859000D02*
X203000000Y-86980000D01*
X201750000Y-81500000D02*
X201750000Y-82409900D01*
%TO.N,Net-(J1-CC2)*%
X200500000Y-84990000D02*
X198750000Y-83240000D01*
X198750000Y-83240000D02*
X198750000Y-81500000D01*
%TO.N,USB_D-*%
X202500000Y-85000000D02*
X202500000Y-83727000D01*
X201299000Y-82526000D02*
X200299000Y-82526000D01*
X200250000Y-82477000D02*
X200250000Y-81500000D01*
X201250000Y-81500000D02*
X201299000Y-81549000D01*
X201299000Y-81549000D02*
X201299000Y-82526000D01*
X202500000Y-83727000D02*
X201299000Y-82526000D01*
X200299000Y-82526000D02*
X200250000Y-82477000D01*
%TO.N,GPIO3*%
X191514341Y-86501325D02*
X193802000Y-88788984D01*
X197075726Y-97186000D02*
X197089726Y-97200000D01*
X193802000Y-88788984D02*
X193802000Y-96219550D01*
X197089726Y-97200000D02*
X197625000Y-97200000D01*
X194686000Y-97186000D02*
X197075726Y-97186000D01*
X194643450Y-97061000D02*
X194643450Y-97143450D01*
X193802000Y-96219550D02*
X194643450Y-97061000D01*
X194643450Y-97143450D02*
X194686000Y-97186000D01*
%TO.N,GPIO4*%
X193601000Y-97188000D02*
X193601000Y-96700000D01*
X194000000Y-97587000D02*
X193601000Y-97188000D01*
X197625000Y-97600000D02*
X196856826Y-97600000D01*
X193601000Y-96700000D02*
X193401000Y-96500000D01*
X196856826Y-97600000D02*
X196843826Y-97587000D01*
X196843826Y-97587000D02*
X194000000Y-97587000D01*
X193401000Y-90927984D02*
X191514341Y-89041325D01*
X193401000Y-96500000D02*
X193401000Y-90927984D01*
%TO.N,GPIO8*%
X196589000Y-99611000D02*
X193644666Y-99611000D01*
X196600000Y-99600000D02*
X196589000Y-99611000D01*
X197625000Y-99600000D02*
X196600000Y-99600000D01*
X193644666Y-99611000D02*
X191514341Y-101741325D01*
%TO.N,GPIO10*%
X194500000Y-102923426D02*
X194500000Y-106375666D01*
X197625000Y-100400000D02*
X197023426Y-100400000D01*
X194500000Y-106375666D02*
X191514341Y-109361325D01*
X197023426Y-100400000D02*
X194500000Y-102923426D01*
%TO.N,GPIO6*%
X191514341Y-96661325D02*
X192841016Y-97988000D01*
X196677726Y-97988000D02*
X197089726Y-98400000D01*
X192841016Y-97988000D02*
X196677726Y-97988000D01*
X197089726Y-98400000D02*
X197625000Y-98400000D01*
%TO.N,GPIO14*%
X196488000Y-104944900D02*
X196488000Y-117087666D01*
X199262500Y-101637500D02*
X199262500Y-102737500D01*
X199262500Y-102737500D02*
X199000000Y-103000000D01*
X199000000Y-103000000D02*
X198432900Y-103000000D01*
X196488000Y-117087666D02*
X191514341Y-122061325D01*
X198432900Y-103000000D02*
X196488000Y-104944900D01*
%TO.N,GPIO1*%
X195500000Y-96000000D02*
X195000000Y-95500000D01*
X197625000Y-96400000D02*
X195900000Y-96400000D01*
X195900000Y-96400000D02*
X195500000Y-96000000D01*
%TO.N,GPIO5*%
X193000000Y-95000000D02*
X193000000Y-97000000D01*
X191514341Y-91581325D02*
X193000000Y-93066984D01*
X197625000Y-98000000D02*
X198500000Y-98000000D01*
X193000000Y-93066984D02*
X193000000Y-95000000D01*
%TO.N,GPIO7*%
X196389000Y-98389000D02*
X192326666Y-98389000D01*
X197625000Y-98800000D02*
X196800000Y-98800000D01*
X192326666Y-98389000D02*
X191514341Y-99201325D01*
X196800000Y-98800000D02*
X196389000Y-98389000D01*
%TO.N,GPIO13*%
X191514341Y-116981325D02*
X196087000Y-112408666D01*
X198365800Y-102500000D02*
X198725000Y-102500000D01*
X196087000Y-112408666D02*
X196087000Y-104778800D01*
X196087000Y-104778800D02*
X198365800Y-102500000D01*
X198862500Y-102362500D02*
X198862500Y-101637500D01*
X198725000Y-102500000D02*
X198862500Y-102362500D01*
%TO.N,GPIO9*%
X196856326Y-100000000D02*
X196844326Y-100012000D01*
X197625000Y-100000000D02*
X196856326Y-100000000D01*
X195783666Y-100012000D02*
X196844326Y-100012000D01*
X191514341Y-104281325D02*
X195783666Y-100012000D01*
%TO.N,GPIO0*%
X196500000Y-96000000D02*
X195000000Y-94500000D01*
X197625000Y-96000000D02*
X196500000Y-96000000D01*
X195000000Y-94500000D02*
X194500000Y-94000000D01*
%TO.N,GPIO12*%
X195401000Y-108599000D02*
X193000000Y-111000000D01*
X195401000Y-103599000D02*
X195401000Y-108599000D01*
X197362500Y-101637500D02*
X195401000Y-103599000D01*
X193000000Y-112955666D02*
X191514341Y-114441325D01*
X198462500Y-101637500D02*
X197362500Y-101637500D01*
X193000000Y-111000000D02*
X193000000Y-112955666D01*
%TO.N,GPIO2*%
X198700000Y-96800000D02*
X198750000Y-96750000D01*
X197625000Y-96800000D02*
X198700000Y-96800000D01*
%TO.N,GPIO11*%
X191514341Y-111901325D02*
X195000000Y-108415666D01*
X195000000Y-108415666D02*
X195000000Y-103425000D01*
X195000000Y-103425000D02*
X197625000Y-100800000D01*
%TO.N,GPIO15*%
X196889000Y-105111000D02*
X196889000Y-119226666D01*
X199662500Y-103226500D02*
X199500000Y-103389000D01*
X199500000Y-103389000D02*
X199111000Y-103389000D01*
X196889000Y-119226666D02*
X191514341Y-124601325D01*
X198000000Y-104000000D02*
X196889000Y-105111000D01*
X199111000Y-103389000D02*
X198500000Y-104000000D01*
X198500000Y-104000000D02*
X198000000Y-104000000D01*
X199662500Y-101637500D02*
X199662500Y-103226500D01*
%TO.N,GPIO17*%
X203901000Y-110000000D02*
X204500000Y-109401000D01*
X204500000Y-109401000D02*
X204500000Y-108000000D01*
X209514082Y-122031585D02*
X203901000Y-116418503D01*
X206804358Y-105695642D02*
X206804358Y-104306072D01*
X206804358Y-104306072D02*
X204135786Y-101637500D01*
X204500000Y-108000000D02*
X206804358Y-105695642D01*
X204135786Y-101637500D02*
X203662500Y-101637500D01*
X203901000Y-116418503D02*
X203901000Y-110000000D01*
%TO.N,GPIO23*%
X204500000Y-98400000D02*
X206400000Y-98400000D01*
X207171585Y-99171585D02*
X209514082Y-99171585D01*
X206400000Y-98400000D02*
X207171585Y-99171585D01*
%TO.N,GPIO27_ADC1*%
X207500000Y-95875000D02*
X207500000Y-92998567D01*
X204500000Y-96800000D02*
X206575000Y-96800000D01*
X206575000Y-96800000D02*
X207500000Y-95875000D01*
X207833900Y-92664667D02*
X207833900Y-90691767D01*
X207833900Y-90691767D02*
X209514082Y-89011585D01*
X207500000Y-92998567D02*
X207833900Y-92664667D01*
%TO.N,GPIO28_ADC2*%
X207432900Y-92498567D02*
X207432900Y-90525667D01*
X207099000Y-95401000D02*
X207099000Y-92832467D01*
X207432900Y-90525667D02*
X208229284Y-89729283D01*
X208229284Y-85216383D02*
X209514082Y-83931585D01*
X207099000Y-92832467D02*
X207432900Y-92498567D01*
X208229284Y-89729283D02*
X208229284Y-85216383D01*
X206100000Y-96400000D02*
X207099000Y-95401000D01*
X204500000Y-96400000D02*
X206100000Y-96400000D01*
%TO.N,GPIO29_ADC3*%
X207828284Y-80537383D02*
X209514082Y-78851585D01*
X206500000Y-92864367D02*
X207031900Y-92332467D01*
X207031900Y-92332467D02*
X207031900Y-90296384D01*
X207031900Y-90296384D02*
X207828284Y-89500000D01*
X207828284Y-89500000D02*
X207828284Y-80537383D01*
X206500000Y-95000000D02*
X206500000Y-92864367D01*
X205500000Y-96000000D02*
X206500000Y-95000000D01*
X204500000Y-96000000D02*
X205500000Y-96000000D01*
%TO.N,GPIO26_ADC0*%
X204500000Y-97200000D02*
X206800000Y-97200000D01*
X206800000Y-97200000D02*
X208000000Y-96000000D01*
X208000000Y-96000000D02*
X208000000Y-93065667D01*
X208000000Y-93065667D02*
X209514082Y-91551585D01*
%TO.N,GPIO21*%
X206500000Y-101000000D02*
X207000000Y-101500000D01*
X204500000Y-99600000D02*
X206100000Y-99600000D01*
X206100000Y-99600000D02*
X206500000Y-100000000D01*
X206500000Y-100000000D02*
X206500000Y-101000000D01*
%TO.N,GPIO16*%
X203500000Y-109559000D02*
X203500000Y-118557503D01*
X204022000Y-108919000D02*
X203441000Y-109500000D01*
X203500000Y-118557503D02*
X209514082Y-124571585D01*
X203441000Y-109500000D02*
X203500000Y-109559000D01*
X206403358Y-105164222D02*
X204067580Y-107500000D01*
X203262500Y-101637500D02*
X203262500Y-102262500D01*
X204022000Y-107500000D02*
X204022000Y-108919000D01*
X204067580Y-107500000D02*
X204022000Y-107500000D01*
X204000000Y-103000000D02*
X204931186Y-103000000D01*
X204931186Y-103000000D02*
X206403358Y-104472172D01*
X203262500Y-102262500D02*
X204000000Y-103000000D01*
X206403358Y-104472172D02*
X206403358Y-105164222D01*
%TO.N,RUN*%
X202862500Y-101637500D02*
X202862500Y-100680989D01*
X202862500Y-100680989D02*
X203000000Y-100543489D01*
X203000000Y-100543489D02*
X203456511Y-100543489D01*
%TO.N,GPIO20*%
X208007358Y-103507358D02*
X208007358Y-106193942D01*
X205901000Y-110231403D02*
X207584799Y-111915202D01*
X204500000Y-100000000D02*
X205500000Y-100000000D01*
X205901000Y-108300300D02*
X205901000Y-110231403D01*
X208007358Y-106193942D02*
X205901000Y-108300300D01*
X206000000Y-101500000D02*
X208007358Y-103507358D01*
X207584799Y-111915202D02*
X207628416Y-111871585D01*
X206000000Y-100500000D02*
X206000000Y-101500000D01*
X205500000Y-100000000D02*
X206000000Y-100500000D01*
X207628416Y-111871585D02*
X209514082Y-111871585D01*
%TO.N,GPIO22*%
X207000000Y-100000000D02*
X207601000Y-100601000D01*
X205867100Y-98800000D02*
X207000000Y-99932900D01*
X207601000Y-100601000D02*
X207601000Y-102338503D01*
X207601000Y-102338503D02*
X209514082Y-104251585D01*
X204500000Y-98800000D02*
X205867100Y-98800000D01*
X207000000Y-99932900D02*
X207000000Y-100000000D01*
%TO.N,GPIO24*%
X208145667Y-98000000D02*
X209514082Y-96631585D01*
X204500000Y-98000000D02*
X208145667Y-98000000D01*
%TO.N,GPIO19*%
X205500000Y-108134200D02*
X205500000Y-110397503D01*
X207606358Y-106027842D02*
X205500000Y-108134200D01*
X205500000Y-101867514D02*
X207606358Y-103973872D01*
X205500000Y-100600000D02*
X205500000Y-101867514D01*
X205500000Y-110397503D02*
X209514082Y-114411585D01*
X207606358Y-103973872D02*
X207606358Y-106027842D01*
X205300000Y-100400000D02*
X205500000Y-100600000D01*
X204500000Y-100400000D02*
X205300000Y-100400000D01*
%TO.N,GPIO18*%
X207205358Y-105861742D02*
X205033550Y-108033550D01*
X204500000Y-100800000D02*
X204500000Y-101434614D01*
X204500000Y-101434614D02*
X207205358Y-104139972D01*
X205033550Y-108033550D02*
X205033550Y-112471053D01*
X205033550Y-112471053D02*
X209514082Y-116951585D01*
X207205358Y-104139972D02*
X207205358Y-105861742D01*
%TO.N,SWD*%
X203268400Y-103500000D02*
X203500000Y-103500000D01*
X204002358Y-106002358D02*
X204000000Y-106000000D01*
X206002358Y-104638272D02*
X206002358Y-104998122D01*
X203621000Y-107829340D02*
X203040000Y-108410340D01*
X203502358Y-103497642D02*
X204861728Y-103497642D01*
X204861728Y-103497642D02*
X206002358Y-104638272D01*
X203500000Y-103500000D02*
X203502358Y-103497642D01*
X203621000Y-106379000D02*
X203621000Y-107829340D01*
X203040000Y-108410340D02*
X203040000Y-124000000D01*
X204998122Y-106002358D02*
X204002358Y-106002358D01*
X202462500Y-102694100D02*
X203268400Y-103500000D01*
X206002358Y-104998122D02*
X204998122Y-106002358D01*
X202462500Y-101637500D02*
X202462500Y-102694100D01*
X204000000Y-106000000D02*
X203621000Y-106379000D01*
%TO.N,SWCLK*%
X202082078Y-100742488D02*
X202062500Y-100762066D01*
X202062500Y-100762066D02*
X202062500Y-101637500D01*
%TO.N,Net-(U1-USB_DP)*%
X201500000Y-86010000D02*
X201500000Y-89500000D01*
X201500000Y-89500000D02*
X202062500Y-90062500D01*
X202062500Y-90062500D02*
X202062500Y-94762500D01*
%TO.N,Net-(U1-USB_DM)*%
X202379000Y-88319340D02*
X202379000Y-86141000D01*
X202379000Y-86141000D02*
X202500000Y-86020000D01*
X202462500Y-88402840D02*
X202379000Y-88319340D01*
X202462500Y-94762500D02*
X202462500Y-88402840D01*
%TO.N,XOUT*%
X200862500Y-102795400D02*
X200862500Y-101637500D01*
X203000000Y-104932900D02*
X203000000Y-106490000D01*
X203000000Y-104932900D02*
X200862500Y-102795400D01*
%TO.N,QSPI_SS*%
X196575000Y-90075000D02*
X196650000Y-90000000D01*
X204990000Y-91010000D02*
X203510000Y-91010000D01*
X195419102Y-93802000D02*
X194498000Y-92880898D01*
X194498000Y-91619102D02*
X195117102Y-91000000D01*
X195650000Y-91000000D02*
X196575000Y-90075000D01*
X197051724Y-94459624D02*
X196959624Y-94459624D01*
X194498000Y-92880898D02*
X194498000Y-91619102D01*
X196302000Y-93802000D02*
X195419102Y-93802000D01*
X196959624Y-94459624D02*
X196302000Y-93802000D01*
X198200000Y-94500000D02*
X197092100Y-94500000D01*
X198462500Y-94762500D02*
X198200000Y-94500000D01*
X195639376Y-94139376D02*
X195419102Y-93919102D01*
X195117102Y-91000000D02*
X195650000Y-91000000D01*
X196650000Y-90000000D02*
X198000000Y-90000000D01*
X195419102Y-93919102D02*
X195419102Y-93802000D01*
X197092100Y-94500000D02*
X197051724Y-94459624D01*
%TO.N,Net-(R7-Pad1)*%
X204990000Y-88610000D02*
X205500000Y-88100000D01*
X204990000Y-89990000D02*
X204990000Y-88610000D01*
%TO.N,QSPI_SD1*%
X195184202Y-91500000D02*
X194899000Y-91785202D01*
X198815450Y-94000000D02*
X198862500Y-94047050D01*
X195650000Y-91500000D02*
X195184202Y-91500000D01*
X194899000Y-91785202D02*
X194899000Y-92714798D01*
X196468100Y-93401000D02*
X197067100Y-94000000D01*
X198862500Y-94047050D02*
X198862500Y-94762500D01*
X194899000Y-92714798D02*
X195585202Y-93401000D01*
X197067100Y-94000000D02*
X198815450Y-94000000D01*
X195585202Y-93401000D02*
X196468100Y-93401000D01*
%TO.N,QSPI_SD3*%
X200462500Y-92828300D02*
X200462500Y-94762500D01*
X198500000Y-91500000D02*
X199134200Y-91500000D01*
X199134200Y-91500000D02*
X200462500Y-92828300D01*
%TO.N,QSPI_SD0*%
X199000000Y-92500000D02*
X199662500Y-93162500D01*
X199662500Y-93162500D02*
X199662500Y-94762500D01*
X198500000Y-92500000D02*
X199000000Y-92500000D01*
%TO.N,QSPI_SCLK*%
X200062500Y-92995400D02*
X200062500Y-94762500D01*
X199067100Y-92000000D02*
X200062500Y-92995400D01*
X198500000Y-92000000D02*
X199067100Y-92000000D01*
%TO.N,QSPI_SD2*%
X196674000Y-90826000D02*
X197000000Y-90500000D01*
X197749000Y-90922000D02*
X197749000Y-92714798D01*
X198034202Y-93000000D02*
X198932900Y-93000000D01*
X195650000Y-92000000D02*
X196289798Y-92000000D01*
X199262500Y-93329600D02*
X199262500Y-94762500D01*
X197327000Y-90500000D02*
X197749000Y-90922000D01*
X197000000Y-90500000D02*
X197327000Y-90500000D01*
X196674000Y-91615798D02*
X196674000Y-90826000D01*
X196289798Y-92000000D02*
X196674000Y-91615798D01*
X198932900Y-93000000D02*
X199262500Y-93329600D01*
X197749000Y-92714798D02*
X198034202Y-93000000D01*
%TO.N,GND*%
X197250000Y-93250000D02*
X197500000Y-93500000D01*
%TD*%
%TA.AperFunction,Conductor*%
%TO.N,GND*%
G36*
X198242539Y-106900185D02*
G01*
X198288294Y-106952989D01*
X198299500Y-107004500D01*
X198299500Y-107593102D01*
X198303896Y-107629710D01*
X198310122Y-107681561D01*
X198310122Y-107681563D01*
X198310123Y-107681564D01*
X198327722Y-107726192D01*
X198365639Y-107822343D01*
X198457077Y-107942922D01*
X198577656Y-108034360D01*
X198577657Y-108034360D01*
X198577658Y-108034361D01*
X198718436Y-108089877D01*
X198806898Y-108100500D01*
X199582745Y-108100500D01*
X199649784Y-108120185D01*
X199670426Y-108136819D01*
X199880519Y-108346912D01*
X199880520Y-108346913D01*
X199955087Y-108421480D01*
X200046413Y-108474207D01*
X200148273Y-108501500D01*
X200148275Y-108501500D01*
X202461725Y-108501500D01*
X202461727Y-108501500D01*
X202483406Y-108495691D01*
X202553255Y-108497352D01*
X202611118Y-108536514D01*
X202638623Y-108600742D01*
X202639500Y-108615465D01*
X202639500Y-122836840D01*
X202619815Y-122903879D01*
X202571795Y-122947325D01*
X202437002Y-123016006D01*
X202290505Y-123122441D01*
X202290500Y-123122445D01*
X202162445Y-123250500D01*
X202162441Y-123250505D01*
X202056006Y-123397002D01*
X201973788Y-123558360D01*
X201973787Y-123558363D01*
X201917829Y-123730589D01*
X201892219Y-123892280D01*
X201862289Y-123955414D01*
X201802978Y-123992345D01*
X201733115Y-123991347D01*
X201674883Y-123952737D01*
X201647273Y-123892279D01*
X201621682Y-123730706D01*
X201565748Y-123558555D01*
X201565747Y-123558552D01*
X201483571Y-123397275D01*
X201483566Y-123397267D01*
X201472085Y-123381466D01*
X200982962Y-123870589D01*
X200965925Y-123807007D01*
X200900099Y-123692993D01*
X200807007Y-123599901D01*
X200692993Y-123534075D01*
X200629409Y-123517037D01*
X201118533Y-123027913D01*
X201102730Y-123016431D01*
X200941447Y-122934252D01*
X200941444Y-122934251D01*
X200769293Y-122878317D01*
X200590506Y-122850000D01*
X200409494Y-122850000D01*
X200230706Y-122878317D01*
X200058555Y-122934251D01*
X200058547Y-122934254D01*
X199897269Y-123016432D01*
X199881466Y-123027912D01*
X199881466Y-123027913D01*
X200370591Y-123517037D01*
X200307007Y-123534075D01*
X200192993Y-123599901D01*
X200099901Y-123692993D01*
X200034075Y-123807007D01*
X200017037Y-123870590D01*
X199527912Y-123381466D01*
X199516432Y-123397269D01*
X199434254Y-123558547D01*
X199434251Y-123558555D01*
X199378317Y-123730706D01*
X199356972Y-123865471D01*
X199327043Y-123928606D01*
X199267731Y-123965537D01*
X199197868Y-123964539D01*
X199139636Y-123925929D01*
X199111522Y-123861965D01*
X199110499Y-123846073D01*
X199110499Y-123105143D01*
X199110499Y-123105136D01*
X199107585Y-123080009D01*
X199062206Y-122977235D01*
X198982765Y-122897794D01*
X198923482Y-122871618D01*
X198879992Y-122852415D01*
X198854865Y-122849500D01*
X197065143Y-122849500D01*
X197065117Y-122849502D01*
X197040012Y-122852413D01*
X197040008Y-122852415D01*
X196937235Y-122897793D01*
X196857794Y-122977234D01*
X196812415Y-123080006D01*
X196812415Y-123080008D01*
X196809500Y-123105131D01*
X196809500Y-124894856D01*
X196809502Y-124894882D01*
X196812413Y-124919987D01*
X196812415Y-124919991D01*
X196857793Y-125022764D01*
X196857794Y-125022765D01*
X196937235Y-125102206D01*
X197040009Y-125147585D01*
X197065135Y-125150500D01*
X198854864Y-125150499D01*
X198854879Y-125150497D01*
X198854882Y-125150497D01*
X198879987Y-125147586D01*
X198879988Y-125147585D01*
X198879991Y-125147585D01*
X198982765Y-125102206D01*
X199062206Y-125022765D01*
X199107585Y-124919991D01*
X199110500Y-124894865D01*
X199110499Y-124153925D01*
X199130183Y-124086888D01*
X199182987Y-124041133D01*
X199252146Y-124031189D01*
X199315702Y-124060214D01*
X199353476Y-124118992D01*
X199356972Y-124134529D01*
X199378317Y-124269293D01*
X199434251Y-124441444D01*
X199434252Y-124441447D01*
X199516431Y-124602730D01*
X199527913Y-124618532D01*
X199527913Y-124618533D01*
X200017037Y-124129409D01*
X200034075Y-124192993D01*
X200099901Y-124307007D01*
X200192993Y-124400099D01*
X200307007Y-124465925D01*
X200370590Y-124482962D01*
X199881466Y-124972085D01*
X199881466Y-124972086D01*
X199897267Y-124983566D01*
X199897275Y-124983571D01*
X200058552Y-125065747D01*
X200058555Y-125065748D01*
X200230706Y-125121682D01*
X200409494Y-125150000D01*
X200590506Y-125150000D01*
X200769293Y-125121682D01*
X200941444Y-125065748D01*
X200941452Y-125065745D01*
X201102730Y-124983568D01*
X201118532Y-124972085D01*
X201118533Y-124972085D01*
X200629410Y-124482962D01*
X200692993Y-124465925D01*
X200807007Y-124400099D01*
X200900099Y-124307007D01*
X200965925Y-124192993D01*
X200982962Y-124129409D01*
X201472085Y-124618532D01*
X201483568Y-124602730D01*
X201565745Y-124441452D01*
X201565748Y-124441444D01*
X201621683Y-124269292D01*
X201647273Y-124107721D01*
X201677202Y-124044586D01*
X201736513Y-124007654D01*
X201806376Y-124008652D01*
X201864609Y-124047261D01*
X201892219Y-124107720D01*
X201917828Y-124269410D01*
X201973787Y-124441636D01*
X201973788Y-124441639D01*
X202003967Y-124500867D01*
X202055869Y-124602730D01*
X202056006Y-124602997D01*
X202162441Y-124749494D01*
X202162445Y-124749499D01*
X202290500Y-124877554D01*
X202290505Y-124877558D01*
X202418287Y-124970396D01*
X202437006Y-124983996D01*
X202513094Y-125022765D01*
X202598360Y-125066211D01*
X202598363Y-125066212D01*
X202659611Y-125086112D01*
X202770591Y-125122171D01*
X202853429Y-125135291D01*
X202949449Y-125150500D01*
X202949454Y-125150500D01*
X203130551Y-125150500D01*
X203217259Y-125136765D01*
X203309409Y-125122171D01*
X203481639Y-125066211D01*
X203642994Y-124983996D01*
X203789501Y-124877553D01*
X203917553Y-124749501D01*
X204023996Y-124602994D01*
X204106211Y-124441639D01*
X204162171Y-124269409D01*
X204177964Y-124169698D01*
X204190500Y-124090551D01*
X204190500Y-123909448D01*
X204171875Y-123791862D01*
X204162171Y-123730591D01*
X204114879Y-123585039D01*
X204106212Y-123558363D01*
X204106211Y-123558360D01*
X204060805Y-123469248D01*
X204023996Y-123397006D01*
X203995693Y-123358050D01*
X203917558Y-123250505D01*
X203917554Y-123250500D01*
X203789499Y-123122445D01*
X203789494Y-123122441D01*
X203642997Y-123016006D01*
X203642996Y-123016005D01*
X203642994Y-123016004D01*
X203508205Y-122947325D01*
X203457409Y-122899350D01*
X203440500Y-122836840D01*
X203440500Y-119363758D01*
X203460185Y-119296719D01*
X203512989Y-119250964D01*
X203582147Y-119241020D01*
X203645703Y-119270045D01*
X203652181Y-119276077D01*
X208502367Y-124126263D01*
X208535852Y-124187586D01*
X208532617Y-124252261D01*
X208505816Y-124334747D01*
X208477487Y-124513608D01*
X208477487Y-124694711D01*
X208505816Y-124873570D01*
X208561774Y-125045796D01*
X208561775Y-125045799D01*
X208643993Y-125207157D01*
X208750428Y-125353654D01*
X208750432Y-125353659D01*
X208784592Y-125387819D01*
X208818077Y-125449142D01*
X208813093Y-125518834D01*
X208771221Y-125574767D01*
X208705757Y-125599184D01*
X208696911Y-125599500D01*
X192358013Y-125599500D01*
X192290974Y-125579815D01*
X192245219Y-125527011D01*
X192235275Y-125457853D01*
X192264300Y-125394297D01*
X192270332Y-125387819D01*
X192317231Y-125340920D01*
X192423674Y-125194413D01*
X192505889Y-125033058D01*
X192561849Y-124860828D01*
X192576443Y-124768678D01*
X192590178Y-124681970D01*
X192590178Y-124500867D01*
X192561849Y-124322009D01*
X192535841Y-124241965D01*
X192533846Y-124172124D01*
X192566089Y-124115968D01*
X197124703Y-119557353D01*
X197124708Y-119557350D01*
X197134911Y-119547146D01*
X197134913Y-119547146D01*
X197209480Y-119472579D01*
X197262207Y-119381253D01*
X197289501Y-119279393D01*
X197289501Y-119173939D01*
X197289501Y-119166344D01*
X197289500Y-119166326D01*
X197289500Y-107184500D01*
X197309185Y-107117461D01*
X197361989Y-107071706D01*
X197413500Y-107060500D01*
X197723070Y-107060500D01*
X197736289Y-107059260D01*
X197752819Y-107057710D01*
X197752823Y-107057708D01*
X197752826Y-107057708D01*
X197801836Y-107040557D01*
X197878157Y-107013852D01*
X197984999Y-106934999D01*
X197988050Y-106930864D01*
X197992029Y-106927843D01*
X197994106Y-106923297D01*
X198019582Y-106906924D01*
X198043698Y-106888615D01*
X198049826Y-106887487D01*
X198052884Y-106885523D01*
X198087819Y-106880500D01*
X198175500Y-106880500D01*
X198242539Y-106900185D01*
G37*
%TD.AperFunction*%
%TA.AperFunction,Conductor*%
G36*
X190973753Y-119704412D02*
G01*
X191039579Y-119818426D01*
X191132671Y-119911518D01*
X191246685Y-119977344D01*
X191310268Y-119994381D01*
X190821144Y-120483504D01*
X190821144Y-120483505D01*
X190836945Y-120494985D01*
X190836953Y-120494990D01*
X190998230Y-120577166D01*
X190998233Y-120577167D01*
X191170384Y-120633101D01*
X191331957Y-120658692D01*
X191395091Y-120688621D01*
X191432023Y-120747932D01*
X191431025Y-120817795D01*
X191392416Y-120876028D01*
X191331958Y-120903638D01*
X191170267Y-120929248D01*
X190998041Y-120985206D01*
X190998038Y-120985207D01*
X190836680Y-121067425D01*
X190690183Y-121173860D01*
X190690178Y-121173864D01*
X190612181Y-121251862D01*
X190550858Y-121285347D01*
X190481166Y-121280363D01*
X190425233Y-121238491D01*
X190400816Y-121173027D01*
X190400500Y-121164181D01*
X190400500Y-120248406D01*
X190420185Y-120181367D01*
X190436819Y-120160725D01*
X190956715Y-119640828D01*
X190973753Y-119704412D01*
G37*
%TD.AperFunction*%
%TA.AperFunction,Conductor*%
G36*
X210563181Y-120105800D02*
G01*
X210596666Y-120167123D01*
X210599500Y-120193481D01*
X210599500Y-121109257D01*
X210579815Y-121176296D01*
X210527011Y-121222051D01*
X210457853Y-121231995D01*
X210394297Y-121202970D01*
X210387819Y-121196938D01*
X210377486Y-121186605D01*
X210377481Y-121186601D01*
X210230984Y-121080166D01*
X210230983Y-121080165D01*
X210230981Y-121080164D01*
X210162045Y-121045039D01*
X210069626Y-120997948D01*
X210069623Y-120997947D01*
X209897397Y-120941988D01*
X209735707Y-120916379D01*
X209672572Y-120886449D01*
X209635641Y-120827138D01*
X209636639Y-120757275D01*
X209675249Y-120699043D01*
X209735708Y-120671433D01*
X209897279Y-120645843D01*
X210069431Y-120589908D01*
X210069439Y-120589905D01*
X210230717Y-120507728D01*
X210246519Y-120496245D01*
X210246520Y-120496245D01*
X209757397Y-120007122D01*
X209820980Y-119990085D01*
X209934994Y-119924259D01*
X210028086Y-119831167D01*
X210093912Y-119717153D01*
X210110949Y-119653569D01*
X210563181Y-120105800D01*
G37*
%TD.AperFunction*%
%TA.AperFunction,Conductor*%
G36*
X204552384Y-110017523D02*
G01*
X204608317Y-110059395D01*
X204632734Y-110124859D01*
X204633050Y-110133705D01*
X204633050Y-112418326D01*
X204633050Y-112523780D01*
X204643065Y-112561158D01*
X204660343Y-112625642D01*
X204677824Y-112655919D01*
X204713070Y-112716966D01*
X204713072Y-112716968D01*
X208502367Y-116506263D01*
X208535852Y-116567586D01*
X208532617Y-116632261D01*
X208505816Y-116714747D01*
X208477487Y-116893608D01*
X208477487Y-117074711D01*
X208505816Y-117253570D01*
X208561774Y-117425796D01*
X208561775Y-117425799D01*
X208643993Y-117587157D01*
X208750428Y-117733654D01*
X208750432Y-117733659D01*
X208878487Y-117861714D01*
X208878492Y-117861718D01*
X208972774Y-117930217D01*
X209024993Y-117968156D01*
X209130471Y-118021900D01*
X209186347Y-118050371D01*
X209186350Y-118050372D01*
X209272463Y-118078351D01*
X209358578Y-118106331D01*
X209478025Y-118125249D01*
X209520266Y-118131940D01*
X209583401Y-118161869D01*
X209620332Y-118221181D01*
X209619334Y-118291043D01*
X209580724Y-118349276D01*
X209520266Y-118376886D01*
X209358693Y-118402477D01*
X209186542Y-118458411D01*
X209186534Y-118458414D01*
X209025256Y-118540592D01*
X209009453Y-118552072D01*
X209009453Y-118552073D01*
X209498578Y-119041197D01*
X209434994Y-119058235D01*
X209320980Y-119124061D01*
X209227888Y-119217153D01*
X209162062Y-119331167D01*
X209145024Y-119394750D01*
X208655900Y-118905626D01*
X208655899Y-118905626D01*
X208644419Y-118921429D01*
X208562241Y-119082707D01*
X208562238Y-119082715D01*
X208506304Y-119254866D01*
X208477987Y-119433653D01*
X208477987Y-119614666D01*
X208506304Y-119793453D01*
X208562238Y-119965604D01*
X208562239Y-119965607D01*
X208644418Y-120126890D01*
X208655900Y-120142692D01*
X208655900Y-120142693D01*
X209145024Y-119653569D01*
X209162062Y-119717153D01*
X209227888Y-119831167D01*
X209320980Y-119924259D01*
X209434994Y-119990085D01*
X209498577Y-120007122D01*
X209009453Y-120496245D01*
X209009453Y-120496246D01*
X209025254Y-120507726D01*
X209025262Y-120507731D01*
X209186539Y-120589907D01*
X209186542Y-120589908D01*
X209358693Y-120645842D01*
X209520266Y-120671433D01*
X209583400Y-120701362D01*
X209620332Y-120760673D01*
X209619334Y-120830536D01*
X209580725Y-120888769D01*
X209520267Y-120916379D01*
X209358576Y-120941989D01*
X209186348Y-120997948D01*
X209174199Y-121004139D01*
X209105530Y-121017035D01*
X209040790Y-120990758D01*
X209030224Y-120981335D01*
X207565351Y-119516462D01*
X206600962Y-118552073D01*
X204337819Y-116288929D01*
X204304334Y-116227606D01*
X204301500Y-116201248D01*
X204301500Y-110217255D01*
X204310144Y-110187814D01*
X204316668Y-110157828D01*
X204320422Y-110152812D01*
X204321185Y-110150216D01*
X204337819Y-110129574D01*
X204421369Y-110046024D01*
X204482692Y-110012539D01*
X204552384Y-110017523D01*
G37*
%TD.AperFunction*%
%TA.AperFunction,Conductor*%
G36*
X196006834Y-113157738D02*
G01*
X196062767Y-113199610D01*
X196087184Y-113265074D01*
X196087500Y-113273920D01*
X196087500Y-116870410D01*
X196067815Y-116937449D01*
X196051181Y-116958091D01*
X192039585Y-120969686D01*
X191978262Y-121003171D01*
X191908570Y-120998187D01*
X191895609Y-120992490D01*
X191881317Y-120985207D01*
X191881314Y-120985206D01*
X191709088Y-120929247D01*
X191547398Y-120903638D01*
X191484263Y-120873708D01*
X191447332Y-120814397D01*
X191448330Y-120744534D01*
X191486940Y-120686302D01*
X191547399Y-120658692D01*
X191708970Y-120633102D01*
X191881122Y-120577167D01*
X191881130Y-120577164D01*
X192042408Y-120494987D01*
X192058210Y-120483504D01*
X192058211Y-120483504D01*
X191569088Y-119994381D01*
X191632671Y-119977344D01*
X191746685Y-119911518D01*
X191839777Y-119818426D01*
X191905603Y-119704412D01*
X191922640Y-119640829D01*
X192411763Y-120129952D01*
X192411763Y-120129951D01*
X192423246Y-120114149D01*
X192505423Y-119952871D01*
X192505426Y-119952863D01*
X192561360Y-119780712D01*
X192589678Y-119601925D01*
X192589678Y-119420912D01*
X192561360Y-119242125D01*
X192505426Y-119069974D01*
X192505425Y-119069971D01*
X192423249Y-118908694D01*
X192423244Y-118908686D01*
X192411763Y-118892885D01*
X191922640Y-119382008D01*
X191905603Y-119318426D01*
X191839777Y-119204412D01*
X191746685Y-119111320D01*
X191632671Y-119045494D01*
X191569087Y-119028456D01*
X192058211Y-118539332D01*
X192042408Y-118527850D01*
X191881125Y-118445671D01*
X191881122Y-118445670D01*
X191708971Y-118389736D01*
X191547398Y-118364145D01*
X191484263Y-118334216D01*
X191447332Y-118274904D01*
X191448330Y-118205042D01*
X191486940Y-118146809D01*
X191547398Y-118119199D01*
X191561948Y-118116894D01*
X191709087Y-118093590D01*
X191881317Y-118037630D01*
X192042672Y-117955415D01*
X192189179Y-117848972D01*
X192317231Y-117720920D01*
X192423674Y-117574413D01*
X192505889Y-117413058D01*
X192561849Y-117240828D01*
X192576443Y-117148678D01*
X192590178Y-117061970D01*
X192590178Y-116880867D01*
X192561849Y-116702009D01*
X192535841Y-116621965D01*
X192533846Y-116552124D01*
X192566089Y-116495968D01*
X195875821Y-113186237D01*
X195937142Y-113152754D01*
X196006834Y-113157738D01*
G37*
%TD.AperFunction*%
%TA.AperFunction,Conductor*%
G36*
X210518834Y-117822881D02*
G01*
X210574767Y-117864753D01*
X210599184Y-117930217D01*
X210599500Y-117939063D01*
X210599500Y-118854838D01*
X210579815Y-118921877D01*
X210563181Y-118942519D01*
X210110949Y-119394750D01*
X210093912Y-119331167D01*
X210028086Y-119217153D01*
X209934994Y-119124061D01*
X209820980Y-119058235D01*
X209757396Y-119041197D01*
X210246520Y-118552073D01*
X210230717Y-118540591D01*
X210069434Y-118458412D01*
X210069431Y-118458411D01*
X209897280Y-118402477D01*
X209735707Y-118376886D01*
X209672572Y-118346957D01*
X209635641Y-118287645D01*
X209636639Y-118217783D01*
X209675249Y-118159550D01*
X209735707Y-118131940D01*
X209750257Y-118129635D01*
X209897396Y-118106331D01*
X210069626Y-118050371D01*
X210230981Y-117968156D01*
X210377488Y-117861713D01*
X210387819Y-117851382D01*
X210449142Y-117817897D01*
X210518834Y-117822881D01*
G37*
%TD.AperFunction*%
%TA.AperFunction,Conductor*%
G36*
X190605703Y-117764944D02*
G01*
X190612181Y-117770976D01*
X190690178Y-117848973D01*
X190690183Y-117848977D01*
X190730970Y-117878610D01*
X190836684Y-117955415D01*
X190942162Y-118009159D01*
X190998038Y-118037630D01*
X190998041Y-118037631D01*
X191037252Y-118050371D01*
X191170269Y-118093590D01*
X191289716Y-118112508D01*
X191331957Y-118119199D01*
X191395092Y-118149128D01*
X191432023Y-118208440D01*
X191431025Y-118278302D01*
X191392415Y-118336535D01*
X191331957Y-118364145D01*
X191170384Y-118389736D01*
X190998233Y-118445670D01*
X190998225Y-118445673D01*
X190836947Y-118527851D01*
X190821144Y-118539331D01*
X190821144Y-118539332D01*
X191310269Y-119028456D01*
X191246685Y-119045494D01*
X191132671Y-119111320D01*
X191039579Y-119204412D01*
X190973753Y-119318426D01*
X190956715Y-119382009D01*
X190436819Y-118862113D01*
X190403334Y-118800790D01*
X190400500Y-118774432D01*
X190400500Y-117858657D01*
X190420185Y-117791618D01*
X190472989Y-117745863D01*
X190542147Y-117735919D01*
X190605703Y-117764944D01*
G37*
%TD.AperFunction*%
%TA.AperFunction,Conductor*%
G36*
X208422694Y-106447512D02*
G01*
X208478627Y-106489384D01*
X208503044Y-106554848D01*
X208501833Y-106583091D01*
X208477987Y-106733652D01*
X208477987Y-106914666D01*
X208506304Y-107093453D01*
X208562238Y-107265604D01*
X208562239Y-107265607D01*
X208644418Y-107426890D01*
X208655900Y-107442692D01*
X208655900Y-107442693D01*
X209145024Y-106953569D01*
X209162062Y-107017153D01*
X209227888Y-107131167D01*
X209320980Y-107224259D01*
X209434994Y-107290085D01*
X209498577Y-107307122D01*
X209009453Y-107796245D01*
X209009453Y-107796246D01*
X209025254Y-107807726D01*
X209025262Y-107807731D01*
X209186539Y-107889907D01*
X209186542Y-107889908D01*
X209358693Y-107945842D01*
X209520266Y-107971433D01*
X209583400Y-108001362D01*
X209620332Y-108060673D01*
X209619334Y-108130536D01*
X209580725Y-108188769D01*
X209520267Y-108216379D01*
X209358576Y-108241989D01*
X209186350Y-108297947D01*
X209186347Y-108297948D01*
X209024989Y-108380166D01*
X208878492Y-108486601D01*
X208878487Y-108486605D01*
X208750432Y-108614660D01*
X208750428Y-108614665D01*
X208643993Y-108761162D01*
X208561775Y-108922520D01*
X208561774Y-108922523D01*
X208505816Y-109094749D01*
X208477487Y-109273608D01*
X208477487Y-109454711D01*
X208505816Y-109633570D01*
X208561774Y-109805796D01*
X208561775Y-109805799D01*
X208643993Y-109967157D01*
X208750428Y-110113654D01*
X208750432Y-110113659D01*
X208878487Y-110241714D01*
X208878492Y-110241718D01*
X208972774Y-110310217D01*
X209024993Y-110348156D01*
X209130471Y-110401900D01*
X209186347Y-110430371D01*
X209186350Y-110430372D01*
X209272463Y-110458351D01*
X209358578Y-110486331D01*
X209431626Y-110497900D01*
X209518665Y-110511687D01*
X209581800Y-110541616D01*
X209618731Y-110600928D01*
X209617733Y-110670791D01*
X209579123Y-110729023D01*
X209518665Y-110756633D01*
X209358576Y-110781989D01*
X209186350Y-110837947D01*
X209186347Y-110837948D01*
X209024989Y-110920166D01*
X208878492Y-111026601D01*
X208878487Y-111026605D01*
X208750432Y-111154660D01*
X208750428Y-111154665D01*
X208643993Y-111301162D01*
X208591910Y-111403380D01*
X208543935Y-111454176D01*
X208481425Y-111471085D01*
X207758437Y-111471085D01*
X207691398Y-111451400D01*
X207670756Y-111434766D01*
X206337819Y-110101829D01*
X206304334Y-110040506D01*
X206301500Y-110014148D01*
X206301500Y-108517555D01*
X206321185Y-108450516D01*
X206337819Y-108429874D01*
X207306968Y-107460725D01*
X208291681Y-106476011D01*
X208353002Y-106442528D01*
X208422694Y-106447512D01*
G37*
%TD.AperFunction*%
%TA.AperFunction,Conductor*%
G36*
X190973753Y-107004412D02*
G01*
X191039579Y-107118426D01*
X191132671Y-107211518D01*
X191246685Y-107277344D01*
X191310268Y-107294381D01*
X190821144Y-107783504D01*
X190821144Y-107783505D01*
X190836945Y-107794985D01*
X190836953Y-107794990D01*
X190998230Y-107877166D01*
X190998233Y-107877167D01*
X191170384Y-107933101D01*
X191331957Y-107958692D01*
X191395091Y-107988621D01*
X191432023Y-108047932D01*
X191431025Y-108117795D01*
X191392416Y-108176028D01*
X191331958Y-108203638D01*
X191170267Y-108229248D01*
X190998041Y-108285206D01*
X190998038Y-108285207D01*
X190836680Y-108367425D01*
X190690183Y-108473860D01*
X190690178Y-108473864D01*
X190612181Y-108551862D01*
X190550858Y-108585347D01*
X190481166Y-108580363D01*
X190425233Y-108538491D01*
X190400816Y-108473027D01*
X190400500Y-108464181D01*
X190400500Y-107548406D01*
X190420185Y-107481367D01*
X190436819Y-107460725D01*
X190956715Y-106940828D01*
X190973753Y-107004412D01*
G37*
%TD.AperFunction*%
%TA.AperFunction,Conductor*%
G36*
X210563181Y-107405800D02*
G01*
X210596666Y-107467123D01*
X210599500Y-107493481D01*
X210599500Y-108409257D01*
X210579815Y-108476296D01*
X210527011Y-108522051D01*
X210457853Y-108531995D01*
X210394297Y-108502970D01*
X210387819Y-108496938D01*
X210377486Y-108486605D01*
X210377481Y-108486601D01*
X210230984Y-108380166D01*
X210230983Y-108380165D01*
X210230981Y-108380164D01*
X210165721Y-108346912D01*
X210069626Y-108297948D01*
X210069623Y-108297947D01*
X209897397Y-108241988D01*
X209735707Y-108216379D01*
X209672572Y-108186449D01*
X209635641Y-108127138D01*
X209636639Y-108057275D01*
X209675249Y-107999043D01*
X209735708Y-107971433D01*
X209897279Y-107945843D01*
X210069431Y-107889908D01*
X210069439Y-107889905D01*
X210230717Y-107807728D01*
X210246519Y-107796245D01*
X210246520Y-107796245D01*
X209757397Y-107307122D01*
X209820980Y-107290085D01*
X209934994Y-107224259D01*
X210028086Y-107131167D01*
X210093912Y-107017153D01*
X210110949Y-106953569D01*
X210563181Y-107405800D01*
G37*
%TD.AperFunction*%
%TA.AperFunction,Conductor*%
G36*
X196212210Y-100432185D02*
G01*
X196257965Y-100484989D01*
X196267909Y-100554147D01*
X196238884Y-100617703D01*
X196232852Y-100624181D01*
X194179522Y-102677510D01*
X194179520Y-102677513D01*
X194126793Y-102768838D01*
X194115664Y-102810372D01*
X194106275Y-102845414D01*
X194099500Y-102870696D01*
X194099500Y-106158410D01*
X194079815Y-106225449D01*
X194063181Y-106246091D01*
X192039585Y-108269686D01*
X191978262Y-108303171D01*
X191908570Y-108298187D01*
X191895609Y-108292490D01*
X191881317Y-108285207D01*
X191881314Y-108285206D01*
X191709088Y-108229247D01*
X191547398Y-108203638D01*
X191484263Y-108173708D01*
X191447332Y-108114397D01*
X191448330Y-108044534D01*
X191486940Y-107986302D01*
X191547399Y-107958692D01*
X191708970Y-107933102D01*
X191881122Y-107877167D01*
X191881130Y-107877164D01*
X192042408Y-107794987D01*
X192058210Y-107783504D01*
X192058211Y-107783504D01*
X191569088Y-107294381D01*
X191632671Y-107277344D01*
X191746685Y-107211518D01*
X191839777Y-107118426D01*
X191905603Y-107004412D01*
X191922640Y-106940829D01*
X192411763Y-107429952D01*
X192411763Y-107429951D01*
X192423246Y-107414149D01*
X192505423Y-107252871D01*
X192505426Y-107252863D01*
X192561360Y-107080712D01*
X192589678Y-106901925D01*
X192589678Y-106720912D01*
X192561360Y-106542125D01*
X192505426Y-106369974D01*
X192505425Y-106369971D01*
X192423249Y-106208694D01*
X192423244Y-106208686D01*
X192411763Y-106192885D01*
X191922640Y-106682008D01*
X191905603Y-106618426D01*
X191839777Y-106504412D01*
X191746685Y-106411320D01*
X191632671Y-106345494D01*
X191569087Y-106328456D01*
X192058211Y-105839332D01*
X192042408Y-105827850D01*
X191881125Y-105745671D01*
X191881122Y-105745670D01*
X191708971Y-105689736D01*
X191547398Y-105664145D01*
X191484263Y-105634216D01*
X191447332Y-105574904D01*
X191448330Y-105505042D01*
X191486940Y-105446809D01*
X191547398Y-105419199D01*
X191561948Y-105416894D01*
X191709087Y-105393590D01*
X191881317Y-105337630D01*
X192042672Y-105255415D01*
X192189179Y-105148972D01*
X192317231Y-105020920D01*
X192423674Y-104874413D01*
X192505889Y-104713058D01*
X192561849Y-104540828D01*
X192576443Y-104448678D01*
X192590178Y-104361970D01*
X192590178Y-104180867D01*
X192561849Y-104002009D01*
X192535841Y-103921965D01*
X192533846Y-103852124D01*
X192566089Y-103795968D01*
X195913240Y-100448819D01*
X195940167Y-100434115D01*
X195965986Y-100417523D01*
X195972186Y-100416631D01*
X195974563Y-100415334D01*
X196000921Y-100412500D01*
X196145171Y-100412500D01*
X196212210Y-100432185D01*
G37*
%TD.AperFunction*%
%TA.AperFunction,Conductor*%
G36*
X200461174Y-105931930D02*
G01*
X200509651Y-105982247D01*
X200515079Y-105994132D01*
X200534578Y-106043577D01*
X200565639Y-106122343D01*
X200656772Y-106242519D01*
X200657078Y-106242922D01*
X200668401Y-106251508D01*
X200709924Y-106307698D01*
X200714478Y-106377420D01*
X200680615Y-106438535D01*
X200668406Y-106449114D01*
X200657437Y-106457432D01*
X200566078Y-106577906D01*
X200515622Y-106705853D01*
X200472716Y-106760996D01*
X200406808Y-106784189D01*
X200338824Y-106768068D01*
X200290348Y-106717751D01*
X200284920Y-106705868D01*
X200234361Y-106577658D01*
X200234361Y-106577657D01*
X200142921Y-106457076D01*
X200131599Y-106448491D01*
X200090074Y-106392300D01*
X200085521Y-106322578D01*
X200119385Y-106261464D01*
X200131600Y-106250880D01*
X200142563Y-106242566D01*
X200233920Y-106122095D01*
X200284376Y-105994147D01*
X200327282Y-105939003D01*
X200393190Y-105915810D01*
X200461174Y-105931930D01*
G37*
%TD.AperFunction*%
%TA.AperFunction,Conductor*%
G36*
X208555300Y-104820122D02*
G01*
X208561667Y-104819850D01*
X208586696Y-104834460D01*
X208613061Y-104846501D01*
X208617886Y-104852667D01*
X208622009Y-104855074D01*
X208642344Y-104883921D01*
X208643993Y-104887158D01*
X208750428Y-105033654D01*
X208750432Y-105033659D01*
X208878487Y-105161714D01*
X208878492Y-105161718D01*
X209000003Y-105250000D01*
X209024993Y-105268156D01*
X209119553Y-105316337D01*
X209186347Y-105350371D01*
X209186350Y-105350372D01*
X209235416Y-105366314D01*
X209358578Y-105406331D01*
X209478025Y-105425249D01*
X209520266Y-105431940D01*
X209583401Y-105461869D01*
X209620332Y-105521181D01*
X209619334Y-105591043D01*
X209580724Y-105649276D01*
X209520266Y-105676886D01*
X209358693Y-105702477D01*
X209186542Y-105758411D01*
X209186534Y-105758414D01*
X209025256Y-105840592D01*
X209009453Y-105852072D01*
X209009453Y-105852073D01*
X209498578Y-106341197D01*
X209434994Y-106358235D01*
X209320980Y-106424061D01*
X209227888Y-106517153D01*
X209162062Y-106631167D01*
X209145024Y-106694750D01*
X208655899Y-106205626D01*
X208644418Y-106221429D01*
X208642341Y-106225507D01*
X208594365Y-106276302D01*
X208526543Y-106293095D01*
X208460409Y-106270555D01*
X208416960Y-106215839D01*
X208407858Y-106169209D01*
X208407858Y-104940214D01*
X208409653Y-104934100D01*
X208408477Y-104927837D01*
X208419378Y-104900979D01*
X208427543Y-104873175D01*
X208432358Y-104869002D01*
X208434755Y-104863098D01*
X208458446Y-104846396D01*
X208480347Y-104827420D01*
X208486652Y-104826513D01*
X208491862Y-104822841D01*
X208520823Y-104821600D01*
X208549505Y-104817476D01*
X208555300Y-104820122D01*
G37*
%TD.AperFunction*%
%TA.AperFunction,Conductor*%
G36*
X210518834Y-105122881D02*
G01*
X210574767Y-105164753D01*
X210599184Y-105230217D01*
X210599500Y-105239063D01*
X210599500Y-106154838D01*
X210579815Y-106221877D01*
X210563181Y-106242519D01*
X210110949Y-106694750D01*
X210093912Y-106631167D01*
X210028086Y-106517153D01*
X209934994Y-106424061D01*
X209820980Y-106358235D01*
X209757396Y-106341197D01*
X210246520Y-105852073D01*
X210230717Y-105840591D01*
X210069434Y-105758412D01*
X210069431Y-105758411D01*
X209897280Y-105702477D01*
X209735707Y-105676886D01*
X209672572Y-105646957D01*
X209635641Y-105587645D01*
X209636639Y-105517783D01*
X209675249Y-105459550D01*
X209735707Y-105431940D01*
X209750257Y-105429635D01*
X209897396Y-105406331D01*
X210069626Y-105350371D01*
X210230981Y-105268156D01*
X210377488Y-105161713D01*
X210387819Y-105151382D01*
X210449142Y-105117897D01*
X210518834Y-105122881D01*
G37*
%TD.AperFunction*%
%TA.AperFunction,Conductor*%
G36*
X190605703Y-105064944D02*
G01*
X190612181Y-105070976D01*
X190690178Y-105148973D01*
X190690183Y-105148977D01*
X190800046Y-105228796D01*
X190836684Y-105255415D01*
X190934936Y-105305477D01*
X190998038Y-105337630D01*
X190998041Y-105337631D01*
X191037252Y-105350371D01*
X191170269Y-105393590D01*
X191289716Y-105412508D01*
X191331957Y-105419199D01*
X191395092Y-105449128D01*
X191432023Y-105508440D01*
X191431025Y-105578302D01*
X191392415Y-105636535D01*
X191331957Y-105664145D01*
X191170384Y-105689736D01*
X190998233Y-105745670D01*
X190998225Y-105745673D01*
X190836947Y-105827851D01*
X190821144Y-105839331D01*
X190821144Y-105839332D01*
X191310269Y-106328456D01*
X191246685Y-106345494D01*
X191132671Y-106411320D01*
X191039579Y-106504412D01*
X190973753Y-106618426D01*
X190956715Y-106682009D01*
X190436819Y-106162113D01*
X190403334Y-106100790D01*
X190400500Y-106074432D01*
X190400500Y-105158657D01*
X190420185Y-105091618D01*
X190472989Y-105045863D01*
X190542147Y-105035919D01*
X190605703Y-105064944D01*
G37*
%TD.AperFunction*%
%TA.AperFunction,Conductor*%
G36*
X199713039Y-104019685D02*
G01*
X199758794Y-104072489D01*
X199770000Y-104124000D01*
X199770000Y-104616000D01*
X199750315Y-104683039D01*
X199697511Y-104728794D01*
X199646000Y-104740000D01*
X199550000Y-104740000D01*
X199550000Y-105376000D01*
X199530315Y-105443039D01*
X199477511Y-105488794D01*
X199426000Y-105500000D01*
X199300000Y-105500000D01*
X199300000Y-105626000D01*
X199280315Y-105693039D01*
X199227511Y-105738794D01*
X199176000Y-105750000D01*
X198299999Y-105750000D01*
X198277179Y-105772820D01*
X198215856Y-105806304D01*
X198146164Y-105801319D01*
X198104327Y-105770000D01*
X197624000Y-105770000D01*
X197556961Y-105750315D01*
X197511206Y-105697511D01*
X197500000Y-105646000D01*
X197500000Y-105394000D01*
X197519685Y-105326961D01*
X197572489Y-105281206D01*
X197624000Y-105270000D01*
X198072116Y-105270000D01*
X198056950Y-105163333D01*
X197984641Y-105065358D01*
X197877921Y-104986595D01*
X197843342Y-104974495D01*
X197786567Y-104933772D01*
X197760821Y-104868819D01*
X197774278Y-104800258D01*
X197796609Y-104769783D01*
X198129576Y-104436816D01*
X198190897Y-104403334D01*
X198217255Y-104400500D01*
X198552724Y-104400500D01*
X198552727Y-104400500D01*
X198630134Y-104379759D01*
X198699979Y-104381422D01*
X198757841Y-104420584D01*
X198785346Y-104484812D01*
X198773760Y-104553714D01*
X198726762Y-104605415D01*
X198707714Y-104614888D01*
X198577906Y-104666078D01*
X198457435Y-104757435D01*
X198366079Y-104877904D01*
X198310613Y-105018556D01*
X198300000Y-105106946D01*
X198300000Y-105110979D01*
X198319765Y-105250000D01*
X199050000Y-105250000D01*
X199050000Y-104594000D01*
X199069685Y-104526961D01*
X199122489Y-104481206D01*
X199174000Y-104470000D01*
X199270000Y-104470000D01*
X199270000Y-104124000D01*
X199289685Y-104056961D01*
X199342489Y-104011206D01*
X199394000Y-104000000D01*
X199646000Y-104000000D01*
X199713039Y-104019685D01*
G37*
%TD.AperFunction*%
%TA.AperFunction,Conductor*%
G36*
X199350342Y-96020185D02*
G01*
X199396097Y-96072989D01*
X199403074Y-96092397D01*
X199440423Y-96231783D01*
X199440426Y-96231790D01*
X199519475Y-96368709D01*
X199519479Y-96368714D01*
X199519480Y-96368716D01*
X199631284Y-96480520D01*
X199631286Y-96480521D01*
X199631290Y-96480524D01*
X199732012Y-96538675D01*
X199768216Y-96559577D01*
X199920943Y-96600500D01*
X199920945Y-96600500D01*
X200079055Y-96600500D01*
X200079057Y-96600500D01*
X200231784Y-96559577D01*
X200368716Y-96480520D01*
X200480520Y-96368716D01*
X200559577Y-96231784D01*
X200575667Y-96171731D01*
X200612030Y-96112074D01*
X200674876Y-96081544D01*
X200744252Y-96089838D01*
X200783122Y-96116146D01*
X201051064Y-96384088D01*
X201051065Y-96384089D01*
X201125632Y-96458656D01*
X201216958Y-96511383D01*
X201318818Y-96538676D01*
X201318820Y-96538676D01*
X202414549Y-96538676D01*
X202414551Y-96538676D01*
X202516412Y-96511383D01*
X202607737Y-96458656D01*
X202787423Y-96278967D01*
X202802942Y-96270494D01*
X202815417Y-96257960D01*
X202832970Y-96254097D01*
X202848745Y-96245484D01*
X202866383Y-96246745D01*
X202883655Y-96242945D01*
X202900510Y-96249185D01*
X202918437Y-96250468D01*
X202932663Y-96261091D01*
X202949177Y-96267206D01*
X202965656Y-96285728D01*
X202974193Y-96292103D01*
X202978728Y-96298131D01*
X203019480Y-96368716D01*
X203069346Y-96418582D01*
X203074589Y-96425551D01*
X203083933Y-96450422D01*
X203096666Y-96473740D01*
X203098258Y-96488548D01*
X203099163Y-96490957D01*
X203098732Y-96492959D01*
X203099500Y-96500098D01*
X203099500Y-98499902D01*
X203079815Y-98566941D01*
X203063181Y-98587583D01*
X203019481Y-98631282D01*
X203019475Y-98631290D01*
X202940426Y-98768209D01*
X202940423Y-98768216D01*
X202899500Y-98920943D01*
X202899500Y-99079057D01*
X202940423Y-99231784D01*
X202943893Y-99237794D01*
X203012136Y-99355996D01*
X203028608Y-99423896D01*
X203005755Y-99489923D01*
X202992430Y-99505676D01*
X202792435Y-99705671D01*
X202731115Y-99739155D01*
X202704756Y-99741989D01*
X201627673Y-99741989D01*
X201525810Y-99769282D01*
X201434487Y-99822009D01*
X201434484Y-99822011D01*
X200942022Y-100314473D01*
X200942020Y-100314476D01*
X200889291Y-100405803D01*
X200872924Y-100466893D01*
X200869273Y-100480520D01*
X200867786Y-100486069D01*
X200862000Y-100507661D01*
X200862000Y-100780199D01*
X200853047Y-100810687D01*
X200845714Y-100841630D01*
X200843270Y-100843984D01*
X200842315Y-100847238D01*
X200818302Y-100868044D01*
X200795402Y-100890113D01*
X200791304Y-100891439D01*
X200789511Y-100892993D01*
X200762111Y-100901832D01*
X200758994Y-100902449D01*
X200711107Y-100909427D01*
X200702452Y-100913657D01*
X200686611Y-100916798D01*
X200667244Y-100915052D01*
X200648075Y-100918323D01*
X200623508Y-100911109D01*
X200623452Y-100911104D01*
X200623092Y-100912270D01*
X200617618Y-100910578D01*
X200617023Y-100910525D01*
X200616744Y-100910308D01*
X200613888Y-100909425D01*
X200545761Y-100899500D01*
X200545760Y-100899500D01*
X200379240Y-100899500D01*
X200379239Y-100899500D01*
X200311111Y-100909425D01*
X200301908Y-100912270D01*
X200301042Y-100909468D01*
X200247489Y-100918598D01*
X200223335Y-100911504D01*
X200222949Y-100912755D01*
X200213750Y-100909912D01*
X200145714Y-100900000D01*
X199979286Y-100900000D01*
X199911247Y-100909913D01*
X199902050Y-100912755D01*
X199901092Y-100909655D01*
X199848611Y-100918596D01*
X199823426Y-100911197D01*
X199823095Y-100912270D01*
X199813892Y-100909426D01*
X199745761Y-100899500D01*
X199745760Y-100899500D01*
X199579240Y-100899500D01*
X199579239Y-100899500D01*
X199511111Y-100909425D01*
X199501908Y-100912270D01*
X199500988Y-100909294D01*
X199448075Y-100918323D01*
X199423455Y-100911094D01*
X199423092Y-100912270D01*
X199413888Y-100909425D01*
X199345761Y-100899500D01*
X199345760Y-100899500D01*
X199179240Y-100899500D01*
X199179239Y-100899500D01*
X199111111Y-100909425D01*
X199101908Y-100912270D01*
X199100988Y-100909294D01*
X199048075Y-100918323D01*
X199023455Y-100911094D01*
X199023092Y-100912270D01*
X199013888Y-100909425D01*
X198945761Y-100899500D01*
X198945760Y-100899500D01*
X198779240Y-100899500D01*
X198779239Y-100899500D01*
X198711111Y-100909425D01*
X198701908Y-100912270D01*
X198701000Y-100909333D01*
X198648692Y-100918394D01*
X198627342Y-100916001D01*
X198613893Y-100909427D01*
X198545760Y-100899500D01*
X198480073Y-100899500D01*
X198473192Y-100898729D01*
X198447098Y-100887783D01*
X198419961Y-100879815D01*
X198415312Y-100874450D01*
X198408761Y-100871702D01*
X198392725Y-100848384D01*
X198374206Y-100827011D01*
X198372437Y-100818880D01*
X198369171Y-100814131D01*
X198368796Y-100802146D01*
X198363000Y-100775500D01*
X198363000Y-100716745D01*
X198363000Y-100716740D01*
X198353073Y-100648607D01*
X198353071Y-100648604D01*
X198353071Y-100648600D01*
X198350230Y-100639404D01*
X198353209Y-100638483D01*
X198344173Y-100585610D01*
X198345499Y-100576933D01*
X198348603Y-100560535D01*
X198353073Y-100551393D01*
X198362219Y-100488619D01*
X198362702Y-100486069D01*
X198377461Y-100457206D01*
X198390977Y-100427759D01*
X198393272Y-100426289D01*
X198394514Y-100423862D01*
X198422531Y-100407563D01*
X198449825Y-100390094D01*
X198452551Y-100390099D01*
X198454908Y-100388728D01*
X198487287Y-100390163D01*
X198519695Y-100390224D01*
X198522196Y-100391711D01*
X198524709Y-100391823D01*
X198536991Y-100400508D01*
X198572219Y-100421455D01*
X198631284Y-100480520D01*
X198631286Y-100480521D01*
X198631290Y-100480524D01*
X198683715Y-100510791D01*
X198768216Y-100559577D01*
X198920943Y-100600500D01*
X198920945Y-100600500D01*
X199079055Y-100600500D01*
X199079057Y-100600500D01*
X199231784Y-100559577D01*
X199368716Y-100480520D01*
X199480520Y-100368716D01*
X199559577Y-100231784D01*
X199600500Y-100079057D01*
X199600500Y-99920943D01*
X199559577Y-99768216D01*
X199559573Y-99768209D01*
X199480524Y-99631290D01*
X199480518Y-99631282D01*
X199368717Y-99519481D01*
X199368709Y-99519475D01*
X199231790Y-99440426D01*
X199231786Y-99440424D01*
X199231784Y-99440423D01*
X199079057Y-99399500D01*
X199079056Y-99399500D01*
X199017255Y-99399500D01*
X198950216Y-99379815D01*
X198929574Y-99363181D01*
X198445916Y-98879522D01*
X198424997Y-98867444D01*
X198416714Y-98858756D01*
X198405797Y-98853771D01*
X198393050Y-98833937D01*
X198376783Y-98816875D01*
X198373567Y-98803620D01*
X198368023Y-98794993D01*
X198363000Y-98760058D01*
X198363000Y-98724500D01*
X198382685Y-98657461D01*
X198435489Y-98611706D01*
X198487000Y-98600500D01*
X198579055Y-98600500D01*
X198579057Y-98600500D01*
X198731784Y-98559577D01*
X198868716Y-98480520D01*
X198980520Y-98368716D01*
X199059577Y-98231784D01*
X199100500Y-98079057D01*
X199100500Y-97920943D01*
X199059577Y-97768216D01*
X199037728Y-97730372D01*
X198980524Y-97631290D01*
X198980518Y-97631282D01*
X198878932Y-97529696D01*
X198845447Y-97468373D01*
X198850431Y-97398681D01*
X198892303Y-97342748D01*
X198934518Y-97322241D01*
X198981784Y-97309577D01*
X199118716Y-97230520D01*
X199230520Y-97118716D01*
X199309577Y-96981784D01*
X199350500Y-96829057D01*
X199350500Y-96670943D01*
X199309577Y-96518216D01*
X199287816Y-96480524D01*
X199230524Y-96381290D01*
X199230518Y-96381282D01*
X199118717Y-96269481D01*
X199118712Y-96269477D01*
X199053603Y-96231887D01*
X199005388Y-96181321D01*
X198992164Y-96112714D01*
X199018132Y-96047849D01*
X199075046Y-96007320D01*
X199115603Y-96000500D01*
X199283303Y-96000500D01*
X199350342Y-96020185D01*
G37*
%TD.AperFunction*%
%TA.AperFunction,Conductor*%
G36*
X194463039Y-98809185D02*
G01*
X194508794Y-98861989D01*
X194520000Y-98913500D01*
X194520000Y-99086500D01*
X194500315Y-99153539D01*
X194447511Y-99199294D01*
X194396000Y-99210500D01*
X193705005Y-99210500D01*
X193704989Y-99210499D01*
X193697393Y-99210499D01*
X193591940Y-99210499D01*
X193512505Y-99231784D01*
X193512504Y-99231783D01*
X193490081Y-99237792D01*
X193490076Y-99237794D01*
X193398751Y-99290521D01*
X193324184Y-99365089D01*
X192039585Y-100649686D01*
X191978262Y-100683171D01*
X191908570Y-100678187D01*
X191895609Y-100672490D01*
X191881317Y-100665207D01*
X191881314Y-100665206D01*
X191709088Y-100609248D01*
X191548999Y-100583892D01*
X191485864Y-100553963D01*
X191448933Y-100494651D01*
X191449931Y-100424789D01*
X191488541Y-100366556D01*
X191548999Y-100338946D01*
X191628649Y-100326330D01*
X191709087Y-100313590D01*
X191881317Y-100257630D01*
X192042672Y-100175415D01*
X192189179Y-100068972D01*
X192317231Y-99940920D01*
X192423674Y-99794413D01*
X192505889Y-99633058D01*
X192561849Y-99460828D01*
X192578453Y-99355996D01*
X192590178Y-99281970D01*
X192590178Y-99100867D01*
X192563574Y-98932898D01*
X192572529Y-98863605D01*
X192617525Y-98810153D01*
X192684276Y-98789513D01*
X192686047Y-98789500D01*
X194396000Y-98789500D01*
X194463039Y-98809185D01*
G37*
%TD.AperFunction*%
%TA.AperFunction,Conductor*%
G36*
X209162062Y-94317153D02*
G01*
X209227888Y-94431167D01*
X209320980Y-94524259D01*
X209434994Y-94590085D01*
X209498577Y-94607122D01*
X209009453Y-95096245D01*
X209009453Y-95096246D01*
X209025254Y-95107726D01*
X209025262Y-95107731D01*
X209186539Y-95189907D01*
X209186542Y-95189908D01*
X209358693Y-95245842D01*
X209520266Y-95271433D01*
X209583400Y-95301362D01*
X209620332Y-95360673D01*
X209619334Y-95430536D01*
X209580725Y-95488769D01*
X209520267Y-95516379D01*
X209358576Y-95541989D01*
X209186350Y-95597947D01*
X209186347Y-95597948D01*
X209024989Y-95680166D01*
X208878492Y-95786601D01*
X208878487Y-95786605D01*
X208750432Y-95914660D01*
X208750428Y-95914665D01*
X208643991Y-96061164D01*
X208634984Y-96078842D01*
X208587009Y-96129637D01*
X208519188Y-96146432D01*
X208453053Y-96123894D01*
X208409603Y-96069178D01*
X208400500Y-96022546D01*
X208400500Y-94764670D01*
X208420185Y-94697631D01*
X208472989Y-94651876D01*
X208542147Y-94641932D01*
X208605703Y-94670957D01*
X208634985Y-94708376D01*
X208644417Y-94726888D01*
X208655900Y-94742692D01*
X208655900Y-94742693D01*
X209145024Y-94253569D01*
X209162062Y-94317153D01*
G37*
%TD.AperFunction*%
%TA.AperFunction,Conductor*%
G36*
X192411762Y-94729951D02*
G01*
X192465773Y-94725702D01*
X192534150Y-94740067D01*
X192583906Y-94789119D01*
X192599500Y-94849320D01*
X192599500Y-95908794D01*
X192579815Y-95975833D01*
X192527011Y-96021588D01*
X192457853Y-96031532D01*
X192394297Y-96002507D01*
X192375182Y-95981680D01*
X192317232Y-95901919D01*
X192189177Y-95773864D01*
X192189172Y-95773860D01*
X192042675Y-95667425D01*
X192042674Y-95667424D01*
X192042672Y-95667423D01*
X191942207Y-95616233D01*
X191881317Y-95585207D01*
X191881314Y-95585206D01*
X191709088Y-95529247D01*
X191547398Y-95503638D01*
X191484263Y-95473708D01*
X191447332Y-95414397D01*
X191448330Y-95344534D01*
X191486940Y-95286302D01*
X191547399Y-95258692D01*
X191708970Y-95233102D01*
X191881122Y-95177167D01*
X191881130Y-95177164D01*
X192042408Y-95094987D01*
X192058210Y-95083504D01*
X192058211Y-95083504D01*
X191569088Y-94594381D01*
X191632671Y-94577344D01*
X191746685Y-94511518D01*
X191839777Y-94418426D01*
X191905603Y-94304412D01*
X191922640Y-94240829D01*
X192411762Y-94729951D01*
G37*
%TD.AperFunction*%
%TA.AperFunction,Conductor*%
G36*
X190973753Y-94304412D02*
G01*
X191039579Y-94418426D01*
X191132671Y-94511518D01*
X191246685Y-94577344D01*
X191310268Y-94594381D01*
X190821144Y-95083504D01*
X190821144Y-95083505D01*
X190836945Y-95094985D01*
X190836953Y-95094990D01*
X190998230Y-95177166D01*
X190998233Y-95177167D01*
X191170384Y-95233101D01*
X191331957Y-95258692D01*
X191395091Y-95288621D01*
X191432023Y-95347932D01*
X191431025Y-95417795D01*
X191392416Y-95476028D01*
X191331958Y-95503638D01*
X191170267Y-95529248D01*
X190998041Y-95585206D01*
X190998038Y-95585207D01*
X190836680Y-95667425D01*
X190690183Y-95773860D01*
X190690178Y-95773864D01*
X190612181Y-95851862D01*
X190550858Y-95885347D01*
X190481166Y-95880363D01*
X190425233Y-95838491D01*
X190400816Y-95773027D01*
X190400500Y-95764181D01*
X190400500Y-94848406D01*
X190420185Y-94781367D01*
X190436819Y-94760725D01*
X190956715Y-94240828D01*
X190973753Y-94304412D01*
G37*
%TD.AperFunction*%
%TA.AperFunction,Conductor*%
G36*
X210563181Y-94705800D02*
G01*
X210596666Y-94767123D01*
X210599500Y-94793481D01*
X210599500Y-95709257D01*
X210579815Y-95776296D01*
X210527011Y-95822051D01*
X210457853Y-95831995D01*
X210394297Y-95802970D01*
X210387819Y-95796938D01*
X210377486Y-95786605D01*
X210377481Y-95786601D01*
X210230984Y-95680166D01*
X210230983Y-95680165D01*
X210230981Y-95680164D01*
X210179287Y-95653824D01*
X210069626Y-95597948D01*
X210069623Y-95597947D01*
X209897397Y-95541988D01*
X209735707Y-95516379D01*
X209672572Y-95486449D01*
X209635641Y-95427138D01*
X209636639Y-95357275D01*
X209675249Y-95299043D01*
X209735708Y-95271433D01*
X209897279Y-95245843D01*
X210069431Y-95189908D01*
X210069439Y-95189905D01*
X210230717Y-95107728D01*
X210246519Y-95096245D01*
X210246520Y-95096245D01*
X209757397Y-94607122D01*
X209820980Y-94590085D01*
X209934994Y-94524259D01*
X210028086Y-94431167D01*
X210093912Y-94317153D01*
X210110949Y-94253569D01*
X210563181Y-94705800D01*
G37*
%TD.AperFunction*%
%TA.AperFunction,Conductor*%
G36*
X209118078Y-92616493D02*
G01*
X209131040Y-92622190D01*
X209186347Y-92650371D01*
X209186350Y-92650372D01*
X209238654Y-92667366D01*
X209358578Y-92706331D01*
X209462339Y-92722765D01*
X209520266Y-92731940D01*
X209583401Y-92761869D01*
X209620332Y-92821181D01*
X209619334Y-92891043D01*
X209580724Y-92949276D01*
X209520266Y-92976886D01*
X209358693Y-93002477D01*
X209186542Y-93058411D01*
X209186534Y-93058414D01*
X209025256Y-93140592D01*
X209009453Y-93152072D01*
X209009453Y-93152073D01*
X209498578Y-93641197D01*
X209434994Y-93658235D01*
X209320980Y-93724061D01*
X209227888Y-93817153D01*
X209162062Y-93931167D01*
X209145024Y-93994750D01*
X208655900Y-93505626D01*
X208655899Y-93505626D01*
X208644419Y-93521429D01*
X208634984Y-93539946D01*
X208587009Y-93590741D01*
X208519188Y-93607536D01*
X208453054Y-93584998D01*
X208409603Y-93530282D01*
X208400500Y-93483650D01*
X208400500Y-93282921D01*
X208420185Y-93215882D01*
X208436815Y-93195244D01*
X208987066Y-92644992D01*
X209048387Y-92611509D01*
X209118078Y-92616493D01*
G37*
%TD.AperFunction*%
%TA.AperFunction,Conductor*%
G36*
X210518834Y-92422881D02*
G01*
X210574767Y-92464753D01*
X210599184Y-92530217D01*
X210599500Y-92539063D01*
X210599500Y-93454838D01*
X210579815Y-93521877D01*
X210563181Y-93542519D01*
X210110949Y-93994750D01*
X210093912Y-93931167D01*
X210028086Y-93817153D01*
X209934994Y-93724061D01*
X209820980Y-93658235D01*
X209757396Y-93641197D01*
X210246520Y-93152073D01*
X210230717Y-93140591D01*
X210069434Y-93058412D01*
X210069431Y-93058411D01*
X209897280Y-93002477D01*
X209735707Y-92976886D01*
X209672572Y-92946957D01*
X209635641Y-92887645D01*
X209636639Y-92817783D01*
X209675249Y-92759550D01*
X209735707Y-92731940D01*
X209752261Y-92729318D01*
X209897396Y-92706331D01*
X210069626Y-92650371D01*
X210230981Y-92568156D01*
X210377488Y-92461713D01*
X210387819Y-92451382D01*
X210449142Y-92417897D01*
X210518834Y-92422881D01*
G37*
%TD.AperFunction*%
%TA.AperFunction,Conductor*%
G36*
X190605703Y-92364944D02*
G01*
X190612181Y-92370976D01*
X190690178Y-92448973D01*
X190690183Y-92448977D01*
X190761913Y-92501091D01*
X190836684Y-92555415D01*
X190942162Y-92609159D01*
X190998038Y-92637630D01*
X190998041Y-92637631D01*
X191020703Y-92644994D01*
X191170269Y-92693590D01*
X191272483Y-92709779D01*
X191331957Y-92719199D01*
X191395092Y-92749128D01*
X191432023Y-92808440D01*
X191431025Y-92878302D01*
X191392415Y-92936535D01*
X191331957Y-92964145D01*
X191170384Y-92989736D01*
X190998233Y-93045670D01*
X190998225Y-93045673D01*
X190836947Y-93127851D01*
X190821144Y-93139331D01*
X190821144Y-93139332D01*
X191310269Y-93628456D01*
X191246685Y-93645494D01*
X191132671Y-93711320D01*
X191039579Y-93804412D01*
X190973753Y-93918426D01*
X190956715Y-93982009D01*
X190436819Y-93462113D01*
X190403334Y-93400790D01*
X190400500Y-93374432D01*
X190400500Y-92458657D01*
X190420185Y-92391618D01*
X190472989Y-92345863D01*
X190542147Y-92335919D01*
X190605703Y-92364944D01*
G37*
%TD.AperFunction*%
%TA.AperFunction,Conductor*%
G36*
X192015887Y-92650408D02*
G01*
X192026461Y-92659838D01*
X192563181Y-93196558D01*
X192577884Y-93223485D01*
X192594477Y-93249304D01*
X192595368Y-93255504D01*
X192596666Y-93257881D01*
X192599500Y-93284239D01*
X192599500Y-93373517D01*
X192579815Y-93440556D01*
X192527011Y-93486311D01*
X192465773Y-93497135D01*
X192411763Y-93492885D01*
X191922640Y-93982008D01*
X191905603Y-93918426D01*
X191839777Y-93804412D01*
X191746685Y-93711320D01*
X191632671Y-93645494D01*
X191569087Y-93628456D01*
X192058211Y-93139332D01*
X192042408Y-93127850D01*
X191881125Y-93045671D01*
X191881122Y-93045670D01*
X191708971Y-92989736D01*
X191547398Y-92964145D01*
X191484263Y-92934216D01*
X191447332Y-92874904D01*
X191448330Y-92805042D01*
X191486940Y-92746809D01*
X191547398Y-92719199D01*
X191561948Y-92716894D01*
X191709087Y-92693590D01*
X191881317Y-92637630D01*
X191882477Y-92637039D01*
X191882963Y-92636947D01*
X191885821Y-92635764D01*
X191886069Y-92636364D01*
X191951145Y-92624137D01*
X192015887Y-92650408D01*
G37*
%TD.AperFunction*%
%TA.AperFunction,Conductor*%
G36*
X196622425Y-92354115D02*
G01*
X196665617Y-92409036D01*
X196674500Y-92455123D01*
X196674500Y-92594855D01*
X196674502Y-92594882D01*
X196677413Y-92619987D01*
X196677415Y-92619991D01*
X196722793Y-92722764D01*
X196722794Y-92722765D01*
X196802235Y-92802206D01*
X196905009Y-92847585D01*
X196930135Y-92850500D01*
X197219864Y-92850499D01*
X197219879Y-92850497D01*
X197219882Y-92850497D01*
X197244987Y-92847586D01*
X197253989Y-92845137D01*
X197254947Y-92848661D01*
X197306551Y-92841862D01*
X197369760Y-92871635D01*
X197394844Y-92902383D01*
X197428517Y-92960707D01*
X197428519Y-92960709D01*
X197428520Y-92960711D01*
X197713720Y-93245911D01*
X197713722Y-93245913D01*
X197788289Y-93320480D01*
X197788290Y-93320481D01*
X197788292Y-93320482D01*
X197870792Y-93368113D01*
X197919007Y-93418679D01*
X197932231Y-93487286D01*
X197906263Y-93552151D01*
X197849349Y-93592680D01*
X197808792Y-93599500D01*
X197284355Y-93599500D01*
X197217316Y-93579815D01*
X197196674Y-93563181D01*
X196714015Y-93080522D01*
X196714013Y-93080520D01*
X196653657Y-93045673D01*
X196622689Y-93027793D01*
X196528205Y-93002477D01*
X196520827Y-93000500D01*
X196520826Y-93000500D01*
X196411515Y-93000500D01*
X196344476Y-92980815D01*
X196298721Y-92928011D01*
X196288777Y-92858853D01*
X196317802Y-92795297D01*
X196323834Y-92788819D01*
X196336598Y-92776054D01*
X196389733Y-92667366D01*
X196395905Y-92624999D01*
X196388990Y-92617003D01*
X196361748Y-92591466D01*
X196349528Y-92570710D01*
X196333759Y-92552511D01*
X196332125Y-92541148D01*
X196326301Y-92531255D01*
X196327242Y-92507191D01*
X196323815Y-92483353D01*
X196328584Y-92472910D01*
X196329033Y-92461439D01*
X196342835Y-92441703D01*
X196352840Y-92419797D01*
X196362497Y-92413590D01*
X196369077Y-92404183D01*
X196391358Y-92395042D01*
X196411618Y-92382023D01*
X196414422Y-92381235D01*
X196444386Y-92373207D01*
X196488500Y-92347737D01*
X196556398Y-92331264D01*
X196622425Y-92354115D01*
G37*
%TD.AperFunction*%
%TA.AperFunction,Conductor*%
G36*
X206156380Y-88809742D02*
G01*
X206188187Y-88817865D01*
X206189745Y-88819539D01*
X206191940Y-88820184D01*
X206213421Y-88844974D01*
X206235792Y-88869008D01*
X206236198Y-88871260D01*
X206237695Y-88872988D01*
X206242364Y-88905461D01*
X206248189Y-88937769D01*
X206247434Y-88940723D01*
X206247639Y-88942146D01*
X206242955Y-88959211D01*
X206243527Y-88959365D01*
X206241423Y-88967214D01*
X206241423Y-88967216D01*
X206200500Y-89119943D01*
X206200500Y-89278057D01*
X206233041Y-89399500D01*
X206241423Y-89430783D01*
X206241426Y-89430790D01*
X206320475Y-89567709D01*
X206320479Y-89567714D01*
X206320480Y-89567716D01*
X206432284Y-89679520D01*
X206432286Y-89679521D01*
X206432290Y-89679524D01*
X206522183Y-89731423D01*
X206569216Y-89758577D01*
X206704124Y-89794725D01*
X206763783Y-89831089D01*
X206794312Y-89893936D01*
X206786017Y-89963311D01*
X206759711Y-90002179D01*
X206711423Y-90050467D01*
X206711420Y-90050471D01*
X206658693Y-90141795D01*
X206638519Y-90217088D01*
X206631400Y-90243655D01*
X206631400Y-91834703D01*
X206611715Y-91901742D01*
X206558911Y-91947497D01*
X206489753Y-91957441D01*
X206427894Y-91929191D01*
X206424519Y-91929032D01*
X206103868Y-92249684D01*
X206042545Y-92283169D01*
X205972853Y-92278185D01*
X205928506Y-92249684D01*
X205839411Y-92160589D01*
X205750315Y-92249685D01*
X205688992Y-92283169D01*
X205619300Y-92278185D01*
X205574953Y-92249684D01*
X205240019Y-91914750D01*
X205240017Y-91914750D01*
X205195006Y-92008217D01*
X205184258Y-92079528D01*
X205154802Y-92142885D01*
X205095768Y-92180259D01*
X205080125Y-92183662D01*
X205008070Y-92194522D01*
X205008067Y-92194523D01*
X204888429Y-92252137D01*
X204888425Y-92252140D01*
X204865427Y-92271196D01*
X204865412Y-92271208D01*
X204813131Y-92323490D01*
X204751808Y-92356974D01*
X204682116Y-92351989D01*
X204626183Y-92310118D01*
X204624321Y-92307563D01*
X204597669Y-92270000D01*
X204124000Y-92270000D01*
X204056961Y-92250315D01*
X204011206Y-92197511D01*
X204000000Y-92146000D01*
X204000000Y-91894000D01*
X204019685Y-91826961D01*
X204072489Y-91781206D01*
X204124000Y-91770000D01*
X204597668Y-91770000D01*
X204587701Y-91741516D01*
X204584140Y-91671737D01*
X204618869Y-91611109D01*
X204680862Y-91578882D01*
X204716322Y-91577103D01*
X204723119Y-91577740D01*
X204723121Y-91577741D01*
X204752543Y-91580500D01*
X205227456Y-91580499D01*
X205256879Y-91577741D01*
X205380794Y-91534381D01*
X205401930Y-91518781D01*
X205467557Y-91494810D01*
X205535728Y-91510125D01*
X205563245Y-91530870D01*
X205839410Y-91807034D01*
X206070965Y-91575478D01*
X206068861Y-91573736D01*
X206068851Y-91573729D01*
X205949356Y-91516184D01*
X205818198Y-91496416D01*
X205818196Y-91496416D01*
X205699945Y-91514238D01*
X205630720Y-91504764D01*
X205577607Y-91459369D01*
X205557468Y-91392465D01*
X205564422Y-91350674D01*
X205607741Y-91226879D01*
X205610500Y-91197457D01*
X205610499Y-90822544D01*
X205607741Y-90793121D01*
X205564381Y-90669206D01*
X205493844Y-90573632D01*
X205469874Y-90508005D01*
X205485189Y-90439835D01*
X205493845Y-90426366D01*
X205495671Y-90423892D01*
X205564381Y-90330794D01*
X205587477Y-90264789D01*
X205607741Y-90206881D01*
X205607741Y-90206879D01*
X205607771Y-90206556D01*
X205610500Y-90177457D01*
X205610499Y-89802544D01*
X205607741Y-89773121D01*
X205564381Y-89649206D01*
X205486423Y-89543577D01*
X205486420Y-89543575D01*
X205486418Y-89543572D01*
X205440865Y-89509952D01*
X205398615Y-89454304D01*
X205390500Y-89410183D01*
X205390500Y-88924499D01*
X205410185Y-88857460D01*
X205462989Y-88811705D01*
X205514500Y-88800499D01*
X206124901Y-88800499D01*
X206156380Y-88809742D01*
G37*
%TD.AperFunction*%
%TA.AperFunction,Conductor*%
G36*
X195523631Y-75420185D02*
G01*
X195569386Y-75472989D01*
X195579330Y-75542147D01*
X195559694Y-75593391D01*
X195471052Y-75726051D01*
X195471047Y-75726060D01*
X195410743Y-75871648D01*
X195410741Y-75871656D01*
X195380000Y-76026202D01*
X195380000Y-76155000D01*
X195880000Y-76155000D01*
X195880000Y-76655000D01*
X195380000Y-76655000D01*
X195380000Y-76783797D01*
X195410741Y-76938343D01*
X195410743Y-76938351D01*
X195471047Y-77083939D01*
X195471052Y-77083948D01*
X195558598Y-77214969D01*
X195558601Y-77214973D01*
X195670026Y-77326398D01*
X195670034Y-77326404D01*
X195801047Y-77413944D01*
X195801065Y-77413954D01*
X195929999Y-77467360D01*
X195930000Y-77467360D01*
X195930000Y-76871988D01*
X195939940Y-76889205D01*
X195995795Y-76945060D01*
X196064204Y-76984556D01*
X196140504Y-77005000D01*
X196219496Y-77005000D01*
X196295796Y-76984556D01*
X196364205Y-76945060D01*
X196420060Y-76889205D01*
X196430000Y-76871988D01*
X196430000Y-77467360D01*
X196558934Y-77413954D01*
X196558952Y-77413944D01*
X196689965Y-77326404D01*
X196689973Y-77326398D01*
X196801398Y-77214973D01*
X196801401Y-77214969D01*
X196888947Y-77083948D01*
X196888952Y-77083939D01*
X196949256Y-76938351D01*
X196949258Y-76938343D01*
X196979999Y-76783797D01*
X196980000Y-76783794D01*
X196980000Y-76655000D01*
X196480000Y-76655000D01*
X196480000Y-76155000D01*
X196980000Y-76155000D01*
X196980000Y-76026206D01*
X196979999Y-76026202D01*
X196949258Y-75871656D01*
X196949256Y-75871648D01*
X196888952Y-75726060D01*
X196888947Y-75726051D01*
X196800306Y-75593391D01*
X196779428Y-75526714D01*
X196797912Y-75459333D01*
X196849891Y-75412643D01*
X196903408Y-75400500D01*
X204096592Y-75400500D01*
X204163631Y-75420185D01*
X204209386Y-75472989D01*
X204219330Y-75542147D01*
X204199694Y-75593391D01*
X204111052Y-75726051D01*
X204111047Y-75726060D01*
X204050743Y-75871648D01*
X204050741Y-75871656D01*
X204020000Y-76026202D01*
X204020000Y-76155000D01*
X204520000Y-76155000D01*
X204520000Y-76655000D01*
X204020000Y-76655000D01*
X204020000Y-76783797D01*
X204050741Y-76938343D01*
X204050743Y-76938351D01*
X204111047Y-77083939D01*
X204111052Y-77083948D01*
X204198598Y-77214969D01*
X204198601Y-77214973D01*
X204310026Y-77326398D01*
X204310034Y-77326404D01*
X204441047Y-77413944D01*
X204441065Y-77413954D01*
X204569999Y-77467360D01*
X204570000Y-77467360D01*
X204570000Y-76871988D01*
X204579940Y-76889205D01*
X204635795Y-76945060D01*
X204704204Y-76984556D01*
X204780504Y-77005000D01*
X204859496Y-77005000D01*
X204935796Y-76984556D01*
X205004205Y-76945060D01*
X205060060Y-76889205D01*
X205070000Y-76871988D01*
X205070000Y-77467360D01*
X205198934Y-77413954D01*
X205198952Y-77413944D01*
X205329965Y-77326404D01*
X205329973Y-77326398D01*
X205441398Y-77214973D01*
X205441401Y-77214969D01*
X205528947Y-77083948D01*
X205528952Y-77083939D01*
X205589256Y-76938351D01*
X205589258Y-76938343D01*
X205619999Y-76783797D01*
X205620000Y-76783794D01*
X205620000Y-76655000D01*
X205120000Y-76655000D01*
X205120000Y-76155000D01*
X205620000Y-76155000D01*
X205620000Y-76026206D01*
X205619999Y-76026202D01*
X205589258Y-75871656D01*
X205589256Y-75871648D01*
X205528952Y-75726060D01*
X205528947Y-75726051D01*
X205440306Y-75593391D01*
X205419428Y-75526714D01*
X205437912Y-75459333D01*
X205489891Y-75412643D01*
X205543408Y-75400500D01*
X208353487Y-75400500D01*
X208420526Y-75420185D01*
X208466281Y-75472989D01*
X208477487Y-75524500D01*
X208477487Y-77239016D01*
X208477489Y-77239042D01*
X208480400Y-77264147D01*
X208480402Y-77264151D01*
X208525780Y-77366924D01*
X208525781Y-77366925D01*
X208605222Y-77446366D01*
X208707996Y-77491745D01*
X208733122Y-77494660D01*
X209470860Y-77494659D01*
X209537897Y-77514343D01*
X209583652Y-77567147D01*
X209593596Y-77636306D01*
X209564571Y-77699862D01*
X209505793Y-77737636D01*
X209490257Y-77741132D01*
X209358576Y-77761989D01*
X209186350Y-77817947D01*
X209186347Y-77817948D01*
X209024989Y-77900166D01*
X208878492Y-78006601D01*
X208878487Y-78006605D01*
X208750432Y-78134660D01*
X208750428Y-78134665D01*
X208643993Y-78281162D01*
X208561775Y-78442520D01*
X208561774Y-78442523D01*
X208505816Y-78614749D01*
X208477487Y-78793608D01*
X208477487Y-78974711D01*
X208505815Y-79153570D01*
X208516640Y-79186883D01*
X208518635Y-79256724D01*
X208486390Y-79312882D01*
X207507806Y-80291467D01*
X207507804Y-80291470D01*
X207455077Y-80382793D01*
X207449928Y-80402011D01*
X207446067Y-80416421D01*
X207446067Y-80416422D01*
X207446066Y-80416421D01*
X207427784Y-80484654D01*
X207427784Y-87536838D01*
X207422354Y-87555327D01*
X207421896Y-87574595D01*
X207412713Y-87588161D01*
X207408099Y-87603877D01*
X207393536Y-87616495D01*
X207382733Y-87632457D01*
X207367673Y-87638905D01*
X207355295Y-87649632D01*
X207336219Y-87652374D01*
X207318504Y-87659961D01*
X207302351Y-87657244D01*
X207286137Y-87659576D01*
X207268605Y-87651569D01*
X207249602Y-87648374D01*
X207237481Y-87637356D01*
X207222581Y-87630551D01*
X207212161Y-87614338D01*
X207197902Y-87601375D01*
X207186062Y-87573726D01*
X207184807Y-87571773D01*
X207184009Y-87568931D01*
X207179667Y-87552726D01*
X207179667Y-87552725D01*
X207174207Y-87532348D01*
X207149913Y-87490270D01*
X207121480Y-87441023D01*
X206758977Y-87078520D01*
X206713314Y-87052156D01*
X206667653Y-87025793D01*
X206616721Y-87012146D01*
X206565791Y-86998500D01*
X204434209Y-86998500D01*
X204332349Y-87025793D01*
X204332346Y-87025794D01*
X204241021Y-87078521D01*
X203712410Y-87607132D01*
X203696400Y-87615873D01*
X203683414Y-87628685D01*
X203666371Y-87632271D01*
X203651087Y-87640617D01*
X203632892Y-87639315D01*
X203615042Y-87643072D01*
X203598767Y-87636875D01*
X203581395Y-87635633D01*
X203566791Y-87624700D01*
X203549745Y-87618210D01*
X203526092Y-87594232D01*
X203525462Y-87593761D01*
X203524959Y-87593084D01*
X203503534Y-87564054D01*
X203479563Y-87498425D01*
X203494879Y-87430255D01*
X203503529Y-87416794D01*
X203574381Y-87320794D01*
X203604356Y-87235131D01*
X203617741Y-87196881D01*
X203617741Y-87196879D01*
X203620500Y-87167457D01*
X203620499Y-86792544D01*
X203617741Y-86763121D01*
X203574381Y-86639206D01*
X203545729Y-86600384D01*
X203521759Y-86534755D01*
X203521500Y-86526751D01*
X203521500Y-84150000D01*
X204200234Y-84150000D01*
X204206401Y-84207375D01*
X204256645Y-84342086D01*
X204256649Y-84342093D01*
X204342809Y-84457187D01*
X204342812Y-84457190D01*
X204457906Y-84543350D01*
X204457913Y-84543354D01*
X204592620Y-84593596D01*
X204592627Y-84593598D01*
X204652155Y-84599999D01*
X204652172Y-84600000D01*
X205250000Y-84600000D01*
X205750000Y-84600000D01*
X206347828Y-84600000D01*
X206347844Y-84599999D01*
X206407372Y-84593598D01*
X206407379Y-84593596D01*
X206542086Y-84543354D01*
X206542093Y-84543350D01*
X206657187Y-84457190D01*
X206657190Y-84457187D01*
X206743350Y-84342093D01*
X206743354Y-84342086D01*
X206793598Y-84207375D01*
X206799766Y-84150000D01*
X205750000Y-84150000D01*
X205750000Y-84600000D01*
X205250000Y-84600000D01*
X205250000Y-84150000D01*
X204200234Y-84150000D01*
X203521500Y-84150000D01*
X203521500Y-83728176D01*
X203521500Y-83728173D01*
X203507058Y-83674273D01*
X203500554Y-83650000D01*
X204200234Y-83650000D01*
X205250000Y-83650000D01*
X205750000Y-83650000D01*
X206799765Y-83650000D01*
X206793598Y-83592624D01*
X206743354Y-83457913D01*
X206743350Y-83457906D01*
X206657190Y-83342812D01*
X206657187Y-83342809D01*
X206542093Y-83256649D01*
X206542086Y-83256645D01*
X206407379Y-83206403D01*
X206407372Y-83206401D01*
X206347844Y-83200000D01*
X205750000Y-83200000D01*
X205750000Y-83650000D01*
X205250000Y-83650000D01*
X205250000Y-83200000D01*
X204652155Y-83200000D01*
X204592627Y-83206401D01*
X204592620Y-83206403D01*
X204457913Y-83256645D01*
X204457906Y-83256649D01*
X204342812Y-83342809D01*
X204342809Y-83342812D01*
X204256649Y-83457906D01*
X204256645Y-83457913D01*
X204206401Y-83592624D01*
X204200234Y-83650000D01*
X203500554Y-83650000D01*
X203494207Y-83626312D01*
X203441480Y-83534987D01*
X202643673Y-82737180D01*
X202610188Y-82675857D01*
X202615172Y-82606165D01*
X202657044Y-82550232D01*
X202722508Y-82525815D01*
X202731331Y-82525499D01*
X203294864Y-82525499D01*
X203294879Y-82525497D01*
X203294882Y-82525497D01*
X203329258Y-82521511D01*
X203329432Y-82523016D01*
X203370629Y-82523017D01*
X203370862Y-82521015D01*
X203405206Y-82524999D01*
X203500000Y-82524998D01*
X203500000Y-82428917D01*
X203510565Y-82378832D01*
X203547585Y-82294991D01*
X203550500Y-82269865D01*
X203550499Y-81599859D01*
X203570183Y-81532822D01*
X203622987Y-81487067D01*
X203689248Y-81476741D01*
X203890749Y-81500880D01*
X203916336Y-81511844D01*
X203943039Y-81519685D01*
X203948002Y-81525412D01*
X203954971Y-81528399D01*
X203970569Y-81551456D01*
X203988794Y-81572489D01*
X203990688Y-81581196D01*
X203994121Y-81586271D01*
X203994403Y-81598276D01*
X204000000Y-81624000D01*
X204000000Y-82524999D01*
X204094786Y-82524999D01*
X204094808Y-82524997D01*
X204119869Y-82522091D01*
X204119873Y-82522090D01*
X204222474Y-82476788D01*
X204222479Y-82476785D01*
X204301785Y-82397479D01*
X204301788Y-82397474D01*
X204347089Y-82294877D01*
X204347089Y-82294875D01*
X204349999Y-82269794D01*
X204349999Y-81991812D01*
X204369683Y-81924773D01*
X204422487Y-81879018D01*
X204491646Y-81869074D01*
X204521451Y-81877251D01*
X204569999Y-81897360D01*
X204570000Y-81897360D01*
X204570000Y-81301988D01*
X204579940Y-81319205D01*
X204635795Y-81375060D01*
X204704204Y-81414556D01*
X204780504Y-81435000D01*
X204859496Y-81435000D01*
X204935796Y-81414556D01*
X205004205Y-81375060D01*
X205060060Y-81319205D01*
X205070000Y-81301988D01*
X205070000Y-81897360D01*
X205198934Y-81843954D01*
X205198952Y-81843944D01*
X205329965Y-81756404D01*
X205329973Y-81756398D01*
X205441398Y-81644973D01*
X205441401Y-81644969D01*
X205528947Y-81513948D01*
X205528952Y-81513939D01*
X205589256Y-81368351D01*
X205589258Y-81368343D01*
X205619999Y-81213797D01*
X205620000Y-81213794D01*
X205620000Y-80835000D01*
X205120000Y-80835000D01*
X205120000Y-80335000D01*
X205620000Y-80335000D01*
X205620000Y-79956206D01*
X205619999Y-79956202D01*
X205589258Y-79801656D01*
X205589256Y-79801648D01*
X205528952Y-79656060D01*
X205528947Y-79656051D01*
X205441401Y-79525030D01*
X205441398Y-79525026D01*
X205329973Y-79413601D01*
X205329969Y-79413598D01*
X205198948Y-79326052D01*
X205198938Y-79326047D01*
X205070000Y-79272639D01*
X205070000Y-79868011D01*
X205060060Y-79850795D01*
X205004205Y-79794940D01*
X204935796Y-79755444D01*
X204859496Y-79735000D01*
X204780504Y-79735000D01*
X204704204Y-79755444D01*
X204635795Y-79794940D01*
X204579940Y-79850795D01*
X204570000Y-79868011D01*
X204570000Y-79272639D01*
X204569999Y-79272639D01*
X204441061Y-79326047D01*
X204441051Y-79326052D01*
X204310030Y-79413598D01*
X204310026Y-79413601D01*
X204198601Y-79525026D01*
X204198598Y-79525030D01*
X204111052Y-79656051D01*
X204111049Y-79656057D01*
X204087446Y-79713040D01*
X204043604Y-79767443D01*
X203977310Y-79789507D01*
X203909611Y-79772227D01*
X203865498Y-79727587D01*
X203862781Y-79722881D01*
X203850515Y-79701635D01*
X203743365Y-79594485D01*
X203665499Y-79549529D01*
X203612136Y-79518719D01*
X203538950Y-79499109D01*
X203465766Y-79479500D01*
X203314234Y-79479500D01*
X203167865Y-79518719D01*
X203167864Y-79518719D01*
X203167862Y-79518720D01*
X203167861Y-79518720D01*
X203086500Y-79565695D01*
X203018600Y-79582168D01*
X202952573Y-79559316D01*
X202909383Y-79504395D01*
X202900500Y-79458308D01*
X202900500Y-78447276D01*
X202900500Y-78447273D01*
X202879417Y-78368588D01*
X202879417Y-78368587D01*
X202879417Y-78368586D01*
X202873207Y-78345413D01*
X202873207Y-78345412D01*
X202836114Y-78281166D01*
X202828758Y-78268425D01*
X202820480Y-78254087D01*
X202745913Y-78179520D01*
X202745910Y-78179518D01*
X202245913Y-77679520D01*
X202171065Y-77636306D01*
X202154589Y-77626793D01*
X202103657Y-77613146D01*
X202052727Y-77599500D01*
X202052726Y-77599500D01*
X198560339Y-77599500D01*
X198560323Y-77599499D01*
X198552727Y-77599499D01*
X198447273Y-77599499D01*
X198379366Y-77617695D01*
X198345412Y-77626793D01*
X198301942Y-77651891D01*
X198254087Y-77679520D01*
X198186589Y-77747018D01*
X198186588Y-77747017D01*
X198186586Y-77747020D01*
X197965522Y-77968084D01*
X197965518Y-77968090D01*
X197912793Y-78059411D01*
X197910745Y-78067055D01*
X197892631Y-78134659D01*
X197885500Y-78161273D01*
X197885500Y-79371418D01*
X197865815Y-79438457D01*
X197813011Y-79484212D01*
X197743853Y-79494156D01*
X197729409Y-79491193D01*
X197685770Y-79479500D01*
X197685766Y-79479500D01*
X197534234Y-79479500D01*
X197387863Y-79518719D01*
X197256635Y-79594485D01*
X197256632Y-79594487D01*
X197149487Y-79701632D01*
X197149481Y-79701641D01*
X197134499Y-79727589D01*
X197083931Y-79775803D01*
X197015324Y-79789024D01*
X196950460Y-79763054D01*
X196912553Y-79713038D01*
X196888954Y-79656064D01*
X196888947Y-79656051D01*
X196801401Y-79525030D01*
X196801398Y-79525026D01*
X196689973Y-79413601D01*
X196689969Y-79413598D01*
X196558948Y-79326052D01*
X196558938Y-79326047D01*
X196430000Y-79272639D01*
X196430000Y-79868011D01*
X196420060Y-79850795D01*
X196364205Y-79794940D01*
X196295796Y-79755444D01*
X196219496Y-79735000D01*
X196140504Y-79735000D01*
X196064204Y-79755444D01*
X195995795Y-79794940D01*
X195939940Y-79850795D01*
X195930000Y-79868011D01*
X195930000Y-79272639D01*
X195929999Y-79272639D01*
X195801061Y-79326047D01*
X195801051Y-79326052D01*
X195670030Y-79413598D01*
X195670026Y-79413601D01*
X195558601Y-79525026D01*
X195558598Y-79525030D01*
X195471052Y-79656051D01*
X195471047Y-79656060D01*
X195410743Y-79801648D01*
X195410741Y-79801656D01*
X195380000Y-79956202D01*
X195380000Y-80335000D01*
X195880000Y-80335000D01*
X195880000Y-80835000D01*
X195380000Y-80835000D01*
X195380000Y-81213797D01*
X195410741Y-81368343D01*
X195410743Y-81368351D01*
X195471047Y-81513939D01*
X195471052Y-81513948D01*
X195558598Y-81644969D01*
X195558601Y-81644973D01*
X195670026Y-81756398D01*
X195670034Y-81756404D01*
X195801047Y-81843944D01*
X195801065Y-81843954D01*
X195929999Y-81897360D01*
X195930000Y-81897360D01*
X195930000Y-81301988D01*
X195939940Y-81319205D01*
X195995795Y-81375060D01*
X196064204Y-81414556D01*
X196140504Y-81435000D01*
X196219496Y-81435000D01*
X196295796Y-81414556D01*
X196364205Y-81375060D01*
X196420060Y-81319205D01*
X196430000Y-81301988D01*
X196430000Y-81897359D01*
X196478547Y-81877251D01*
X196548017Y-81869782D01*
X196610496Y-81901057D01*
X196646148Y-81961146D01*
X196650000Y-81991812D01*
X196650000Y-82269785D01*
X196650002Y-82269808D01*
X196652908Y-82294869D01*
X196652909Y-82294873D01*
X196698211Y-82397474D01*
X196698214Y-82397479D01*
X196777520Y-82476785D01*
X196777525Y-82476788D01*
X196880123Y-82522089D01*
X196905206Y-82524999D01*
X197000000Y-82524998D01*
X197000000Y-81750000D01*
X196644000Y-81750000D01*
X196576961Y-81730315D01*
X196531206Y-81677511D01*
X196520000Y-81626000D01*
X196520000Y-81374000D01*
X196539685Y-81306961D01*
X196592489Y-81261206D01*
X196644000Y-81250000D01*
X197126000Y-81250000D01*
X197193039Y-81269685D01*
X197238794Y-81322489D01*
X197250000Y-81374000D01*
X197250000Y-81500000D01*
X197325501Y-81500000D01*
X197392540Y-81519685D01*
X197438295Y-81572489D01*
X197449501Y-81624000D01*
X197449501Y-82269856D01*
X197449502Y-82269882D01*
X197452413Y-82294987D01*
X197452414Y-82294988D01*
X197452414Y-82294990D01*
X197452415Y-82294991D01*
X197489434Y-82378832D01*
X197500000Y-82428917D01*
X197500000Y-82524999D01*
X197525500Y-82524999D01*
X197592539Y-82544684D01*
X197638294Y-82597488D01*
X197649500Y-82648999D01*
X197649500Y-82937970D01*
X197629815Y-83005009D01*
X197599134Y-83037740D01*
X197527850Y-83090350D01*
X197447207Y-83199617D01*
X197447206Y-83199619D01*
X197402353Y-83327798D01*
X197402353Y-83327800D01*
X197399500Y-83358230D01*
X197399500Y-83700500D01*
X197379815Y-83767539D01*
X197327011Y-83813294D01*
X197275500Y-83824500D01*
X196330071Y-83824500D01*
X196263032Y-83804815D01*
X196217277Y-83752011D01*
X196214716Y-83745989D01*
X196212364Y-83740024D01*
X196125078Y-83624921D01*
X196009976Y-83537636D01*
X195875588Y-83484640D01*
X195832242Y-83479435D01*
X195791144Y-83474500D01*
X195208856Y-83474500D01*
X195170841Y-83479065D01*
X195124411Y-83484640D01*
X194990023Y-83537636D01*
X194874921Y-83624921D01*
X194787636Y-83740023D01*
X194734640Y-83874411D01*
X194732421Y-83892893D01*
X194724500Y-83958856D01*
X194724500Y-84491144D01*
X194729825Y-84535494D01*
X194734640Y-84575588D01*
X194787636Y-84709976D01*
X194874922Y-84825078D01*
X194975712Y-84901511D01*
X195017235Y-84957703D01*
X195021786Y-85027424D01*
X194987921Y-85088538D01*
X194975712Y-85099118D01*
X194875277Y-85175280D01*
X194788077Y-85290270D01*
X194735131Y-85424531D01*
X194735131Y-85424532D01*
X194725000Y-85508897D01*
X194725000Y-85525000D01*
X196326000Y-85525000D01*
X196393039Y-85544685D01*
X196438794Y-85597489D01*
X196443327Y-85618327D01*
X196450000Y-85625000D01*
X197649999Y-85625000D01*
X197649999Y-85233303D01*
X197647148Y-85202895D01*
X197646298Y-85200466D01*
X197646200Y-85198552D01*
X197645538Y-85195520D01*
X197646039Y-85195410D01*
X197642733Y-85130688D01*
X197677459Y-85070059D01*
X197739451Y-85037828D01*
X197774916Y-85036048D01*
X197795731Y-85038000D01*
X197795734Y-85038000D01*
X198204265Y-85038000D01*
X198204266Y-85038000D01*
X198224532Y-85036099D01*
X198293116Y-85049436D01*
X198343603Y-85097737D01*
X198359962Y-85165664D01*
X198353158Y-85200500D01*
X198352354Y-85202798D01*
X198352353Y-85202800D01*
X198349500Y-85233230D01*
X198349500Y-86516769D01*
X198352353Y-86547196D01*
X198396085Y-86672175D01*
X198399646Y-86741954D01*
X198392410Y-86760235D01*
X198393535Y-86760701D01*
X198390425Y-86768208D01*
X198390423Y-86768216D01*
X198349500Y-86920943D01*
X198349500Y-86920945D01*
X198349500Y-87079059D01*
X198350192Y-87084316D01*
X198339426Y-87153351D01*
X198293046Y-87205606D01*
X198227253Y-87224500D01*
X198008856Y-87224500D01*
X197970841Y-87229065D01*
X197924411Y-87234640D01*
X197790023Y-87287636D01*
X197674920Y-87374922D01*
X197598488Y-87475712D01*
X197542295Y-87517235D01*
X197472574Y-87521786D01*
X197411460Y-87487920D01*
X197400881Y-87475711D01*
X197324721Y-87375278D01*
X197209729Y-87288077D01*
X197075467Y-87235131D01*
X196991102Y-87225000D01*
X196975000Y-87225000D01*
X196975000Y-88775000D01*
X196991102Y-88775000D01*
X197075467Y-88764868D01*
X197075468Y-88764868D01*
X197209729Y-88711922D01*
X197324721Y-88624721D01*
X197400881Y-88524288D01*
X197457073Y-88482765D01*
X197526794Y-88478213D01*
X197587908Y-88512077D01*
X197598488Y-88524287D01*
X197674651Y-88624721D01*
X197674922Y-88625078D01*
X197687207Y-88634394D01*
X197790023Y-88712363D01*
X197790024Y-88712363D01*
X197790025Y-88712364D01*
X197924410Y-88765359D01*
X198008856Y-88775500D01*
X198008862Y-88775500D01*
X198425500Y-88775500D01*
X198492539Y-88795185D01*
X198538294Y-88847989D01*
X198549500Y-88899500D01*
X198549500Y-89409081D01*
X198529815Y-89476120D01*
X198477011Y-89521875D01*
X198407853Y-89531819D01*
X198363501Y-89516469D01*
X198231784Y-89440423D01*
X198195833Y-89430790D01*
X198079057Y-89399500D01*
X197920943Y-89399500D01*
X197768216Y-89440423D01*
X197768209Y-89440426D01*
X197631290Y-89519475D01*
X197631282Y-89519481D01*
X197587583Y-89563181D01*
X197526260Y-89596666D01*
X197499902Y-89599500D01*
X196597273Y-89599500D01*
X196495410Y-89626793D01*
X196404087Y-89679520D01*
X196404084Y-89679522D01*
X196254518Y-89829089D01*
X195545424Y-90538181D01*
X195484101Y-90571666D01*
X195457744Y-90574500D01*
X195228049Y-90574500D01*
X195157492Y-90584779D01*
X195153155Y-90586900D01*
X195098694Y-90599500D01*
X195064375Y-90599500D01*
X194962515Y-90626793D01*
X194962512Y-90626794D01*
X194885232Y-90671412D01*
X194871192Y-90679517D01*
X194871187Y-90679521D01*
X194414181Y-91136528D01*
X194352858Y-91170013D01*
X194283166Y-91165029D01*
X194227233Y-91123157D01*
X194202816Y-91057693D01*
X194202500Y-91048847D01*
X194202500Y-88736259D01*
X194202500Y-88736257D01*
X194175207Y-88634397D01*
X194122480Y-88543071D01*
X194047913Y-88468504D01*
X193870511Y-88291102D01*
X195975000Y-88291102D01*
X195985131Y-88375467D01*
X195985131Y-88375468D01*
X196038077Y-88509729D01*
X196125278Y-88624721D01*
X196240270Y-88711922D01*
X196374532Y-88764868D01*
X196458898Y-88775000D01*
X196475000Y-88775000D01*
X196475000Y-88250000D01*
X195975000Y-88250000D01*
X195975000Y-88291102D01*
X193870511Y-88291102D01*
X193288306Y-87708897D01*
X195975000Y-87708897D01*
X195975000Y-87750000D01*
X196475000Y-87750000D01*
X196475000Y-87225000D01*
X196458898Y-87225000D01*
X196374532Y-87235131D01*
X196374531Y-87235131D01*
X196240270Y-87288077D01*
X196125278Y-87375278D01*
X196038077Y-87490270D01*
X195985131Y-87624531D01*
X195985131Y-87624532D01*
X195975000Y-87708897D01*
X193288306Y-87708897D01*
X192561233Y-86981824D01*
X192527748Y-86920501D01*
X192530983Y-86855825D01*
X192561849Y-86760828D01*
X192590178Y-86581970D01*
X192590178Y-86400867D01*
X192567823Y-86259729D01*
X192561849Y-86222010D01*
X192516517Y-86082489D01*
X192505890Y-86049782D01*
X192505889Y-86049781D01*
X192505889Y-86049780D01*
X192501467Y-86041102D01*
X194725000Y-86041102D01*
X194735131Y-86125467D01*
X194735131Y-86125468D01*
X194788077Y-86259729D01*
X194875278Y-86374721D01*
X194990270Y-86461922D01*
X195124532Y-86514868D01*
X195208898Y-86525000D01*
X195250000Y-86525000D01*
X195750000Y-86525000D01*
X195791102Y-86525000D01*
X195875467Y-86514868D01*
X195875468Y-86514868D01*
X196009729Y-86461922D01*
X196124721Y-86374721D01*
X196211922Y-86259729D01*
X196216080Y-86252335D01*
X196218054Y-86253445D01*
X196253550Y-86207824D01*
X196319457Y-86184629D01*
X196387442Y-86200748D01*
X196435920Y-86251064D01*
X196450001Y-86308456D01*
X196450001Y-86516696D01*
X196452851Y-86547106D01*
X196497653Y-86675145D01*
X196578207Y-86784292D01*
X196687354Y-86864846D01*
X196800000Y-86904261D01*
X196800000Y-86904260D01*
X197300000Y-86904260D01*
X197412645Y-86864846D01*
X197521792Y-86784292D01*
X197602346Y-86675145D01*
X197647149Y-86547104D01*
X197647149Y-86547100D01*
X197650000Y-86516706D01*
X197650000Y-86125000D01*
X197300000Y-86125000D01*
X197300000Y-86904260D01*
X196800000Y-86904260D01*
X196800000Y-86125000D01*
X196399000Y-86125000D01*
X196331961Y-86105315D01*
X196286206Y-86052511D01*
X196281672Y-86031672D01*
X196275000Y-86025000D01*
X195750000Y-86025000D01*
X195750000Y-86525000D01*
X195250000Y-86525000D01*
X195250000Y-86025000D01*
X194725000Y-86025000D01*
X194725000Y-86041102D01*
X192501467Y-86041102D01*
X192423674Y-85888425D01*
X192410074Y-85869706D01*
X192317236Y-85741924D01*
X192317232Y-85741919D01*
X192189177Y-85613864D01*
X192189172Y-85613860D01*
X192042675Y-85507425D01*
X192042674Y-85507424D01*
X192042672Y-85507423D01*
X191990978Y-85481083D01*
X191881317Y-85425207D01*
X191881314Y-85425206D01*
X191709088Y-85369248D01*
X191548999Y-85343892D01*
X191485864Y-85313963D01*
X191448933Y-85254651D01*
X191449931Y-85184789D01*
X191488541Y-85126556D01*
X191548999Y-85098946D01*
X191628649Y-85086330D01*
X191709087Y-85073590D01*
X191881317Y-85017630D01*
X192042672Y-84935415D01*
X192189179Y-84828972D01*
X192317231Y-84700920D01*
X192423674Y-84554413D01*
X192505889Y-84393058D01*
X192561849Y-84220828D01*
X192576443Y-84128678D01*
X192590178Y-84041970D01*
X192590178Y-83860867D01*
X192571982Y-83745989D01*
X192561849Y-83682010D01*
X192514078Y-83534984D01*
X192505890Y-83509782D01*
X192505889Y-83509779D01*
X192477418Y-83453903D01*
X192423674Y-83348425D01*
X192408688Y-83327798D01*
X192317236Y-83201924D01*
X192317232Y-83201919D01*
X192189177Y-83073864D01*
X192189172Y-83073860D01*
X192042675Y-82967425D01*
X192042674Y-82967424D01*
X192042672Y-82967423D01*
X191962357Y-82926500D01*
X191881317Y-82885207D01*
X191881314Y-82885206D01*
X191709088Y-82829247D01*
X191547398Y-82803638D01*
X191484263Y-82773708D01*
X191447332Y-82714397D01*
X191448330Y-82644534D01*
X191486940Y-82586302D01*
X191547399Y-82558692D01*
X191708970Y-82533102D01*
X191881122Y-82477167D01*
X191881130Y-82477164D01*
X192042408Y-82394987D01*
X192058210Y-82383504D01*
X192058211Y-82383504D01*
X191569088Y-81894381D01*
X191632671Y-81877344D01*
X191746685Y-81811518D01*
X191839777Y-81718426D01*
X191905603Y-81604412D01*
X191922640Y-81540829D01*
X192411763Y-82029952D01*
X192411763Y-82029951D01*
X192423246Y-82014149D01*
X192505423Y-81852871D01*
X192505426Y-81852863D01*
X192561360Y-81680712D01*
X192589678Y-81501925D01*
X192589678Y-81320912D01*
X192561360Y-81142125D01*
X192505426Y-80969974D01*
X192505424Y-80969971D01*
X192439167Y-80839933D01*
X192439166Y-80839931D01*
X192423252Y-80808699D01*
X192423244Y-80808686D01*
X192411763Y-80792885D01*
X191922640Y-81282008D01*
X191905603Y-81218426D01*
X191839777Y-81104412D01*
X191746685Y-81011320D01*
X191632671Y-80945494D01*
X191569087Y-80928456D01*
X192058211Y-80439332D01*
X192042408Y-80427850D01*
X191881125Y-80345671D01*
X191881122Y-80345670D01*
X191708971Y-80289736D01*
X191547398Y-80264145D01*
X191484263Y-80234216D01*
X191447332Y-80174904D01*
X191448330Y-80105042D01*
X191486940Y-80046809D01*
X191547398Y-80019199D01*
X191561948Y-80016894D01*
X191709087Y-79993590D01*
X191881317Y-79937630D01*
X192042672Y-79855415D01*
X192049031Y-79850795D01*
X192050408Y-79849795D01*
X192050409Y-79849794D01*
X192169797Y-79763054D01*
X192189179Y-79748972D01*
X192317231Y-79620920D01*
X192423674Y-79474413D01*
X192505889Y-79313058D01*
X192561849Y-79140828D01*
X192568395Y-79099500D01*
X192590178Y-78961970D01*
X192590178Y-78780867D01*
X192571967Y-78665892D01*
X192561849Y-78602010D01*
X192511572Y-78447271D01*
X192505890Y-78429782D01*
X192505889Y-78429779D01*
X192474709Y-78368586D01*
X192423674Y-78268425D01*
X192345824Y-78161273D01*
X192317236Y-78121924D01*
X192317232Y-78121919D01*
X192189177Y-77993864D01*
X192189172Y-77993860D01*
X192042675Y-77887425D01*
X192042674Y-77887424D01*
X192042672Y-77887423D01*
X191990978Y-77861083D01*
X191881317Y-77805207D01*
X191881314Y-77805206D01*
X191709088Y-77749248D01*
X191577406Y-77728391D01*
X191514272Y-77698461D01*
X191477341Y-77639150D01*
X191478339Y-77569287D01*
X191516949Y-77511055D01*
X191580913Y-77482941D01*
X191596798Y-77481918D01*
X192334542Y-77481918D01*
X192334557Y-77481916D01*
X192334560Y-77481916D01*
X192359665Y-77479005D01*
X192359666Y-77479004D01*
X192359669Y-77479004D01*
X192462443Y-77433625D01*
X192541884Y-77354184D01*
X192587263Y-77251410D01*
X192590178Y-77226284D01*
X192590177Y-76155000D01*
X192590177Y-75524500D01*
X192609861Y-75457461D01*
X192662665Y-75411706D01*
X192714177Y-75400500D01*
X195456592Y-75400500D01*
X195523631Y-75420185D01*
G37*
%TD.AperFunction*%
%TA.AperFunction,Conductor*%
G36*
X198805703Y-83862541D02*
G01*
X198812181Y-83868573D01*
X199843181Y-84899573D01*
X199876666Y-84960896D01*
X199879500Y-84987253D01*
X199879500Y-85177453D01*
X199882258Y-85206874D01*
X199882260Y-85206884D01*
X199925619Y-85330794D01*
X199925619Y-85330795D01*
X199996465Y-85426788D01*
X200020436Y-85492416D01*
X200005120Y-85560587D01*
X199996465Y-85574055D01*
X199926066Y-85669440D01*
X199926065Y-85669442D01*
X199894378Y-85759999D01*
X199894378Y-85760000D01*
X200376000Y-85760000D01*
X200443039Y-85779685D01*
X200488794Y-85832489D01*
X200500000Y-85884000D01*
X200500000Y-86010000D01*
X200626000Y-86010000D01*
X200693039Y-86029685D01*
X200738794Y-86082489D01*
X200750000Y-86134000D01*
X200750000Y-86578817D01*
X200766780Y-86577244D01*
X200890562Y-86533931D01*
X200901864Y-86525590D01*
X200967492Y-86501617D01*
X201035663Y-86516931D01*
X201084732Y-86566670D01*
X201099500Y-86625358D01*
X201099500Y-88904497D01*
X201079815Y-88971536D01*
X201027011Y-89017291D01*
X200957853Y-89027235D01*
X200901867Y-89004268D01*
X200877919Y-88986594D01*
X200752727Y-88942787D01*
X200752725Y-88942786D01*
X200750000Y-88942530D01*
X200750000Y-89396000D01*
X200730315Y-89463039D01*
X200677511Y-89508794D01*
X200626000Y-89520000D01*
X200374000Y-89520000D01*
X200306961Y-89500315D01*
X200261206Y-89447511D01*
X200250000Y-89396000D01*
X200250000Y-88942531D01*
X200242998Y-88936156D01*
X200242911Y-88936160D01*
X200230267Y-88928757D01*
X200215885Y-88925962D01*
X200200722Y-88911458D01*
X200182616Y-88900858D01*
X200172867Y-88884816D01*
X200165393Y-88877667D01*
X200162318Y-88871984D01*
X200158569Y-88864602D01*
X200124443Y-88767076D01*
X200075049Y-88700149D01*
X200070382Y-88690960D01*
X200065791Y-88666337D01*
X200057200Y-88642816D01*
X200059498Y-88632585D01*
X200057576Y-88622274D01*
X200067025Y-88599079D01*
X200072515Y-88574646D01*
X200081172Y-88561176D01*
X200123994Y-88503155D01*
X200158259Y-88405233D01*
X199684591Y-88405233D01*
X199617552Y-88385548D01*
X199571797Y-88332744D01*
X199560591Y-88281233D01*
X199560591Y-88155233D01*
X199474500Y-88155233D01*
X199407461Y-88135548D01*
X199361706Y-88082744D01*
X199350500Y-88031233D01*
X199350500Y-87905233D01*
X199810591Y-87905233D01*
X200158259Y-87905233D01*
X200123994Y-87807310D01*
X200045232Y-87700591D01*
X199938510Y-87621827D01*
X199813318Y-87578020D01*
X199813316Y-87578019D01*
X199810591Y-87577763D01*
X199810591Y-87905233D01*
X199350500Y-87905233D01*
X199350500Y-87500098D01*
X199370185Y-87433059D01*
X199386819Y-87412417D01*
X199388109Y-87411127D01*
X199430520Y-87368716D01*
X199509577Y-87231784D01*
X199550500Y-87079057D01*
X199550500Y-86920943D01*
X199509577Y-86768216D01*
X199509573Y-86768209D01*
X199506466Y-86760706D01*
X199509722Y-86759357D01*
X199497102Y-86707104D01*
X199503915Y-86672175D01*
X199547646Y-86547201D01*
X199547646Y-86547199D01*
X199550500Y-86516769D01*
X199550500Y-86260000D01*
X199894378Y-86260000D01*
X199926065Y-86350557D01*
X199926066Y-86350559D01*
X200003934Y-86456065D01*
X200109438Y-86533931D01*
X200233219Y-86577244D01*
X200249999Y-86578817D01*
X200250000Y-86578816D01*
X200250000Y-86260000D01*
X199894378Y-86260000D01*
X199550500Y-86260000D01*
X199550500Y-85233230D01*
X199547646Y-85202800D01*
X199547646Y-85202798D01*
X199507664Y-85088538D01*
X199502793Y-85074618D01*
X199422150Y-84965350D01*
X199312882Y-84884707D01*
X199312880Y-84884706D01*
X199184700Y-84839853D01*
X199154270Y-84837000D01*
X199154266Y-84837000D01*
X198745734Y-84837000D01*
X198729852Y-84838489D01*
X198725462Y-84838901D01*
X198656878Y-84825560D01*
X198606394Y-84777257D01*
X198590038Y-84709329D01*
X198596847Y-84674484D01*
X198597646Y-84672199D01*
X198600500Y-84641769D01*
X198600500Y-83956254D01*
X198620185Y-83889215D01*
X198672989Y-83843460D01*
X198742147Y-83833516D01*
X198805703Y-83862541D01*
G37*
%TD.AperFunction*%
%TA.AperFunction,Conductor*%
G36*
X209118078Y-79916493D02*
G01*
X209131040Y-79922190D01*
X209186347Y-79950371D01*
X209186350Y-79950372D01*
X209272463Y-79978351D01*
X209358578Y-80006331D01*
X209478025Y-80025249D01*
X209520266Y-80031940D01*
X209583401Y-80061869D01*
X209620332Y-80121181D01*
X209619334Y-80191043D01*
X209580724Y-80249276D01*
X209520266Y-80276886D01*
X209358693Y-80302477D01*
X209186542Y-80358411D01*
X209186534Y-80358414D01*
X209025256Y-80440592D01*
X209009453Y-80452072D01*
X209009453Y-80452073D01*
X209498578Y-80941197D01*
X209434994Y-80958235D01*
X209320980Y-81024061D01*
X209227888Y-81117153D01*
X209162062Y-81231167D01*
X209145024Y-81294750D01*
X208655899Y-80805626D01*
X208644419Y-80821429D01*
X208562241Y-80982707D01*
X208562238Y-80982715D01*
X208506304Y-81154866D01*
X208477987Y-81333653D01*
X208477987Y-81514666D01*
X208506304Y-81693453D01*
X208562238Y-81865604D01*
X208562239Y-81865607D01*
X208644418Y-82026890D01*
X208655900Y-82042692D01*
X208655900Y-82042693D01*
X209145024Y-81553569D01*
X209162062Y-81617153D01*
X209227888Y-81731167D01*
X209320980Y-81824259D01*
X209434994Y-81890085D01*
X209498577Y-81907122D01*
X209009453Y-82396245D01*
X209009453Y-82396246D01*
X209025254Y-82407726D01*
X209025262Y-82407731D01*
X209186539Y-82489907D01*
X209186542Y-82489908D01*
X209358693Y-82545842D01*
X209520266Y-82571433D01*
X209583400Y-82601362D01*
X209620332Y-82660673D01*
X209619334Y-82730536D01*
X209580725Y-82788769D01*
X209520267Y-82816379D01*
X209358576Y-82841989D01*
X209186350Y-82897947D01*
X209186347Y-82897948D01*
X209024989Y-82980166D01*
X208878492Y-83086601D01*
X208878487Y-83086605D01*
X208750432Y-83214660D01*
X208750428Y-83214665D01*
X208643993Y-83361162D01*
X208561775Y-83522520D01*
X208561774Y-83522523D01*
X208505816Y-83694749D01*
X208477487Y-83873608D01*
X208477487Y-84054711D01*
X208505815Y-84233570D01*
X208516640Y-84266883D01*
X208518635Y-84336724D01*
X208486391Y-84392881D01*
X208440466Y-84438807D01*
X208379143Y-84472293D01*
X208309452Y-84467309D01*
X208253518Y-84425439D01*
X208229100Y-84359974D01*
X208228784Y-84351127D01*
X208228784Y-80754637D01*
X208248469Y-80687598D01*
X208265099Y-80666960D01*
X208987066Y-79944992D01*
X209048387Y-79911509D01*
X209118078Y-79916493D01*
G37*
%TD.AperFunction*%
%TA.AperFunction,Conductor*%
G36*
X190973753Y-81604412D02*
G01*
X191039579Y-81718426D01*
X191132671Y-81811518D01*
X191246685Y-81877344D01*
X191310268Y-81894381D01*
X190821144Y-82383504D01*
X190821144Y-82383505D01*
X190836945Y-82394985D01*
X190836953Y-82394990D01*
X190998230Y-82477166D01*
X190998233Y-82477167D01*
X191170384Y-82533101D01*
X191331957Y-82558692D01*
X191395091Y-82588621D01*
X191432023Y-82647932D01*
X191431025Y-82717795D01*
X191392416Y-82776028D01*
X191331958Y-82803638D01*
X191170267Y-82829248D01*
X190998041Y-82885206D01*
X190998038Y-82885207D01*
X190836680Y-82967425D01*
X190690183Y-83073860D01*
X190690178Y-83073864D01*
X190612181Y-83151862D01*
X190550858Y-83185347D01*
X190481166Y-83180363D01*
X190425233Y-83138491D01*
X190400816Y-83073027D01*
X190400500Y-83064181D01*
X190400500Y-82148406D01*
X190420185Y-82081367D01*
X190436819Y-82060725D01*
X190956715Y-81540828D01*
X190973753Y-81604412D01*
G37*
%TD.AperFunction*%
%TA.AperFunction,Conductor*%
G36*
X210563181Y-82005800D02*
G01*
X210596666Y-82067123D01*
X210599500Y-82093481D01*
X210599500Y-83009257D01*
X210579815Y-83076296D01*
X210527011Y-83122051D01*
X210457853Y-83131995D01*
X210394297Y-83102970D01*
X210387819Y-83096938D01*
X210377486Y-83086605D01*
X210377481Y-83086601D01*
X210230984Y-82980166D01*
X210230983Y-82980165D01*
X210230981Y-82980164D01*
X210164294Y-82946185D01*
X210069626Y-82897948D01*
X210069623Y-82897947D01*
X209897397Y-82841988D01*
X209735707Y-82816379D01*
X209672572Y-82786449D01*
X209635641Y-82727138D01*
X209636639Y-82657275D01*
X209675249Y-82599043D01*
X209735708Y-82571433D01*
X209897279Y-82545843D01*
X210069431Y-82489908D01*
X210069439Y-82489905D01*
X210230717Y-82407728D01*
X210246519Y-82396245D01*
X210246520Y-82396245D01*
X209757397Y-81907122D01*
X209820980Y-81890085D01*
X209934994Y-81824259D01*
X210028086Y-81731167D01*
X210093912Y-81617153D01*
X210110949Y-81553569D01*
X210563181Y-82005800D01*
G37*
%TD.AperFunction*%
%TA.AperFunction,Conductor*%
G36*
X210518834Y-79722881D02*
G01*
X210574767Y-79764753D01*
X210599184Y-79830217D01*
X210599500Y-79839063D01*
X210599500Y-80754838D01*
X210579815Y-80821877D01*
X210563181Y-80842519D01*
X210110949Y-81294750D01*
X210093912Y-81231167D01*
X210028086Y-81117153D01*
X209934994Y-81024061D01*
X209820980Y-80958235D01*
X209757396Y-80941197D01*
X210246520Y-80452073D01*
X210230717Y-80440591D01*
X210069434Y-80358412D01*
X210069431Y-80358411D01*
X209897280Y-80302477D01*
X209735707Y-80276886D01*
X209672572Y-80246957D01*
X209635641Y-80187645D01*
X209636639Y-80117783D01*
X209675249Y-80059550D01*
X209735707Y-80031940D01*
X209750257Y-80029635D01*
X209897396Y-80006331D01*
X210069626Y-79950371D01*
X210230981Y-79868156D01*
X210377488Y-79761713D01*
X210387819Y-79751382D01*
X210449142Y-79717897D01*
X210518834Y-79722881D01*
G37*
%TD.AperFunction*%
%TA.AperFunction,Conductor*%
G36*
X190605703Y-79664944D02*
G01*
X190612181Y-79670976D01*
X190690178Y-79748973D01*
X190690183Y-79748977D01*
X190802002Y-79830217D01*
X190836684Y-79855415D01*
X190925168Y-79900500D01*
X190998038Y-79937630D01*
X190998041Y-79937631D01*
X191055211Y-79956206D01*
X191170269Y-79993590D01*
X191289716Y-80012508D01*
X191331957Y-80019199D01*
X191395092Y-80049128D01*
X191432023Y-80108440D01*
X191431025Y-80178302D01*
X191392415Y-80236535D01*
X191331957Y-80264145D01*
X191170384Y-80289736D01*
X190998233Y-80345670D01*
X190998225Y-80345673D01*
X190836947Y-80427851D01*
X190821144Y-80439331D01*
X190821144Y-80439332D01*
X191310269Y-80928456D01*
X191246685Y-80945494D01*
X191132671Y-81011320D01*
X191039579Y-81104412D01*
X190973753Y-81218426D01*
X190956715Y-81282009D01*
X190436819Y-80762113D01*
X190403334Y-80700790D01*
X190400500Y-80674432D01*
X190400500Y-79758657D01*
X190420185Y-79691618D01*
X190472989Y-79645863D01*
X190542147Y-79635919D01*
X190605703Y-79664944D01*
G37*
%TD.AperFunction*%
%TD*%
M02*
