%TF.GenerationSoftware,KiCad,Pcbnew,9.0.6+dfsg-1*%
%TF.CreationDate,2025-11-20T13:37:38+09:00*%
%TF.ProjectId,hiraboard,68697261-626f-4617-9264-2e6b69636164,rev?*%
%TF.SameCoordinates,Original*%
%TF.FileFunction,Copper,L2,Bot*%
%TF.FilePolarity,Positive*%
%FSLAX46Y46*%
G04 Gerber Fmt 4.6, Leading zero omitted, Abs format (unit mm)*
G04 Created by KiCad (PCBNEW 9.0.6+dfsg-1) date 2025-11-20 13:37:38*
%MOMM*%
%LPD*%
G01*
G04 APERTURE LIST*
G04 Aperture macros list*
%AMRoundRect*
0 Rectangle with rounded corners*
0 $1 Rounding radius*
0 $2 $3 $4 $5 $6 $7 $8 $9 X,Y pos of 4 corners*
0 Add a 4 corners polygon primitive as box body*
4,1,4,$2,$3,$4,$5,$6,$7,$8,$9,$2,$3,0*
0 Add four circle primitives for the rounded corners*
1,1,$1+$1,$2,$3*
1,1,$1+$1,$4,$5*
1,1,$1+$1,$6,$7*
1,1,$1+$1,$8,$9*
0 Add four rect primitives between the rounded corners*
20,1,$1+$1,$2,$3,$4,$5,0*
20,1,$1+$1,$4,$5,$6,$7,0*
20,1,$1+$1,$6,$7,$8,$9,0*
20,1,$1+$1,$8,$9,$2,$3,0*%
G04 Aperture macros list end*
%TA.AperFunction,ComponentPad*%
%ADD10C,1.700000*%
%TD*%
%TA.AperFunction,ComponentPad*%
%ADD11R,1.700000X1.700000*%
%TD*%
%TA.AperFunction,HeatsinkPad*%
%ADD12O,1.000000X2.100000*%
%TD*%
%TA.AperFunction,HeatsinkPad*%
%ADD13O,1.000000X1.600000*%
%TD*%
%TA.AperFunction,SMDPad,CuDef*%
%ADD14RoundRect,0.140000X-0.140000X-0.170000X0.140000X-0.170000X0.140000X0.170000X-0.140000X0.170000X0*%
%TD*%
%TA.AperFunction,ViaPad*%
%ADD15C,0.600000*%
%TD*%
%TA.AperFunction,Conductor*%
%ADD16C,0.200000*%
%TD*%
G04 APERTURE END LIST*
D10*
%TO.P,J2,20,Pin_20*%
%TO.N,GPIO15*%
X191439678Y-124591419D03*
%TO.P,J2,19,Pin_19*%
%TO.N,GPIO14*%
X191439678Y-122051419D03*
%TO.P,J2,18,Pin_18*%
%TO.N,GND*%
X191439678Y-119511419D03*
%TO.P,J2,17,Pin_17*%
%TO.N,GPIO13*%
X191439678Y-116971419D03*
%TO.P,J2,16,Pin_16*%
%TO.N,GPIO12*%
X191439678Y-114431419D03*
%TO.P,J2,15,Pin_15*%
%TO.N,GPIO11*%
X191439678Y-111891419D03*
%TO.P,J2,14,Pin_14*%
%TO.N,GPIO10*%
X191439678Y-109351419D03*
%TO.P,J2,13,Pin_13*%
%TO.N,GND*%
X191439678Y-106811419D03*
%TO.P,J2,12,Pin_12*%
%TO.N,GPIO9*%
X191439678Y-104271419D03*
%TO.P,J2,11,Pin_11*%
%TO.N,GPIO8*%
X191439678Y-101731419D03*
%TO.P,J2,10,Pin_10*%
%TO.N,GPIO7*%
X191439678Y-99191419D03*
%TO.P,J2,9,Pin_9*%
%TO.N,GPIO6*%
X191439678Y-96651419D03*
%TO.P,J2,8,Pin_8*%
%TO.N,GND*%
X191439678Y-94111419D03*
%TO.P,J2,7,Pin_7*%
%TO.N,GPIO5*%
X191439678Y-91571419D03*
%TO.P,J2,6,Pin_6*%
%TO.N,GPIO4*%
X191439678Y-89031419D03*
%TO.P,J2,5,Pin_5*%
%TO.N,GPIO3*%
X191439678Y-86491419D03*
%TO.P,J2,4,Pin_4*%
%TO.N,GPIO2*%
X191439678Y-83951419D03*
%TO.P,J2,3,Pin_3*%
%TO.N,GND*%
X191439678Y-81411419D03*
%TO.P,J2,2,Pin_2*%
%TO.N,GPIO1*%
X191439678Y-78871419D03*
D11*
%TO.P,J2,1,Pin_1*%
%TO.N,GPIO0*%
X191439678Y-76331419D03*
%TD*%
D10*
%TO.P,J3,20,Pin_20*%
%TO.N,GPIO16*%
X209627987Y-124604160D03*
%TO.P,J3,19,Pin_19*%
%TO.N,GPIO17*%
X209627987Y-122064160D03*
%TO.P,J3,18,Pin_18*%
%TO.N,GND*%
X209627987Y-119524160D03*
%TO.P,J3,17,Pin_17*%
%TO.N,GPIO18*%
X209627987Y-116984160D03*
%TO.P,J3,16,Pin_16*%
%TO.N,GPIO19*%
X209627987Y-114444160D03*
%TO.P,J3,15,Pin_15*%
%TO.N,GPIO20*%
X209627987Y-111904160D03*
%TO.P,J3,14,Pin_14*%
%TO.N,GPIO21*%
X209627987Y-109364160D03*
%TO.P,J3,13,Pin_13*%
%TO.N,GND*%
X209627987Y-106824160D03*
%TO.P,J3,12,Pin_12*%
%TO.N,GPIO22*%
X209627987Y-104284160D03*
%TO.P,J3,11,Pin_11*%
%TO.N,RUN*%
X209627987Y-101744160D03*
%TO.P,J3,10,Pin_10*%
%TO.N,GPIO23*%
X209627987Y-99204160D03*
%TO.P,J3,9,Pin_9*%
%TO.N,GPIO24*%
X209627987Y-96664160D03*
%TO.P,J3,8,Pin_8*%
%TO.N,GND*%
X209627987Y-94124160D03*
%TO.P,J3,7,Pin_7*%
%TO.N,GPIO26_ADC0*%
X209627987Y-91584160D03*
%TO.P,J3,6,Pin_6*%
%TO.N,GPIO27_ADC1*%
X209627987Y-89044160D03*
%TO.P,J3,5,Pin_5*%
%TO.N,+3V3*%
X209627987Y-86504160D03*
%TO.P,J3,4,Pin_4*%
%TO.N,GPIO28_ADC2*%
X209627987Y-83964160D03*
%TO.P,J3,3,Pin_3*%
%TO.N,GND*%
X209627987Y-81424160D03*
%TO.P,J3,2,Pin_2*%
%TO.N,GPIO29_ADC3*%
X209627987Y-78884160D03*
D11*
%TO.P,J3,1,Pin_1*%
%TO.N,VBUS*%
X209627987Y-76344160D03*
%TD*%
%TO.P,J4,1,Pin_1*%
%TO.N,SWCLK*%
X197960000Y-124000000D03*
D10*
%TO.P,J4,2,Pin_2*%
%TO.N,GND*%
X200500000Y-124000000D03*
%TO.P,J4,3,Pin_3*%
%TO.N,SWD*%
X203040000Y-124000000D03*
%TD*%
D12*
%TO.P,J1,S1,SHIELD*%
%TO.N,GND*%
X204820000Y-80585000D03*
D13*
X204820000Y-76405000D03*
D12*
X196180000Y-80585000D03*
D13*
X196180000Y-76405000D03*
%TD*%
D14*
%TO.P,C4,1*%
%TO.N,+3V3*%
X205520000Y-95500000D03*
%TO.P,C4,2*%
%TO.N,GND*%
X206480000Y-95500000D03*
%TD*%
%TO.P,C5,1*%
%TO.N,+3V3*%
X200020000Y-97000000D03*
%TO.P,C5,2*%
%TO.N,GND*%
X200980000Y-97000000D03*
%TD*%
%TO.P,C3,1*%
%TO.N,+3V3*%
X205520000Y-99000000D03*
%TO.P,C3,2*%
%TO.N,GND*%
X206480000Y-99000000D03*
%TD*%
%TO.P,C16,1*%
%TO.N,+3V3*%
X203520000Y-98000000D03*
%TO.P,C16,2*%
%TO.N,GND*%
X204480000Y-98000000D03*
%TD*%
D15*
%TO.N,GND*%
X194500000Y-76000000D03*
X197250000Y-93250000D03*
X195500000Y-123500000D03*
X208000000Y-110500000D03*
X204339411Y-105339411D03*
X194520000Y-99000000D03*
X201062500Y-98200000D03*
X206250000Y-90250000D03*
X201500000Y-107200000D03*
X204000000Y-92020000D03*
X203344207Y-89229221D03*
%TO.N,+3V3*%
X201620488Y-95537176D03*
X199000000Y-100000000D03*
X198950000Y-87000000D03*
X203500000Y-96000000D03*
X203500000Y-99000000D03*
X200000000Y-96000000D03*
%TO.N,+1V1*%
X204660589Y-104160589D03*
X206801000Y-89199000D03*
%TO.N,GPIO1*%
X195000000Y-95500000D03*
%TO.N,GPIO5*%
X198500000Y-98000000D03*
X193000000Y-97000000D03*
%TO.N,GPIO0*%
X194500000Y-94000000D03*
%TO.N,GPIO2*%
X198750000Y-96750000D03*
%TO.N,GPIO21*%
X207000000Y-101500000D03*
%TO.N,RUN*%
X203456511Y-100543489D03*
%TO.N,SWCLK*%
X202082078Y-100742488D03*
%TO.N,QSPI_SS*%
X198000000Y-90000000D03*
X203510000Y-91010000D03*
%TD*%
D16*
%TO.N,GND*%
X209708415Y-106791585D02*
X210399000Y-106101000D01*
X209514082Y-106791585D02*
X209708415Y-106791585D01*
X206200000Y-88950057D02*
X206200000Y-90200000D01*
X199351000Y-95351000D02*
X199351000Y-97268550D01*
X197666100Y-96599000D02*
X193992016Y-96599000D01*
X198466100Y-97399000D02*
X197666100Y-96599000D01*
X200980000Y-97000000D02*
X201500000Y-97000000D01*
X204200000Y-107200000D02*
X204339411Y-107339411D01*
X208000000Y-89548057D02*
X206985493Y-88533550D01*
X201500000Y-107200000D02*
X204200000Y-107200000D01*
X198960943Y-97611000D02*
X198748943Y-97399000D01*
X206200000Y-90200000D02*
X206250000Y-90250000D01*
X204339411Y-105339411D02*
X204339411Y-107339411D01*
X206480000Y-99000000D02*
X204480000Y-97000000D01*
X206985493Y-88533550D02*
X206616507Y-88533550D01*
X199693450Y-97611000D02*
X198960943Y-97611000D01*
X200980000Y-97000000D02*
X200369000Y-97611000D01*
X200369000Y-97611000D02*
X199693450Y-97611000D01*
X199351000Y-97268550D02*
X199693450Y-97611000D01*
X204480000Y-97000000D02*
X201500000Y-97000000D01*
X208000000Y-92577503D02*
X208000000Y-89548057D01*
X206500000Y-90500000D02*
X206500000Y-92000000D01*
X206250000Y-90250000D02*
X206500000Y-90500000D01*
X206480000Y-95500000D02*
X206480000Y-99000000D01*
X206616507Y-88533550D02*
X206200000Y-88950057D01*
X198748943Y-97399000D02*
X198466100Y-97399000D01*
X193992016Y-96599000D02*
X191514341Y-94121325D01*
X199693450Y-97611000D02*
X200000000Y-97611000D01*
%TO.N,+3V3*%
X201362176Y-95537176D02*
X197399000Y-91574000D01*
X197399000Y-91574000D02*
X197399000Y-88551000D01*
X201620488Y-95537176D02*
X201962824Y-95537176D01*
X197399000Y-88551000D02*
X198950000Y-87000000D01*
X203520000Y-98000000D02*
X203520000Y-98980000D01*
X200020000Y-96020000D02*
X200000000Y-96000000D01*
X204000000Y-95500000D02*
X203500000Y-96000000D01*
X201962824Y-95537176D02*
X202101000Y-95399000D01*
X203520000Y-98980000D02*
X203500000Y-99000000D01*
X208028415Y-86471585D02*
X205520000Y-88980000D01*
X201320164Y-95837500D02*
X200162500Y-95837500D01*
X200000000Y-99000000D02*
X199000000Y-100000000D01*
X201620488Y-95537176D02*
X201362176Y-95537176D01*
X202101000Y-95399000D02*
X202899000Y-95399000D01*
X202899000Y-95399000D02*
X203500000Y-96000000D01*
X205520000Y-88980000D02*
X205520000Y-95500000D01*
X203500000Y-99000000D02*
X200000000Y-99000000D01*
X200020000Y-97000000D02*
X200020000Y-96020000D01*
X200162500Y-95837500D02*
X200000000Y-96000000D01*
X209514082Y-86471585D02*
X208028415Y-86471585D01*
X205520000Y-99000000D02*
X203500000Y-99000000D01*
X205520000Y-95500000D02*
X204000000Y-95500000D01*
X201620488Y-95537176D02*
X201320164Y-95837500D01*
%TO.N,+1V1*%
X206801000Y-89199000D02*
X206801000Y-89801000D01*
X206801000Y-89801000D02*
X207500000Y-90500000D01*
X203389000Y-99611000D02*
X202683078Y-100316922D01*
X207500000Y-98917550D02*
X206806550Y-99611000D01*
X207500000Y-90500000D02*
X207500000Y-98917550D01*
X202683078Y-100316922D02*
X202683078Y-102183078D01*
X202683078Y-102183078D02*
X204660589Y-104160589D01*
X206806550Y-99611000D02*
X203389000Y-99611000D01*
%TO.N,GPIO1*%
X193899000Y-90033900D02*
X199466450Y-84466450D01*
X193899000Y-94399000D02*
X193899000Y-90033900D01*
X199466450Y-84466450D02*
X199466450Y-80955442D01*
X195000000Y-95500000D02*
X193899000Y-94399000D01*
X199466450Y-80955442D02*
X197392333Y-78881325D01*
X197392333Y-78881325D02*
X191514341Y-78881325D01*
%TO.N,GPIO5*%
X197500000Y-97000000D02*
X198500000Y-98000000D01*
X193000000Y-97000000D02*
X197500000Y-97000000D01*
%TO.N,GPIO0*%
X198006000Y-77506000D02*
X192679016Y-77506000D01*
X194500000Y-94000000D02*
X194500000Y-90000000D01*
X192679016Y-77506000D02*
X191514341Y-76341325D01*
X201000000Y-83500000D02*
X201000000Y-80500000D01*
X194500000Y-90000000D02*
X201000000Y-83500000D01*
X201000000Y-80500000D02*
X198006000Y-77506000D01*
%TO.N,GPIO2*%
X198198000Y-96198000D02*
X198750000Y-96750000D01*
X191514341Y-83961325D02*
X193498000Y-85944984D01*
X194848057Y-96198000D02*
X198198000Y-96198000D01*
X193498000Y-85944984D02*
X193498000Y-94847943D01*
X193498000Y-94847943D02*
X194848057Y-96198000D01*
%TO.N,GPIO21*%
X207000000Y-109000000D02*
X207000000Y-101500000D01*
X207331585Y-109331585D02*
X207000000Y-109000000D01*
X209514082Y-109331585D02*
X207331585Y-109331585D01*
%TO.N,RUN*%
X208439997Y-100637500D02*
X209514082Y-101711585D01*
X203550522Y-100637500D02*
X208439997Y-100637500D01*
X203456511Y-100543489D02*
X203550522Y-100637500D01*
%TO.N,SWCLK*%
X202082078Y-100742488D02*
X202081077Y-100743489D01*
X201256511Y-100743489D02*
X197960000Y-104040000D01*
X202081077Y-100743489D02*
X201256511Y-100743489D01*
X197960000Y-104040000D02*
X197960000Y-124000000D01*
%TO.N,QSPI_SS*%
X202500000Y-90000000D02*
X203510000Y-91010000D01*
X198000000Y-90000000D02*
X202500000Y-90000000D01*
%TO.N,GND*%
X209514082Y-94091585D02*
X208000000Y-92577503D01*
%TD*%
%TA.AperFunction,Conductor*%
%TO.N,GND*%
G36*
X206119834Y-89049072D02*
G01*
X206175767Y-89090944D01*
X206200184Y-89156408D01*
X206200500Y-89165254D01*
X206200500Y-89278057D01*
X206233041Y-89399500D01*
X206241423Y-89430783D01*
X206241426Y-89430790D01*
X206320475Y-89567709D01*
X206320481Y-89567717D01*
X206364181Y-89611417D01*
X206397666Y-89672740D01*
X206400500Y-89699098D01*
X206400500Y-89853726D01*
X206427793Y-89955589D01*
X206447786Y-89990217D01*
X206480520Y-90046913D01*
X206480522Y-90046915D01*
X207063181Y-90629574D01*
X207096666Y-90690897D01*
X207099500Y-90717255D01*
X207099500Y-94891399D01*
X207079815Y-94958438D01*
X207027011Y-95004193D01*
X206957853Y-95014137D01*
X206901866Y-94991169D01*
X206827920Y-94936594D01*
X206730000Y-94902330D01*
X206730000Y-96097667D01*
X206827922Y-96063403D01*
X206901866Y-96008830D01*
X206967494Y-95984859D01*
X207035665Y-96000174D01*
X207084733Y-96049914D01*
X207099500Y-96108600D01*
X207099500Y-98391399D01*
X207079815Y-98458438D01*
X207027011Y-98504193D01*
X206957853Y-98514137D01*
X206901866Y-98491169D01*
X206827920Y-98436594D01*
X206730000Y-98402330D01*
X206730000Y-98876000D01*
X206710315Y-98943039D01*
X206657511Y-98988794D01*
X206606000Y-99000000D01*
X206354000Y-99000000D01*
X206286961Y-98980315D01*
X206241206Y-98927511D01*
X206230000Y-98876000D01*
X206230000Y-98402330D01*
X206229999Y-98402330D01*
X206132079Y-98436594D01*
X206074055Y-98479419D01*
X206008427Y-98503390D01*
X205940256Y-98488075D01*
X205926787Y-98479419D01*
X205898359Y-98458438D01*
X205868157Y-98436148D01*
X205868155Y-98436147D01*
X205742826Y-98392291D01*
X205742814Y-98392289D01*
X205713070Y-98389500D01*
X205713066Y-98389500D01*
X205326934Y-98389500D01*
X205326930Y-98389500D01*
X205297185Y-98392289D01*
X205297173Y-98392291D01*
X205211121Y-98422403D01*
X205141342Y-98425965D01*
X205080715Y-98391237D01*
X205048487Y-98329243D01*
X205053126Y-98264402D01*
X205057213Y-98252722D01*
X205057469Y-98250000D01*
X204604000Y-98250000D01*
X204536961Y-98230315D01*
X204491206Y-98177511D01*
X204480000Y-98126000D01*
X204480000Y-98000000D01*
X204354000Y-98000000D01*
X204286961Y-97980315D01*
X204241206Y-97927511D01*
X204230000Y-97876000D01*
X204230000Y-97750000D01*
X204730000Y-97750000D01*
X205057467Y-97750000D01*
X205057212Y-97747270D01*
X205013405Y-97622080D01*
X204934641Y-97515358D01*
X204827920Y-97436594D01*
X204730000Y-97402330D01*
X204730000Y-97750000D01*
X204230000Y-97750000D01*
X204230000Y-97402330D01*
X204229999Y-97402330D01*
X204132079Y-97436594D01*
X204074055Y-97479419D01*
X204008427Y-97503390D01*
X203940256Y-97488075D01*
X203926787Y-97479419D01*
X203868761Y-97436594D01*
X203868157Y-97436148D01*
X203868155Y-97436147D01*
X203742826Y-97392291D01*
X203742814Y-97392289D01*
X203713070Y-97389500D01*
X203713066Y-97389500D01*
X203326934Y-97389500D01*
X203326930Y-97389500D01*
X203297185Y-97392289D01*
X203297173Y-97392291D01*
X203171844Y-97436147D01*
X203065001Y-97515001D01*
X202986147Y-97621844D01*
X202942291Y-97747173D01*
X202942289Y-97747185D01*
X202939500Y-97776929D01*
X202939500Y-98223070D01*
X202942289Y-98252814D01*
X202942291Y-98252826D01*
X202986147Y-98378155D01*
X202986148Y-98378157D01*
X203003647Y-98401867D01*
X203027617Y-98467496D01*
X203012301Y-98535666D01*
X202962561Y-98584734D01*
X202903876Y-98599500D01*
X200060339Y-98599500D01*
X200060323Y-98599499D01*
X200052727Y-98599499D01*
X199947273Y-98599499D01*
X199879366Y-98617695D01*
X199845412Y-98626793D01*
X199754084Y-98679522D01*
X199070426Y-99363181D01*
X199009103Y-99396666D01*
X198982745Y-99399500D01*
X198920943Y-99399500D01*
X198768216Y-99440423D01*
X198768209Y-99440426D01*
X198631290Y-99519475D01*
X198631282Y-99519481D01*
X198519481Y-99631282D01*
X198519475Y-99631290D01*
X198440426Y-99768209D01*
X198440423Y-99768216D01*
X198399500Y-99920943D01*
X198399500Y-100079057D01*
X198427329Y-100182914D01*
X198440423Y-100231783D01*
X198440426Y-100231790D01*
X198519475Y-100368709D01*
X198519479Y-100368714D01*
X198519480Y-100368716D01*
X198631284Y-100480520D01*
X198631286Y-100480521D01*
X198631290Y-100480524D01*
X198683715Y-100510791D01*
X198768216Y-100559577D01*
X198920943Y-100600500D01*
X198920945Y-100600500D01*
X199079055Y-100600500D01*
X199079057Y-100600500D01*
X199231784Y-100559577D01*
X199368716Y-100480520D01*
X199480520Y-100368716D01*
X199559577Y-100231784D01*
X199600500Y-100079057D01*
X199600500Y-100017254D01*
X199620185Y-99950215D01*
X199636819Y-99929573D01*
X200129573Y-99436819D01*
X200190896Y-99403334D01*
X200217254Y-99400500D01*
X202733745Y-99400500D01*
X202800784Y-99420185D01*
X202846539Y-99472989D01*
X202856483Y-99542147D01*
X202827458Y-99605703D01*
X202821426Y-99612181D01*
X202362600Y-100071006D01*
X202362595Y-100071012D01*
X202347690Y-100096829D01*
X202297122Y-100145044D01*
X202228514Y-100158265D01*
X202208214Y-100154602D01*
X202161135Y-100141988D01*
X202003021Y-100141988D01*
X201850294Y-100182911D01*
X201850287Y-100182914D01*
X201713368Y-100261963D01*
X201713360Y-100261969D01*
X201668660Y-100306670D01*
X201607337Y-100340155D01*
X201580979Y-100342989D01*
X201309242Y-100342989D01*
X201309238Y-100342988D01*
X201203784Y-100342988D01*
X201107768Y-100368716D01*
X201101924Y-100370282D01*
X201101146Y-100370730D01*
X201101145Y-100370731D01*
X201010595Y-100423011D01*
X197639522Y-103794084D01*
X197639518Y-103794090D01*
X197586792Y-103885413D01*
X197581550Y-103904979D01*
X197581550Y-103904981D01*
X197559500Y-103987273D01*
X197559500Y-122725500D01*
X197539815Y-122792539D01*
X197487011Y-122838294D01*
X197435500Y-122849500D01*
X197065143Y-122849500D01*
X197065117Y-122849502D01*
X197040012Y-122852413D01*
X197040008Y-122852415D01*
X196937235Y-122897793D01*
X196857794Y-122977234D01*
X196812415Y-123080006D01*
X196812415Y-123080008D01*
X196809500Y-123105131D01*
X196809500Y-124894856D01*
X196809502Y-124894882D01*
X196812413Y-124919987D01*
X196812415Y-124919991D01*
X196857793Y-125022764D01*
X196857794Y-125022765D01*
X196937235Y-125102206D01*
X197040009Y-125147585D01*
X197065135Y-125150500D01*
X198854864Y-125150499D01*
X198854879Y-125150497D01*
X198854882Y-125150497D01*
X198879987Y-125147586D01*
X198879988Y-125147585D01*
X198879991Y-125147585D01*
X198982765Y-125102206D01*
X199062206Y-125022765D01*
X199107585Y-124919991D01*
X199110500Y-124894865D01*
X199110499Y-124153925D01*
X199130183Y-124086888D01*
X199182987Y-124041133D01*
X199252146Y-124031189D01*
X199315702Y-124060214D01*
X199353476Y-124118992D01*
X199356972Y-124134529D01*
X199378317Y-124269293D01*
X199434251Y-124441444D01*
X199434252Y-124441447D01*
X199516431Y-124602730D01*
X199527913Y-124618532D01*
X199527913Y-124618533D01*
X200017037Y-124129409D01*
X200034075Y-124192993D01*
X200099901Y-124307007D01*
X200192993Y-124400099D01*
X200307007Y-124465925D01*
X200370590Y-124482962D01*
X199881466Y-124972085D01*
X199881466Y-124972086D01*
X199897267Y-124983566D01*
X199897275Y-124983571D01*
X200058552Y-125065747D01*
X200058555Y-125065748D01*
X200230706Y-125121682D01*
X200409494Y-125150000D01*
X200590506Y-125150000D01*
X200769293Y-125121682D01*
X200941444Y-125065748D01*
X200941452Y-125065745D01*
X201102730Y-124983568D01*
X201118532Y-124972085D01*
X201118533Y-124972085D01*
X200629410Y-124482962D01*
X200692993Y-124465925D01*
X200807007Y-124400099D01*
X200900099Y-124307007D01*
X200965925Y-124192993D01*
X200982962Y-124129409D01*
X201472085Y-124618532D01*
X201483568Y-124602730D01*
X201565745Y-124441452D01*
X201565748Y-124441444D01*
X201621683Y-124269292D01*
X201647273Y-124107721D01*
X201677202Y-124044586D01*
X201736513Y-124007654D01*
X201806376Y-124008652D01*
X201864609Y-124047261D01*
X201892219Y-124107720D01*
X201917828Y-124269410D01*
X201973787Y-124441636D01*
X201973788Y-124441639D01*
X202003967Y-124500867D01*
X202055869Y-124602730D01*
X202056006Y-124602997D01*
X202162441Y-124749494D01*
X202162445Y-124749499D01*
X202290500Y-124877554D01*
X202290505Y-124877558D01*
X202418287Y-124970396D01*
X202437006Y-124983996D01*
X202513094Y-125022765D01*
X202598360Y-125066211D01*
X202598363Y-125066212D01*
X202659611Y-125086112D01*
X202770591Y-125122171D01*
X202853429Y-125135291D01*
X202949449Y-125150500D01*
X202949454Y-125150500D01*
X203130551Y-125150500D01*
X203217259Y-125136765D01*
X203309409Y-125122171D01*
X203481639Y-125066211D01*
X203642994Y-124983996D01*
X203789501Y-124877553D01*
X203917553Y-124749501D01*
X204023996Y-124602994D01*
X204106211Y-124441639D01*
X204162171Y-124269409D01*
X204179100Y-124162521D01*
X204190500Y-124090551D01*
X204190500Y-123909448D01*
X204171875Y-123791862D01*
X204162171Y-123730591D01*
X204106273Y-123558552D01*
X204106212Y-123558363D01*
X204106211Y-123558360D01*
X204060805Y-123469248D01*
X204023996Y-123397006D01*
X203995693Y-123358050D01*
X203917558Y-123250505D01*
X203917554Y-123250500D01*
X203789499Y-123122445D01*
X203789494Y-123122441D01*
X203642997Y-123016006D01*
X203642996Y-123016005D01*
X203642994Y-123016004D01*
X203566906Y-122977235D01*
X203481639Y-122933788D01*
X203481636Y-122933787D01*
X203309410Y-122877829D01*
X203130551Y-122849500D01*
X203130546Y-122849500D01*
X202949454Y-122849500D01*
X202949449Y-122849500D01*
X202770589Y-122877829D01*
X202598363Y-122933787D01*
X202598360Y-122933788D01*
X202437002Y-123016006D01*
X202290505Y-123122441D01*
X202290500Y-123122445D01*
X202162445Y-123250500D01*
X202162441Y-123250505D01*
X202056006Y-123397002D01*
X201973788Y-123558360D01*
X201973787Y-123558363D01*
X201917829Y-123730589D01*
X201892219Y-123892280D01*
X201862289Y-123955414D01*
X201802978Y-123992345D01*
X201733115Y-123991347D01*
X201674883Y-123952737D01*
X201647273Y-123892279D01*
X201621682Y-123730706D01*
X201565748Y-123558555D01*
X201565747Y-123558552D01*
X201483571Y-123397275D01*
X201483566Y-123397267D01*
X201472085Y-123381466D01*
X200982962Y-123870589D01*
X200965925Y-123807007D01*
X200900099Y-123692993D01*
X200807007Y-123599901D01*
X200692993Y-123534075D01*
X200629409Y-123517037D01*
X201118533Y-123027913D01*
X201102730Y-123016431D01*
X200941447Y-122934252D01*
X200941444Y-122934251D01*
X200769293Y-122878317D01*
X200590506Y-122850000D01*
X200409494Y-122850000D01*
X200230706Y-122878317D01*
X200058555Y-122934251D01*
X200058547Y-122934254D01*
X199897269Y-123016432D01*
X199881466Y-123027912D01*
X199881466Y-123027913D01*
X200370591Y-123517037D01*
X200307007Y-123534075D01*
X200192993Y-123599901D01*
X200099901Y-123692993D01*
X200034075Y-123807007D01*
X200017037Y-123870590D01*
X199527912Y-123381466D01*
X199516432Y-123397269D01*
X199434254Y-123558547D01*
X199434251Y-123558555D01*
X199378317Y-123730706D01*
X199356972Y-123865471D01*
X199327043Y-123928606D01*
X199267731Y-123965537D01*
X199197868Y-123964539D01*
X199139636Y-123925929D01*
X199111522Y-123861965D01*
X199110499Y-123846073D01*
X199110499Y-123105143D01*
X199110499Y-123105136D01*
X199107585Y-123080009D01*
X199062206Y-122977235D01*
X198982765Y-122897794D01*
X198938654Y-122878317D01*
X198879992Y-122852415D01*
X198854868Y-122849500D01*
X198854865Y-122849500D01*
X198484500Y-122849500D01*
X198417461Y-122829815D01*
X198371706Y-122777011D01*
X198360500Y-122725500D01*
X198360500Y-104257254D01*
X198380185Y-104190215D01*
X198396819Y-104169573D01*
X201386084Y-101180308D01*
X201413011Y-101165604D01*
X201438830Y-101149012D01*
X201445030Y-101148120D01*
X201447407Y-101146823D01*
X201473765Y-101143989D01*
X201582981Y-101143989D01*
X201650020Y-101163674D01*
X201670662Y-101180308D01*
X201713362Y-101223008D01*
X201713364Y-101223009D01*
X201713368Y-101223012D01*
X201829019Y-101289782D01*
X201850294Y-101302065D01*
X202003021Y-101342988D01*
X202003023Y-101342988D01*
X202158578Y-101342988D01*
X202225617Y-101362673D01*
X202271372Y-101415477D01*
X202282578Y-101466988D01*
X202282578Y-102235804D01*
X202309871Y-102337667D01*
X202325268Y-102364335D01*
X202362598Y-102428991D01*
X202362600Y-102428993D01*
X204023770Y-104090163D01*
X204057255Y-104151486D01*
X204060089Y-104177844D01*
X204060089Y-104239646D01*
X204096280Y-104374711D01*
X204101012Y-104392372D01*
X204101015Y-104392379D01*
X204180064Y-104529298D01*
X204180068Y-104529303D01*
X204180069Y-104529305D01*
X204291873Y-104641109D01*
X204291875Y-104641110D01*
X204291879Y-104641113D01*
X204416488Y-104713055D01*
X204428805Y-104720166D01*
X204581532Y-104761089D01*
X204581534Y-104761089D01*
X204739644Y-104761089D01*
X204739646Y-104761089D01*
X204892373Y-104720166D01*
X205029305Y-104641109D01*
X205141109Y-104529305D01*
X205220166Y-104392373D01*
X205261089Y-104239646D01*
X205261089Y-104081532D01*
X205220166Y-103928805D01*
X205170352Y-103842523D01*
X205141113Y-103791879D01*
X205141107Y-103791871D01*
X205029306Y-103680070D01*
X205029298Y-103680064D01*
X204892379Y-103601015D01*
X204892375Y-103601013D01*
X204892373Y-103601012D01*
X204739646Y-103560089D01*
X204739645Y-103560089D01*
X204677844Y-103560089D01*
X204610805Y-103540404D01*
X204590163Y-103523770D01*
X203119897Y-102053504D01*
X203086412Y-101992181D01*
X203083578Y-101965823D01*
X203083578Y-101226844D01*
X203103263Y-101159805D01*
X203156067Y-101114050D01*
X203225225Y-101104106D01*
X203239648Y-101107064D01*
X203377454Y-101143989D01*
X203377457Y-101143989D01*
X203535566Y-101143989D01*
X203535568Y-101143989D01*
X203688295Y-101103066D01*
X203772220Y-101054612D01*
X203834218Y-101038000D01*
X206358564Y-101038000D01*
X206425603Y-101057685D01*
X206471358Y-101110489D01*
X206481302Y-101179647D01*
X206465951Y-101224000D01*
X206440424Y-101268213D01*
X206440423Y-101268216D01*
X206399500Y-101420943D01*
X206399500Y-101579057D01*
X206419478Y-101653614D01*
X206440423Y-101731783D01*
X206440426Y-101731790D01*
X206519475Y-101868709D01*
X206519481Y-101868717D01*
X206563181Y-101912417D01*
X206596666Y-101973740D01*
X206599500Y-102000098D01*
X206599500Y-109052726D01*
X206626793Y-109154589D01*
X206653156Y-109200250D01*
X206679520Y-109245913D01*
X207085672Y-109652065D01*
X207176997Y-109704792D01*
X207278858Y-109732085D01*
X208448388Y-109732085D01*
X208515427Y-109751770D01*
X208558813Y-109801840D01*
X208559564Y-109801458D01*
X208561108Y-109804489D01*
X208561182Y-109804574D01*
X208561360Y-109804983D01*
X208561776Y-109805799D01*
X208637499Y-109954413D01*
X208643993Y-109967157D01*
X208750428Y-110113654D01*
X208750432Y-110113659D01*
X208878487Y-110241714D01*
X208878492Y-110241718D01*
X208972774Y-110310217D01*
X209024993Y-110348156D01*
X209130471Y-110401900D01*
X209186347Y-110430371D01*
X209186350Y-110430372D01*
X209272463Y-110458351D01*
X209358578Y-110486331D01*
X209431626Y-110497900D01*
X209518665Y-110511687D01*
X209581800Y-110541616D01*
X209618731Y-110600928D01*
X209617733Y-110670791D01*
X209579123Y-110729023D01*
X209518665Y-110756633D01*
X209358576Y-110781989D01*
X209186350Y-110837947D01*
X209186347Y-110837948D01*
X209024989Y-110920166D01*
X208878492Y-111026601D01*
X208878487Y-111026605D01*
X208750432Y-111154660D01*
X208750428Y-111154665D01*
X208643993Y-111301162D01*
X208561775Y-111462520D01*
X208561774Y-111462523D01*
X208505816Y-111634749D01*
X208477487Y-111813608D01*
X208477487Y-111994711D01*
X208505816Y-112173570D01*
X208561774Y-112345796D01*
X208561775Y-112345799D01*
X208643993Y-112507157D01*
X208750428Y-112653654D01*
X208750432Y-112653659D01*
X208878487Y-112781714D01*
X208878492Y-112781718D01*
X208972774Y-112850217D01*
X209024993Y-112888156D01*
X209130471Y-112941900D01*
X209186347Y-112970371D01*
X209186350Y-112970372D01*
X209272463Y-112998351D01*
X209358578Y-113026331D01*
X209431626Y-113037900D01*
X209518665Y-113051687D01*
X209581800Y-113081616D01*
X209618731Y-113140928D01*
X209617733Y-113210791D01*
X209579123Y-113269023D01*
X209518665Y-113296633D01*
X209358576Y-113321989D01*
X209186350Y-113377947D01*
X209186347Y-113377948D01*
X209024989Y-113460166D01*
X208878492Y-113566601D01*
X208878487Y-113566605D01*
X208750432Y-113694660D01*
X208750428Y-113694665D01*
X208643993Y-113841162D01*
X208561775Y-114002520D01*
X208561774Y-114002523D01*
X208505816Y-114174749D01*
X208477487Y-114353608D01*
X208477487Y-114534711D01*
X208505816Y-114713570D01*
X208561774Y-114885796D01*
X208561775Y-114885799D01*
X208643993Y-115047157D01*
X208750428Y-115193654D01*
X208750432Y-115193659D01*
X208878487Y-115321714D01*
X208878492Y-115321718D01*
X208972774Y-115390217D01*
X209024993Y-115428156D01*
X209130471Y-115481900D01*
X209186347Y-115510371D01*
X209186350Y-115510372D01*
X209272463Y-115538351D01*
X209358578Y-115566331D01*
X209431626Y-115577900D01*
X209518665Y-115591687D01*
X209581800Y-115621616D01*
X209618731Y-115680928D01*
X209617733Y-115750791D01*
X209579123Y-115809023D01*
X209518665Y-115836633D01*
X209358576Y-115861989D01*
X209186350Y-115917947D01*
X209186347Y-115917948D01*
X209024989Y-116000166D01*
X208878492Y-116106601D01*
X208878487Y-116106605D01*
X208750432Y-116234660D01*
X208750428Y-116234665D01*
X208643993Y-116381162D01*
X208561775Y-116542520D01*
X208561774Y-116542523D01*
X208505816Y-116714749D01*
X208477487Y-116893608D01*
X208477487Y-117074711D01*
X208505816Y-117253570D01*
X208561774Y-117425796D01*
X208561775Y-117425799D01*
X208643993Y-117587157D01*
X208750428Y-117733654D01*
X208750432Y-117733659D01*
X208878487Y-117861714D01*
X208878492Y-117861718D01*
X208972774Y-117930217D01*
X209024993Y-117968156D01*
X209130471Y-118021900D01*
X209186347Y-118050371D01*
X209186350Y-118050372D01*
X209272463Y-118078351D01*
X209358578Y-118106331D01*
X209478025Y-118125249D01*
X209520266Y-118131940D01*
X209583401Y-118161869D01*
X209620332Y-118221181D01*
X209619334Y-118291043D01*
X209580724Y-118349276D01*
X209520266Y-118376886D01*
X209358693Y-118402477D01*
X209186542Y-118458411D01*
X209186534Y-118458414D01*
X209025256Y-118540592D01*
X209009453Y-118552072D01*
X209009453Y-118552073D01*
X209498578Y-119041197D01*
X209434994Y-119058235D01*
X209320980Y-119124061D01*
X209227888Y-119217153D01*
X209162062Y-119331167D01*
X209145024Y-119394750D01*
X208655899Y-118905626D01*
X208644419Y-118921429D01*
X208562241Y-119082707D01*
X208562238Y-119082715D01*
X208506304Y-119254866D01*
X208477987Y-119433653D01*
X208477987Y-119614666D01*
X208506304Y-119793453D01*
X208562238Y-119965604D01*
X208562239Y-119965607D01*
X208644418Y-120126890D01*
X208655900Y-120142692D01*
X208655900Y-120142693D01*
X209145024Y-119653569D01*
X209162062Y-119717153D01*
X209227888Y-119831167D01*
X209320980Y-119924259D01*
X209434994Y-119990085D01*
X209498577Y-120007122D01*
X209009453Y-120496245D01*
X209009453Y-120496246D01*
X209025254Y-120507726D01*
X209025262Y-120507731D01*
X209186539Y-120589907D01*
X209186542Y-120589908D01*
X209358693Y-120645842D01*
X209520266Y-120671433D01*
X209583400Y-120701362D01*
X209620332Y-120760673D01*
X209619334Y-120830536D01*
X209580725Y-120888769D01*
X209520267Y-120916379D01*
X209358576Y-120941989D01*
X209186350Y-120997947D01*
X209186347Y-120997948D01*
X209024989Y-121080166D01*
X208878492Y-121186601D01*
X208878487Y-121186605D01*
X208750432Y-121314660D01*
X208750428Y-121314665D01*
X208643993Y-121461162D01*
X208561775Y-121622520D01*
X208561774Y-121622523D01*
X208505816Y-121794749D01*
X208477487Y-121973608D01*
X208477487Y-122154711D01*
X208505816Y-122333570D01*
X208561774Y-122505796D01*
X208561775Y-122505799D01*
X208643993Y-122667157D01*
X208750428Y-122813654D01*
X208750432Y-122813659D01*
X208878487Y-122941714D01*
X208878492Y-122941718D01*
X208927378Y-122977235D01*
X209024993Y-123048156D01*
X209130471Y-123101900D01*
X209186347Y-123130371D01*
X209186350Y-123130372D01*
X209272463Y-123158351D01*
X209358578Y-123186331D01*
X209431626Y-123197900D01*
X209518665Y-123211687D01*
X209581800Y-123241616D01*
X209618731Y-123300928D01*
X209617733Y-123370791D01*
X209579123Y-123429023D01*
X209518665Y-123456633D01*
X209358576Y-123481989D01*
X209186350Y-123537947D01*
X209186347Y-123537948D01*
X209024989Y-123620166D01*
X208878492Y-123726601D01*
X208878487Y-123726605D01*
X208750432Y-123854660D01*
X208750428Y-123854665D01*
X208643993Y-124001162D01*
X208561775Y-124162520D01*
X208561774Y-124162523D01*
X208505816Y-124334749D01*
X208477487Y-124513608D01*
X208477487Y-124694711D01*
X208505816Y-124873570D01*
X208561774Y-125045796D01*
X208561775Y-125045799D01*
X208643993Y-125207157D01*
X208750428Y-125353654D01*
X208750432Y-125353659D01*
X208784592Y-125387819D01*
X208818077Y-125449142D01*
X208813093Y-125518834D01*
X208771221Y-125574767D01*
X208705757Y-125599184D01*
X208696911Y-125599500D01*
X192358013Y-125599500D01*
X192290974Y-125579815D01*
X192245219Y-125527011D01*
X192235275Y-125457853D01*
X192264300Y-125394297D01*
X192270332Y-125387819D01*
X192317231Y-125340920D01*
X192423674Y-125194413D01*
X192505889Y-125033058D01*
X192561849Y-124860828D01*
X192576443Y-124768678D01*
X192590178Y-124681970D01*
X192590178Y-124500867D01*
X192566845Y-124353553D01*
X192561849Y-124322010D01*
X192519930Y-124192993D01*
X192505890Y-124149782D01*
X192505889Y-124149779D01*
X192463112Y-124065826D01*
X192423674Y-123988425D01*
X192353821Y-123892280D01*
X192317236Y-123841924D01*
X192317232Y-123841919D01*
X192189177Y-123713864D01*
X192189172Y-123713860D01*
X192042675Y-123607425D01*
X192042674Y-123607424D01*
X192042672Y-123607423D01*
X191990978Y-123581083D01*
X191881317Y-123525207D01*
X191881314Y-123525206D01*
X191709088Y-123469248D01*
X191548999Y-123443892D01*
X191485864Y-123413963D01*
X191448933Y-123354651D01*
X191449931Y-123284789D01*
X191488541Y-123226556D01*
X191548999Y-123198946D01*
X191628649Y-123186330D01*
X191709087Y-123173590D01*
X191881317Y-123117630D01*
X192042672Y-123035415D01*
X192189179Y-122928972D01*
X192317231Y-122800920D01*
X192423674Y-122654413D01*
X192505889Y-122493058D01*
X192561849Y-122320828D01*
X192576443Y-122228678D01*
X192590178Y-122141970D01*
X192590178Y-121960867D01*
X192573697Y-121856816D01*
X192561849Y-121782010D01*
X192533869Y-121695895D01*
X192505890Y-121609782D01*
X192505889Y-121609779D01*
X192477418Y-121553903D01*
X192423674Y-121448425D01*
X192410074Y-121429706D01*
X192317236Y-121301924D01*
X192317232Y-121301919D01*
X192189177Y-121173864D01*
X192189172Y-121173860D01*
X192042675Y-121067425D01*
X192042674Y-121067424D01*
X192042672Y-121067423D01*
X191990978Y-121041083D01*
X191881317Y-120985207D01*
X191881314Y-120985206D01*
X191709088Y-120929247D01*
X191547398Y-120903638D01*
X191484263Y-120873708D01*
X191447332Y-120814397D01*
X191448330Y-120744534D01*
X191486940Y-120686302D01*
X191547399Y-120658692D01*
X191708970Y-120633102D01*
X191881122Y-120577167D01*
X191881130Y-120577164D01*
X192042408Y-120494987D01*
X192058210Y-120483504D01*
X192058211Y-120483504D01*
X191569088Y-119994381D01*
X191632671Y-119977344D01*
X191746685Y-119911518D01*
X191839777Y-119818426D01*
X191905603Y-119704412D01*
X191922640Y-119640829D01*
X192411763Y-120129952D01*
X192411763Y-120129951D01*
X192423246Y-120114149D01*
X192505423Y-119952871D01*
X192505426Y-119952863D01*
X192561360Y-119780712D01*
X192589678Y-119601925D01*
X192589678Y-119420912D01*
X192561360Y-119242125D01*
X192505426Y-119069974D01*
X192505425Y-119069971D01*
X192423249Y-118908694D01*
X192423244Y-118908686D01*
X192411763Y-118892885D01*
X191922640Y-119382008D01*
X191905603Y-119318426D01*
X191839777Y-119204412D01*
X191746685Y-119111320D01*
X191632671Y-119045494D01*
X191569087Y-119028456D01*
X192058211Y-118539332D01*
X192042408Y-118527850D01*
X191881125Y-118445671D01*
X191881122Y-118445670D01*
X191708971Y-118389736D01*
X191547398Y-118364145D01*
X191484263Y-118334216D01*
X191447332Y-118274904D01*
X191448330Y-118205042D01*
X191486940Y-118146809D01*
X191547398Y-118119199D01*
X191561948Y-118116894D01*
X191709087Y-118093590D01*
X191881317Y-118037630D01*
X192042672Y-117955415D01*
X192189179Y-117848972D01*
X192317231Y-117720920D01*
X192423674Y-117574413D01*
X192505889Y-117413058D01*
X192561849Y-117240828D01*
X192576443Y-117148678D01*
X192590178Y-117061970D01*
X192590178Y-116880867D01*
X192573697Y-116776816D01*
X192561849Y-116702010D01*
X192533869Y-116615895D01*
X192505890Y-116529782D01*
X192505889Y-116529779D01*
X192477418Y-116473903D01*
X192423674Y-116368425D01*
X192410074Y-116349706D01*
X192317236Y-116221924D01*
X192317232Y-116221919D01*
X192189177Y-116093864D01*
X192189172Y-116093860D01*
X192042675Y-115987425D01*
X192042674Y-115987424D01*
X192042672Y-115987423D01*
X191990978Y-115961083D01*
X191881317Y-115905207D01*
X191881314Y-115905206D01*
X191709088Y-115849248D01*
X191548999Y-115823892D01*
X191485864Y-115793963D01*
X191448933Y-115734651D01*
X191449931Y-115664789D01*
X191488541Y-115606556D01*
X191548999Y-115578946D01*
X191628649Y-115566330D01*
X191709087Y-115553590D01*
X191881317Y-115497630D01*
X192042672Y-115415415D01*
X192189179Y-115308972D01*
X192317231Y-115180920D01*
X192423674Y-115034413D01*
X192505889Y-114873058D01*
X192561849Y-114700828D01*
X192576443Y-114608678D01*
X192590178Y-114521970D01*
X192590178Y-114340867D01*
X192573697Y-114236816D01*
X192561849Y-114162010D01*
X192533869Y-114075895D01*
X192505890Y-113989782D01*
X192505889Y-113989779D01*
X192477418Y-113933903D01*
X192423674Y-113828425D01*
X192410074Y-113809706D01*
X192317236Y-113681924D01*
X192317232Y-113681919D01*
X192189177Y-113553864D01*
X192189172Y-113553860D01*
X192042675Y-113447425D01*
X192042674Y-113447424D01*
X192042672Y-113447423D01*
X191990978Y-113421083D01*
X191881317Y-113365207D01*
X191881314Y-113365206D01*
X191709088Y-113309248D01*
X191548999Y-113283892D01*
X191485864Y-113253963D01*
X191448933Y-113194651D01*
X191449931Y-113124789D01*
X191488541Y-113066556D01*
X191548999Y-113038946D01*
X191628649Y-113026330D01*
X191709087Y-113013590D01*
X191881317Y-112957630D01*
X192042672Y-112875415D01*
X192189179Y-112768972D01*
X192317231Y-112640920D01*
X192423674Y-112494413D01*
X192505889Y-112333058D01*
X192561849Y-112160828D01*
X192576443Y-112068678D01*
X192590178Y-111981970D01*
X192590178Y-111800867D01*
X192573697Y-111696816D01*
X192561849Y-111622010D01*
X192533869Y-111535895D01*
X192505890Y-111449782D01*
X192505889Y-111449779D01*
X192477418Y-111393903D01*
X192423674Y-111288425D01*
X192410074Y-111269706D01*
X192317236Y-111141924D01*
X192317232Y-111141919D01*
X192189177Y-111013864D01*
X192189172Y-111013860D01*
X192042675Y-110907425D01*
X192042674Y-110907424D01*
X192042672Y-110907423D01*
X191990978Y-110881083D01*
X191881317Y-110825207D01*
X191881314Y-110825206D01*
X191709088Y-110769248D01*
X191548999Y-110743892D01*
X191485864Y-110713963D01*
X191448933Y-110654651D01*
X191449931Y-110584789D01*
X191488541Y-110526556D01*
X191548999Y-110498946D01*
X191628649Y-110486330D01*
X191709087Y-110473590D01*
X191881317Y-110417630D01*
X192042672Y-110335415D01*
X192189179Y-110228972D01*
X192317231Y-110100920D01*
X192423674Y-109954413D01*
X192505889Y-109793058D01*
X192561849Y-109620828D01*
X192576443Y-109528678D01*
X192590178Y-109441970D01*
X192590178Y-109260867D01*
X192573344Y-109154588D01*
X192561849Y-109082010D01*
X192518071Y-108947273D01*
X192505890Y-108909782D01*
X192505889Y-108909779D01*
X192454591Y-108809103D01*
X192423674Y-108748425D01*
X192410074Y-108729706D01*
X192317236Y-108601924D01*
X192317232Y-108601919D01*
X192189177Y-108473864D01*
X192189172Y-108473860D01*
X192042675Y-108367425D01*
X192042674Y-108367424D01*
X192042672Y-108367423D01*
X191990978Y-108341083D01*
X191881317Y-108285207D01*
X191881314Y-108285206D01*
X191709088Y-108229247D01*
X191547398Y-108203638D01*
X191484263Y-108173708D01*
X191447332Y-108114397D01*
X191448330Y-108044534D01*
X191486940Y-107986302D01*
X191547399Y-107958692D01*
X191708970Y-107933102D01*
X191881122Y-107877167D01*
X191881130Y-107877164D01*
X192042408Y-107794987D01*
X192058210Y-107783504D01*
X192058211Y-107783504D01*
X191569088Y-107294381D01*
X191632671Y-107277344D01*
X191746685Y-107211518D01*
X191839777Y-107118426D01*
X191905603Y-107004412D01*
X191922640Y-106940829D01*
X192411763Y-107429952D01*
X192411763Y-107429951D01*
X192423246Y-107414149D01*
X192505423Y-107252871D01*
X192505426Y-107252863D01*
X192561360Y-107080712D01*
X192589678Y-106901925D01*
X192589678Y-106720912D01*
X192561360Y-106542125D01*
X192505426Y-106369974D01*
X192505425Y-106369971D01*
X192423249Y-106208694D01*
X192423244Y-106208686D01*
X192411763Y-106192885D01*
X191922640Y-106682008D01*
X191905603Y-106618426D01*
X191839777Y-106504412D01*
X191746685Y-106411320D01*
X191632671Y-106345494D01*
X191569087Y-106328456D01*
X192058211Y-105839332D01*
X192042408Y-105827850D01*
X191881125Y-105745671D01*
X191881122Y-105745670D01*
X191708971Y-105689736D01*
X191547398Y-105664145D01*
X191484263Y-105634216D01*
X191447332Y-105574904D01*
X191448330Y-105505042D01*
X191486940Y-105446809D01*
X191547398Y-105419199D01*
X191561948Y-105416894D01*
X191709087Y-105393590D01*
X191881317Y-105337630D01*
X192042672Y-105255415D01*
X192189179Y-105148972D01*
X192317231Y-105020920D01*
X192423674Y-104874413D01*
X192505889Y-104713058D01*
X192561849Y-104540828D01*
X192585362Y-104392373D01*
X192590178Y-104361970D01*
X192590178Y-104180867D01*
X192573697Y-104076816D01*
X192561849Y-104002010D01*
X192523965Y-103885412D01*
X192505890Y-103829782D01*
X192505889Y-103829779D01*
X192477418Y-103773903D01*
X192423674Y-103668425D01*
X192330662Y-103540404D01*
X192317236Y-103521924D01*
X192317232Y-103521919D01*
X192189177Y-103393864D01*
X192189172Y-103393860D01*
X192042675Y-103287425D01*
X192042674Y-103287424D01*
X192042672Y-103287423D01*
X191990978Y-103261083D01*
X191881317Y-103205207D01*
X191881314Y-103205206D01*
X191709088Y-103149248D01*
X191548999Y-103123892D01*
X191485864Y-103093963D01*
X191448933Y-103034651D01*
X191449931Y-102964789D01*
X191488541Y-102906556D01*
X191548999Y-102878946D01*
X191628649Y-102866330D01*
X191709087Y-102853590D01*
X191881317Y-102797630D01*
X192042672Y-102715415D01*
X192189179Y-102608972D01*
X192317231Y-102480920D01*
X192423674Y-102334413D01*
X192505889Y-102173058D01*
X192561849Y-102000828D01*
X192576443Y-101908678D01*
X192590178Y-101821970D01*
X192590178Y-101640867D01*
X192573697Y-101536816D01*
X192561849Y-101462010D01*
X192509881Y-101302065D01*
X192505890Y-101289782D01*
X192505889Y-101289779D01*
X192471866Y-101223006D01*
X192423674Y-101128425D01*
X192326488Y-100994659D01*
X192317236Y-100981924D01*
X192317232Y-100981919D01*
X192189177Y-100853864D01*
X192189172Y-100853860D01*
X192042675Y-100747425D01*
X192042674Y-100747424D01*
X192042672Y-100747423D01*
X191990978Y-100721083D01*
X191881317Y-100665207D01*
X191881314Y-100665206D01*
X191709088Y-100609248D01*
X191548999Y-100583892D01*
X191485864Y-100553963D01*
X191448933Y-100494651D01*
X191449931Y-100424789D01*
X191488541Y-100366556D01*
X191548999Y-100338946D01*
X191628649Y-100326330D01*
X191709087Y-100313590D01*
X191881317Y-100257630D01*
X192042672Y-100175415D01*
X192189179Y-100068972D01*
X192317231Y-99940920D01*
X192423674Y-99794413D01*
X192505889Y-99633058D01*
X192561849Y-99460828D01*
X192577315Y-99363181D01*
X192590178Y-99281970D01*
X192590178Y-99100867D01*
X192573697Y-98996816D01*
X192561849Y-98922010D01*
X192514712Y-98776934D01*
X192505890Y-98749782D01*
X192505889Y-98749779D01*
X192477418Y-98693903D01*
X192423674Y-98588425D01*
X192385343Y-98535666D01*
X192317236Y-98441924D01*
X192317232Y-98441919D01*
X192189177Y-98313864D01*
X192189172Y-98313860D01*
X192042675Y-98207425D01*
X192042674Y-98207424D01*
X192042672Y-98207423D01*
X191983967Y-98177511D01*
X191881317Y-98125207D01*
X191881314Y-98125206D01*
X191709088Y-98069248D01*
X191548999Y-98043892D01*
X191485864Y-98013963D01*
X191448933Y-97954651D01*
X191449931Y-97884789D01*
X191488541Y-97826556D01*
X191548999Y-97798946D01*
X191628649Y-97786330D01*
X191709087Y-97773590D01*
X191881317Y-97717630D01*
X192042672Y-97635415D01*
X192189179Y-97528972D01*
X192317231Y-97400920D01*
X192330551Y-97382585D01*
X192385880Y-97339919D01*
X192455493Y-97333938D01*
X192517289Y-97366542D01*
X192518552Y-97367788D01*
X192519480Y-97368716D01*
X192631284Y-97480520D01*
X192631286Y-97480521D01*
X192631290Y-97480524D01*
X192716460Y-97529696D01*
X192768216Y-97559577D01*
X192920943Y-97600500D01*
X192920945Y-97600500D01*
X193079055Y-97600500D01*
X193079057Y-97600500D01*
X193231784Y-97559577D01*
X193368716Y-97480520D01*
X193412417Y-97436819D01*
X193473740Y-97403334D01*
X193500098Y-97400500D01*
X197282745Y-97400500D01*
X197349784Y-97420185D01*
X197370426Y-97436819D01*
X197863181Y-97929573D01*
X197896666Y-97990896D01*
X197899500Y-98017254D01*
X197899500Y-98079057D01*
X197940030Y-98230315D01*
X197940423Y-98231783D01*
X197940426Y-98231790D01*
X198019475Y-98368709D01*
X198019479Y-98368714D01*
X198019480Y-98368716D01*
X198131284Y-98480520D01*
X198131286Y-98480521D01*
X198131290Y-98480524D01*
X198268209Y-98559573D01*
X198268216Y-98559577D01*
X198420943Y-98600500D01*
X198420945Y-98600500D01*
X198579055Y-98600500D01*
X198579057Y-98600500D01*
X198731784Y-98559577D01*
X198868716Y-98480520D01*
X198980520Y-98368716D01*
X199059577Y-98231784D01*
X199100500Y-98079057D01*
X199100500Y-97920943D01*
X199059577Y-97768216D01*
X199037728Y-97730372D01*
X198980524Y-97631290D01*
X198980518Y-97631282D01*
X198878932Y-97529696D01*
X198845447Y-97468373D01*
X198850431Y-97398681D01*
X198892303Y-97342748D01*
X198934518Y-97322241D01*
X198981784Y-97309577D01*
X199118716Y-97230520D01*
X199227819Y-97121417D01*
X199289142Y-97087932D01*
X199358834Y-97092916D01*
X199414767Y-97134788D01*
X199439184Y-97200252D01*
X199439500Y-97209098D01*
X199439500Y-97223070D01*
X199442289Y-97252814D01*
X199442291Y-97252826D01*
X199486147Y-97378155D01*
X199486148Y-97378157D01*
X199565001Y-97484999D01*
X199671843Y-97563852D01*
X199710003Y-97577204D01*
X199797173Y-97607708D01*
X199797177Y-97607708D01*
X199797181Y-97607710D01*
X199812057Y-97609105D01*
X199826930Y-97610500D01*
X199826934Y-97610500D01*
X200213070Y-97610500D01*
X200226289Y-97609260D01*
X200242819Y-97607710D01*
X200242823Y-97607708D01*
X200242826Y-97607708D01*
X200291836Y-97590557D01*
X200368157Y-97563852D01*
X200426789Y-97520578D01*
X200492415Y-97496609D01*
X200560586Y-97511924D01*
X200574056Y-97520581D01*
X200632077Y-97563403D01*
X200730000Y-97597668D01*
X200730000Y-97597667D01*
X201230000Y-97597667D01*
X201327922Y-97563403D01*
X201434641Y-97484641D01*
X201513405Y-97377919D01*
X201557212Y-97252727D01*
X201557213Y-97252725D01*
X201557469Y-97250000D01*
X201230000Y-97250000D01*
X201230000Y-97597667D01*
X200730000Y-97597667D01*
X200730000Y-97124000D01*
X200749685Y-97056961D01*
X200802489Y-97011206D01*
X200854000Y-97000000D01*
X200980000Y-97000000D01*
X200980000Y-96874000D01*
X200999685Y-96806961D01*
X201052489Y-96761206D01*
X201104000Y-96750000D01*
X201557467Y-96750000D01*
X201557212Y-96747270D01*
X201513405Y-96622080D01*
X201434642Y-96515360D01*
X201349658Y-96452638D01*
X201307408Y-96396990D01*
X201301951Y-96327333D01*
X201335018Y-96265784D01*
X201374134Y-96239029D01*
X201382445Y-96235440D01*
X201474752Y-96210707D01*
X201566077Y-96157980D01*
X201569310Y-96154746D01*
X201585311Y-96147837D01*
X201606034Y-96145295D01*
X201634470Y-96137676D01*
X201699543Y-96137676D01*
X201699545Y-96137676D01*
X201852272Y-96096753D01*
X201989204Y-96017696D01*
X202065374Y-95941525D01*
X202086222Y-95924758D01*
X202102403Y-95914403D01*
X202117412Y-95910383D01*
X202208737Y-95857656D01*
X202240090Y-95826302D01*
X202251422Y-95819052D01*
X202272568Y-95812888D01*
X202291897Y-95802334D01*
X202318255Y-95799500D01*
X202681745Y-95799500D01*
X202748784Y-95819185D01*
X202769426Y-95835819D01*
X202863181Y-95929574D01*
X202896666Y-95990897D01*
X202899500Y-96017255D01*
X202899500Y-96079057D01*
X202934776Y-96210707D01*
X202940423Y-96231783D01*
X202940426Y-96231790D01*
X203019475Y-96368709D01*
X203019479Y-96368714D01*
X203019480Y-96368716D01*
X203131284Y-96480520D01*
X203131286Y-96480521D01*
X203131290Y-96480524D01*
X203239301Y-96542883D01*
X203268216Y-96559577D01*
X203420943Y-96600500D01*
X203420945Y-96600500D01*
X203579055Y-96600500D01*
X203579057Y-96600500D01*
X203731784Y-96559577D01*
X203868716Y-96480520D01*
X203980520Y-96368716D01*
X204059577Y-96231784D01*
X204100500Y-96079057D01*
X204100500Y-96024500D01*
X204120185Y-95957461D01*
X204172989Y-95911706D01*
X204224500Y-95900500D01*
X204940040Y-95900500D01*
X205007079Y-95920185D01*
X205039809Y-95950865D01*
X205065001Y-95984999D01*
X205171843Y-96063852D01*
X205210003Y-96077204D01*
X205297173Y-96107708D01*
X205297177Y-96107708D01*
X205297181Y-96107710D01*
X205312057Y-96109105D01*
X205326930Y-96110500D01*
X205326934Y-96110500D01*
X205713070Y-96110500D01*
X205726289Y-96109260D01*
X205742819Y-96107710D01*
X205742823Y-96107708D01*
X205742826Y-96107708D01*
X205791836Y-96090557D01*
X205868157Y-96063852D01*
X205926789Y-96020578D01*
X205992415Y-95996609D01*
X206060586Y-96011924D01*
X206074056Y-96020581D01*
X206132077Y-96063403D01*
X206230000Y-96097668D01*
X206230000Y-94902330D01*
X206229999Y-94902330D01*
X206132077Y-94936595D01*
X206118132Y-94946887D01*
X206052503Y-94970857D01*
X205984333Y-94955541D01*
X205935265Y-94905800D01*
X205920500Y-94847116D01*
X205920500Y-89197254D01*
X205929144Y-89167813D01*
X205935668Y-89137827D01*
X205939422Y-89132811D01*
X205940185Y-89130215D01*
X205956819Y-89109573D01*
X205988819Y-89077573D01*
X206050142Y-89044088D01*
X206119834Y-89049072D01*
G37*
%TD.AperFunction*%
%TA.AperFunction,Conductor*%
G36*
X190973753Y-119704412D02*
G01*
X191039579Y-119818426D01*
X191132671Y-119911518D01*
X191246685Y-119977344D01*
X191310268Y-119994381D01*
X190821144Y-120483504D01*
X190821144Y-120483505D01*
X190836945Y-120494985D01*
X190836953Y-120494990D01*
X190998230Y-120577166D01*
X190998233Y-120577167D01*
X191170384Y-120633101D01*
X191331957Y-120658692D01*
X191395091Y-120688621D01*
X191432023Y-120747932D01*
X191431025Y-120817795D01*
X191392416Y-120876028D01*
X191331958Y-120903638D01*
X191170267Y-120929248D01*
X190998041Y-120985206D01*
X190998038Y-120985207D01*
X190836680Y-121067425D01*
X190690183Y-121173860D01*
X190690178Y-121173864D01*
X190612181Y-121251862D01*
X190550858Y-121285347D01*
X190481166Y-121280363D01*
X190425233Y-121238491D01*
X190400816Y-121173027D01*
X190400500Y-121164181D01*
X190400500Y-120248406D01*
X190420185Y-120181367D01*
X190436819Y-120160725D01*
X190956715Y-119640828D01*
X190973753Y-119704412D01*
G37*
%TD.AperFunction*%
%TA.AperFunction,Conductor*%
G36*
X210563181Y-120105800D02*
G01*
X210596666Y-120167123D01*
X210599500Y-120193481D01*
X210599500Y-121109257D01*
X210579815Y-121176296D01*
X210527011Y-121222051D01*
X210457853Y-121231995D01*
X210394297Y-121202970D01*
X210387819Y-121196938D01*
X210377486Y-121186605D01*
X210377481Y-121186601D01*
X210230984Y-121080166D01*
X210230983Y-121080165D01*
X210230981Y-121080164D01*
X210179287Y-121053824D01*
X210069626Y-120997948D01*
X210069623Y-120997947D01*
X209897397Y-120941988D01*
X209735707Y-120916379D01*
X209672572Y-120886449D01*
X209635641Y-120827138D01*
X209636639Y-120757275D01*
X209675249Y-120699043D01*
X209735708Y-120671433D01*
X209897279Y-120645843D01*
X210069431Y-120589908D01*
X210069439Y-120589905D01*
X210230717Y-120507728D01*
X210246519Y-120496245D01*
X210246520Y-120496245D01*
X209757397Y-120007122D01*
X209820980Y-119990085D01*
X209934994Y-119924259D01*
X210028086Y-119831167D01*
X210093912Y-119717153D01*
X210110949Y-119653569D01*
X210563181Y-120105800D01*
G37*
%TD.AperFunction*%
%TA.AperFunction,Conductor*%
G36*
X210518834Y-117822881D02*
G01*
X210574767Y-117864753D01*
X210599184Y-117930217D01*
X210599500Y-117939063D01*
X210599500Y-118854838D01*
X210579815Y-118921877D01*
X210563181Y-118942519D01*
X210110949Y-119394750D01*
X210093912Y-119331167D01*
X210028086Y-119217153D01*
X209934994Y-119124061D01*
X209820980Y-119058235D01*
X209757396Y-119041197D01*
X210246520Y-118552073D01*
X210230717Y-118540591D01*
X210069434Y-118458412D01*
X210069431Y-118458411D01*
X209897280Y-118402477D01*
X209735707Y-118376886D01*
X209672572Y-118346957D01*
X209635641Y-118287645D01*
X209636639Y-118217783D01*
X209675249Y-118159550D01*
X209735707Y-118131940D01*
X209750257Y-118129635D01*
X209897396Y-118106331D01*
X210069626Y-118050371D01*
X210230981Y-117968156D01*
X210377488Y-117861713D01*
X210387819Y-117851382D01*
X210449142Y-117817897D01*
X210518834Y-117822881D01*
G37*
%TD.AperFunction*%
%TA.AperFunction,Conductor*%
G36*
X190605703Y-117764944D02*
G01*
X190612181Y-117770976D01*
X190690178Y-117848973D01*
X190690183Y-117848977D01*
X190802002Y-117930217D01*
X190836684Y-117955415D01*
X190942162Y-118009159D01*
X190998038Y-118037630D01*
X190998041Y-118037631D01*
X191037252Y-118050371D01*
X191170269Y-118093590D01*
X191289716Y-118112508D01*
X191331957Y-118119199D01*
X191395092Y-118149128D01*
X191432023Y-118208440D01*
X191431025Y-118278302D01*
X191392415Y-118336535D01*
X191331957Y-118364145D01*
X191170384Y-118389736D01*
X190998233Y-118445670D01*
X190998225Y-118445673D01*
X190836947Y-118527851D01*
X190821144Y-118539331D01*
X190821144Y-118539332D01*
X191310269Y-119028456D01*
X191246685Y-119045494D01*
X191132671Y-119111320D01*
X191039579Y-119204412D01*
X190973753Y-119318426D01*
X190956715Y-119382009D01*
X190436819Y-118862113D01*
X190403334Y-118800790D01*
X190400500Y-118774432D01*
X190400500Y-117858657D01*
X190420185Y-117791618D01*
X190472989Y-117745863D01*
X190542147Y-117735919D01*
X190605703Y-117764944D01*
G37*
%TD.AperFunction*%
%TA.AperFunction,Conductor*%
G36*
X208289781Y-101057685D02*
G01*
X208310423Y-101074319D01*
X208502367Y-101266263D01*
X208535852Y-101327586D01*
X208532617Y-101392261D01*
X208505816Y-101474747D01*
X208477487Y-101653608D01*
X208477487Y-101834711D01*
X208505816Y-102013570D01*
X208561774Y-102185796D01*
X208561775Y-102185799D01*
X208643993Y-102347157D01*
X208750428Y-102493654D01*
X208750432Y-102493659D01*
X208878487Y-102621714D01*
X208878492Y-102621718D01*
X208972774Y-102690217D01*
X209024993Y-102728156D01*
X209130471Y-102781900D01*
X209186347Y-102810371D01*
X209186350Y-102810372D01*
X209272463Y-102838351D01*
X209358578Y-102866331D01*
X209431626Y-102877900D01*
X209518665Y-102891687D01*
X209581800Y-102921616D01*
X209618731Y-102980928D01*
X209617733Y-103050791D01*
X209579123Y-103109023D01*
X209518665Y-103136633D01*
X209358576Y-103161989D01*
X209186350Y-103217947D01*
X209186347Y-103217948D01*
X209024989Y-103300166D01*
X208878492Y-103406601D01*
X208878487Y-103406605D01*
X208750432Y-103534660D01*
X208750428Y-103534665D01*
X208643993Y-103681162D01*
X208561775Y-103842520D01*
X208561774Y-103842523D01*
X208505816Y-104014749D01*
X208477487Y-104193608D01*
X208477487Y-104374711D01*
X208505816Y-104553570D01*
X208561774Y-104725796D01*
X208561775Y-104725799D01*
X208643993Y-104887157D01*
X208750428Y-105033654D01*
X208750432Y-105033659D01*
X208878487Y-105161714D01*
X208878492Y-105161718D01*
X208972774Y-105230217D01*
X209024993Y-105268156D01*
X209130471Y-105321900D01*
X209186347Y-105350371D01*
X209186350Y-105350372D01*
X209272463Y-105378351D01*
X209358578Y-105406331D01*
X209478025Y-105425249D01*
X209520266Y-105431940D01*
X209583401Y-105461869D01*
X209620332Y-105521181D01*
X209619334Y-105591043D01*
X209580724Y-105649276D01*
X209520266Y-105676886D01*
X209358693Y-105702477D01*
X209186542Y-105758411D01*
X209186534Y-105758414D01*
X209025256Y-105840592D01*
X209009453Y-105852072D01*
X209009453Y-105852073D01*
X209498578Y-106341197D01*
X209434994Y-106358235D01*
X209320980Y-106424061D01*
X209227888Y-106517153D01*
X209162062Y-106631167D01*
X209145024Y-106694750D01*
X208655899Y-106205626D01*
X208644419Y-106221429D01*
X208562241Y-106382707D01*
X208562238Y-106382715D01*
X208506304Y-106554866D01*
X208477987Y-106733653D01*
X208477987Y-106914666D01*
X208506304Y-107093453D01*
X208562238Y-107265604D01*
X208562239Y-107265607D01*
X208644418Y-107426890D01*
X208655900Y-107442692D01*
X208655900Y-107442693D01*
X209145024Y-106953569D01*
X209162062Y-107017153D01*
X209227888Y-107131167D01*
X209320980Y-107224259D01*
X209434994Y-107290085D01*
X209498577Y-107307122D01*
X209009453Y-107796245D01*
X209009453Y-107796246D01*
X209025254Y-107807726D01*
X209025262Y-107807731D01*
X209186539Y-107889907D01*
X209186542Y-107889908D01*
X209358693Y-107945842D01*
X209520266Y-107971433D01*
X209583400Y-108001362D01*
X209620332Y-108060673D01*
X209619334Y-108130536D01*
X209580725Y-108188769D01*
X209520267Y-108216379D01*
X209358576Y-108241989D01*
X209186350Y-108297947D01*
X209186347Y-108297948D01*
X209024989Y-108380166D01*
X208878492Y-108486601D01*
X208878487Y-108486605D01*
X208750432Y-108614660D01*
X208750428Y-108614665D01*
X208643993Y-108761162D01*
X208591910Y-108863380D01*
X208543935Y-108914176D01*
X208481425Y-108931085D01*
X207548840Y-108931085D01*
X207519399Y-108922440D01*
X207489413Y-108915917D01*
X207484397Y-108912162D01*
X207481801Y-108911400D01*
X207461159Y-108894766D01*
X207436819Y-108870426D01*
X207403334Y-108809103D01*
X207400500Y-108782745D01*
X207400500Y-102000098D01*
X207420185Y-101933059D01*
X207436819Y-101912417D01*
X207480520Y-101868716D01*
X207559577Y-101731784D01*
X207600500Y-101579057D01*
X207600500Y-101420943D01*
X207559577Y-101268216D01*
X207534048Y-101223999D01*
X207517576Y-101156100D01*
X207540429Y-101090073D01*
X207595350Y-101046882D01*
X207641436Y-101038000D01*
X208222742Y-101038000D01*
X208289781Y-101057685D01*
G37*
%TD.AperFunction*%
%TA.AperFunction,Conductor*%
G36*
X190973753Y-107004412D02*
G01*
X191039579Y-107118426D01*
X191132671Y-107211518D01*
X191246685Y-107277344D01*
X191310268Y-107294381D01*
X190821144Y-107783504D01*
X190821144Y-107783505D01*
X190836945Y-107794985D01*
X190836953Y-107794990D01*
X190998230Y-107877166D01*
X190998233Y-107877167D01*
X191170384Y-107933101D01*
X191331957Y-107958692D01*
X191395091Y-107988621D01*
X191432023Y-108047932D01*
X191431025Y-108117795D01*
X191392416Y-108176028D01*
X191331958Y-108203638D01*
X191170267Y-108229248D01*
X190998041Y-108285206D01*
X190998038Y-108285207D01*
X190836680Y-108367425D01*
X190690183Y-108473860D01*
X190690178Y-108473864D01*
X190612181Y-108551862D01*
X190550858Y-108585347D01*
X190481166Y-108580363D01*
X190425233Y-108538491D01*
X190400816Y-108473027D01*
X190400500Y-108464181D01*
X190400500Y-107548406D01*
X190420185Y-107481367D01*
X190436819Y-107460725D01*
X190956715Y-106940828D01*
X190973753Y-107004412D01*
G37*
%TD.AperFunction*%
%TA.AperFunction,Conductor*%
G36*
X210563181Y-107405800D02*
G01*
X210596666Y-107467123D01*
X210599500Y-107493481D01*
X210599500Y-108409257D01*
X210579815Y-108476296D01*
X210527011Y-108522051D01*
X210457853Y-108531995D01*
X210394297Y-108502970D01*
X210387819Y-108496938D01*
X210377486Y-108486605D01*
X210377481Y-108486601D01*
X210230984Y-108380166D01*
X210230983Y-108380165D01*
X210230981Y-108380164D01*
X210179287Y-108353824D01*
X210069626Y-108297948D01*
X210069623Y-108297947D01*
X209897397Y-108241988D01*
X209735707Y-108216379D01*
X209672572Y-108186449D01*
X209635641Y-108127138D01*
X209636639Y-108057275D01*
X209675249Y-107999043D01*
X209735708Y-107971433D01*
X209897279Y-107945843D01*
X210069431Y-107889908D01*
X210069439Y-107889905D01*
X210230717Y-107807728D01*
X210246519Y-107796245D01*
X210246520Y-107796245D01*
X209757397Y-107307122D01*
X209820980Y-107290085D01*
X209934994Y-107224259D01*
X210028086Y-107131167D01*
X210093912Y-107017153D01*
X210110949Y-106953569D01*
X210563181Y-107405800D01*
G37*
%TD.AperFunction*%
%TA.AperFunction,Conductor*%
G36*
X210518834Y-105122881D02*
G01*
X210574767Y-105164753D01*
X210599184Y-105230217D01*
X210599500Y-105239063D01*
X210599500Y-106154838D01*
X210579815Y-106221877D01*
X210563181Y-106242519D01*
X210110949Y-106694750D01*
X210093912Y-106631167D01*
X210028086Y-106517153D01*
X209934994Y-106424061D01*
X209820980Y-106358235D01*
X209757396Y-106341197D01*
X210246520Y-105852073D01*
X210230717Y-105840591D01*
X210069434Y-105758412D01*
X210069431Y-105758411D01*
X209897280Y-105702477D01*
X209735707Y-105676886D01*
X209672572Y-105646957D01*
X209635641Y-105587645D01*
X209636639Y-105517783D01*
X209675249Y-105459550D01*
X209735707Y-105431940D01*
X209750257Y-105429635D01*
X209897396Y-105406331D01*
X210069626Y-105350371D01*
X210230981Y-105268156D01*
X210377488Y-105161713D01*
X210387819Y-105151382D01*
X210449142Y-105117897D01*
X210518834Y-105122881D01*
G37*
%TD.AperFunction*%
%TA.AperFunction,Conductor*%
G36*
X190605703Y-105064944D02*
G01*
X190612181Y-105070976D01*
X190690178Y-105148973D01*
X190690183Y-105148977D01*
X190802002Y-105230217D01*
X190836684Y-105255415D01*
X190942162Y-105309159D01*
X190998038Y-105337630D01*
X190998041Y-105337631D01*
X191037252Y-105350371D01*
X191170269Y-105393590D01*
X191289716Y-105412508D01*
X191331957Y-105419199D01*
X191395092Y-105449128D01*
X191432023Y-105508440D01*
X191431025Y-105578302D01*
X191392415Y-105636535D01*
X191331957Y-105664145D01*
X191170384Y-105689736D01*
X190998233Y-105745670D01*
X190998225Y-105745673D01*
X190836947Y-105827851D01*
X190821144Y-105839331D01*
X190821144Y-105839332D01*
X191310269Y-106328456D01*
X191246685Y-106345494D01*
X191132671Y-106411320D01*
X191039579Y-106504412D01*
X190973753Y-106618426D01*
X190956715Y-106682009D01*
X190436819Y-106162113D01*
X190403334Y-106100790D01*
X190400500Y-106074432D01*
X190400500Y-105158657D01*
X190420185Y-105091618D01*
X190472989Y-105045863D01*
X190542147Y-105035919D01*
X190605703Y-105064944D01*
G37*
%TD.AperFunction*%
%TA.AperFunction,Conductor*%
G36*
X208515427Y-86891770D02*
G01*
X208558813Y-86941840D01*
X208559564Y-86941458D01*
X208561108Y-86944489D01*
X208561182Y-86944574D01*
X208561360Y-86944983D01*
X208561776Y-86945799D01*
X208637499Y-87094413D01*
X208643993Y-87107157D01*
X208750428Y-87253654D01*
X208750432Y-87253659D01*
X208878487Y-87381714D01*
X208878492Y-87381718D01*
X208972774Y-87450217D01*
X209024993Y-87488156D01*
X209130471Y-87541900D01*
X209186347Y-87570371D01*
X209186350Y-87570372D01*
X209272463Y-87598351D01*
X209358578Y-87626331D01*
X209424797Y-87636819D01*
X209518665Y-87651687D01*
X209581800Y-87681616D01*
X209618731Y-87740928D01*
X209617733Y-87810791D01*
X209579123Y-87869023D01*
X209518665Y-87896633D01*
X209358576Y-87921989D01*
X209186350Y-87977947D01*
X209186347Y-87977948D01*
X209024989Y-88060166D01*
X208878492Y-88166601D01*
X208878487Y-88166605D01*
X208750432Y-88294660D01*
X208750428Y-88294665D01*
X208643993Y-88441162D01*
X208561775Y-88602520D01*
X208561774Y-88602523D01*
X208505816Y-88774749D01*
X208477487Y-88953608D01*
X208477487Y-89134711D01*
X208505816Y-89313570D01*
X208561774Y-89485796D01*
X208561775Y-89485799D01*
X208607275Y-89575095D01*
X208633616Y-89626793D01*
X208643993Y-89647157D01*
X208750428Y-89793654D01*
X208750432Y-89793659D01*
X208878487Y-89921714D01*
X208878492Y-89921718D01*
X208972774Y-89990217D01*
X209024993Y-90028156D01*
X209130471Y-90081900D01*
X209186347Y-90110371D01*
X209186350Y-90110372D01*
X209272463Y-90138351D01*
X209358578Y-90166331D01*
X209431626Y-90177900D01*
X209518665Y-90191687D01*
X209581800Y-90221616D01*
X209618731Y-90280928D01*
X209617733Y-90350791D01*
X209579123Y-90409023D01*
X209518665Y-90436633D01*
X209358576Y-90461989D01*
X209186350Y-90517947D01*
X209186347Y-90517948D01*
X209024989Y-90600166D01*
X208878492Y-90706601D01*
X208878487Y-90706605D01*
X208750432Y-90834660D01*
X208750428Y-90834665D01*
X208643993Y-90981162D01*
X208561775Y-91142520D01*
X208561774Y-91142523D01*
X208505816Y-91314749D01*
X208477487Y-91493608D01*
X208477487Y-91674711D01*
X208505816Y-91853570D01*
X208561774Y-92025796D01*
X208561775Y-92025799D01*
X208643993Y-92187157D01*
X208750428Y-92333654D01*
X208750432Y-92333659D01*
X208878487Y-92461714D01*
X208878492Y-92461718D01*
X208972774Y-92530217D01*
X209024993Y-92568156D01*
X209130471Y-92621900D01*
X209186347Y-92650371D01*
X209186350Y-92650372D01*
X209272463Y-92678351D01*
X209358578Y-92706331D01*
X209478025Y-92725249D01*
X209520266Y-92731940D01*
X209583401Y-92761869D01*
X209620332Y-92821181D01*
X209619334Y-92891043D01*
X209580724Y-92949276D01*
X209520266Y-92976886D01*
X209358693Y-93002477D01*
X209186542Y-93058411D01*
X209186534Y-93058414D01*
X209025256Y-93140592D01*
X209009453Y-93152072D01*
X209009453Y-93152073D01*
X209498578Y-93641197D01*
X209434994Y-93658235D01*
X209320980Y-93724061D01*
X209227888Y-93817153D01*
X209162062Y-93931167D01*
X209145024Y-93994750D01*
X208655900Y-93505626D01*
X208655899Y-93505626D01*
X208644419Y-93521429D01*
X208562241Y-93682707D01*
X208562238Y-93682715D01*
X208506304Y-93854866D01*
X208477987Y-94033653D01*
X208477987Y-94214666D01*
X208506304Y-94393453D01*
X208562238Y-94565604D01*
X208562239Y-94565607D01*
X208644418Y-94726890D01*
X208655900Y-94742692D01*
X208655900Y-94742693D01*
X209145024Y-94253569D01*
X209162062Y-94317153D01*
X209227888Y-94431167D01*
X209320980Y-94524259D01*
X209434994Y-94590085D01*
X209498577Y-94607122D01*
X209009453Y-95096245D01*
X209009453Y-95096246D01*
X209025254Y-95107726D01*
X209025262Y-95107731D01*
X209186539Y-95189907D01*
X209186542Y-95189908D01*
X209358693Y-95245842D01*
X209520266Y-95271433D01*
X209583400Y-95301362D01*
X209620332Y-95360673D01*
X209619334Y-95430536D01*
X209580725Y-95488769D01*
X209520267Y-95516379D01*
X209358576Y-95541989D01*
X209186350Y-95597947D01*
X209186347Y-95597948D01*
X209024989Y-95680166D01*
X208878492Y-95786601D01*
X208878487Y-95786605D01*
X208750432Y-95914660D01*
X208750428Y-95914665D01*
X208643993Y-96061162D01*
X208561775Y-96222520D01*
X208561774Y-96222523D01*
X208505816Y-96394749D01*
X208477487Y-96573608D01*
X208477487Y-96754711D01*
X208505816Y-96933570D01*
X208561774Y-97105796D01*
X208561775Y-97105799D01*
X208614410Y-97209098D01*
X208636690Y-97252826D01*
X208643993Y-97267157D01*
X208750428Y-97413654D01*
X208750432Y-97413659D01*
X208878487Y-97541714D01*
X208878492Y-97541718D01*
X208984950Y-97619063D01*
X209024993Y-97648156D01*
X209130471Y-97701900D01*
X209186347Y-97730371D01*
X209186350Y-97730372D01*
X209246761Y-97750000D01*
X209358578Y-97786331D01*
X209431626Y-97797900D01*
X209518665Y-97811687D01*
X209581800Y-97841616D01*
X209618731Y-97900928D01*
X209617733Y-97970791D01*
X209579123Y-98029023D01*
X209518665Y-98056633D01*
X209358576Y-98081989D01*
X209186350Y-98137947D01*
X209186347Y-98137948D01*
X209024989Y-98220166D01*
X208878492Y-98326601D01*
X208878487Y-98326605D01*
X208750432Y-98454660D01*
X208750428Y-98454665D01*
X208643993Y-98601162D01*
X208561775Y-98762520D01*
X208561774Y-98762523D01*
X208505816Y-98934749D01*
X208477487Y-99113608D01*
X208477487Y-99294711D01*
X208505816Y-99473570D01*
X208561774Y-99645796D01*
X208561775Y-99645799D01*
X208617651Y-99755460D01*
X208624147Y-99768209D01*
X208643993Y-99807157D01*
X208750428Y-99953654D01*
X208750432Y-99953659D01*
X208878487Y-100081714D01*
X208878492Y-100081718D01*
X208983851Y-100158265D01*
X209024993Y-100188156D01*
X209110629Y-100231790D01*
X209186347Y-100270371D01*
X209186350Y-100270372D01*
X209272463Y-100298351D01*
X209358578Y-100326331D01*
X209431626Y-100337900D01*
X209518665Y-100351687D01*
X209581800Y-100381616D01*
X209618731Y-100440928D01*
X209617733Y-100510791D01*
X209579123Y-100569023D01*
X209518665Y-100596633D01*
X209358576Y-100621989D01*
X209186349Y-100677948D01*
X209174194Y-100684141D01*
X209105524Y-100697033D01*
X209040785Y-100670754D01*
X209030224Y-100661334D01*
X208685912Y-100317022D01*
X208685911Y-100317021D01*
X208685910Y-100317020D01*
X208640247Y-100290656D01*
X208594586Y-100264293D01*
X208543654Y-100250646D01*
X208492724Y-100237000D01*
X208492723Y-100237000D01*
X206959573Y-100237000D01*
X206892534Y-100217315D01*
X206846779Y-100164511D01*
X206836835Y-100095353D01*
X206865860Y-100031797D01*
X206924638Y-99994023D01*
X206927445Y-99993234D01*
X206961138Y-99984207D01*
X207052463Y-99931480D01*
X207820480Y-99163463D01*
X207837151Y-99134588D01*
X207873207Y-99072137D01*
X207900500Y-98970277D01*
X207900500Y-90447273D01*
X207893439Y-90420919D01*
X207873207Y-90345412D01*
X207820480Y-90254087D01*
X207294412Y-89728019D01*
X207260927Y-89666696D01*
X207265911Y-89597004D01*
X207278046Y-89575095D01*
X207277457Y-89574755D01*
X207355012Y-89440423D01*
X207360577Y-89430784D01*
X207401500Y-89278057D01*
X207401500Y-89119943D01*
X207360577Y-88967216D01*
X207352724Y-88953614D01*
X207281524Y-88830290D01*
X207281518Y-88830282D01*
X207169717Y-88718481D01*
X207169709Y-88718475D01*
X207032790Y-88639426D01*
X207032786Y-88639424D01*
X207032784Y-88639423D01*
X206880057Y-88598500D01*
X206767254Y-88598500D01*
X206700215Y-88578815D01*
X206654460Y-88526011D01*
X206644516Y-88456853D01*
X206673541Y-88393297D01*
X206679573Y-88386819D01*
X208157988Y-86908404D01*
X208184915Y-86893700D01*
X208210734Y-86877108D01*
X208216934Y-86876216D01*
X208219311Y-86874919D01*
X208245669Y-86872085D01*
X208448388Y-86872085D01*
X208515427Y-86891770D01*
G37*
%TD.AperFunction*%
%TA.AperFunction,Conductor*%
G36*
X196976851Y-88192055D02*
G01*
X197032784Y-88233927D01*
X197057201Y-88299391D01*
X197042349Y-88367664D01*
X197040905Y-88370236D01*
X197025793Y-88396409D01*
X196998500Y-88498273D01*
X196998500Y-91626726D01*
X197025793Y-91728589D01*
X197052156Y-91774250D01*
X197078520Y-91819913D01*
X197078522Y-91819915D01*
X200483926Y-95225319D01*
X200494538Y-95244755D01*
X200509039Y-95261489D01*
X200510955Y-95274820D01*
X200517411Y-95286642D01*
X200515831Y-95308728D01*
X200518983Y-95330647D01*
X200513387Y-95342898D01*
X200512427Y-95356334D01*
X200499156Y-95374060D01*
X200489958Y-95394203D01*
X200478626Y-95401485D01*
X200470555Y-95412267D01*
X200449809Y-95420004D01*
X200431180Y-95431977D01*
X200409261Y-95435128D01*
X200405091Y-95436684D01*
X200396245Y-95437000D01*
X200235335Y-95437000D01*
X200203242Y-95432775D01*
X200126704Y-95412267D01*
X200079057Y-95399500D01*
X199920943Y-95399500D01*
X199768216Y-95440423D01*
X199768209Y-95440426D01*
X199631290Y-95519475D01*
X199631282Y-95519481D01*
X199519481Y-95631282D01*
X199519475Y-95631290D01*
X199440426Y-95768209D01*
X199440423Y-95768216D01*
X199399500Y-95920943D01*
X199399500Y-96079057D01*
X199434776Y-96210707D01*
X199440423Y-96231783D01*
X199440426Y-96231790D01*
X199519475Y-96368709D01*
X199519481Y-96368717D01*
X199532333Y-96381569D01*
X199548877Y-96411868D01*
X199565636Y-96442068D01*
X199565607Y-96442506D01*
X199565818Y-96442892D01*
X199563354Y-96477337D01*
X199561126Y-96511792D01*
X199560854Y-96512297D01*
X199560834Y-96512584D01*
X199544423Y-96542883D01*
X199529881Y-96562587D01*
X199474233Y-96604838D01*
X199404577Y-96610297D01*
X199343028Y-96577230D01*
X199312984Y-96525599D01*
X199312686Y-96525723D01*
X199311769Y-96523510D01*
X199310335Y-96521045D01*
X199309916Y-96519481D01*
X199309577Y-96518216D01*
X199287816Y-96480524D01*
X199230524Y-96381290D01*
X199230518Y-96381282D01*
X199118717Y-96269481D01*
X199118709Y-96269475D01*
X198981790Y-96190426D01*
X198981786Y-96190424D01*
X198981784Y-96190423D01*
X198829057Y-96149500D01*
X198829056Y-96149500D01*
X198767255Y-96149500D01*
X198700216Y-96129815D01*
X198679574Y-96113181D01*
X198443915Y-95877522D01*
X198443913Y-95877520D01*
X198398250Y-95851156D01*
X198352589Y-95824793D01*
X198301657Y-95811146D01*
X198250727Y-95797500D01*
X198250726Y-95797500D01*
X195703568Y-95797500D01*
X195636529Y-95777815D01*
X195590774Y-95725011D01*
X195580830Y-95655853D01*
X195583790Y-95641416D01*
X195600500Y-95579057D01*
X195600500Y-95420943D01*
X195559577Y-95268216D01*
X195546660Y-95245843D01*
X195480524Y-95131290D01*
X195480518Y-95131282D01*
X195368717Y-95019481D01*
X195368709Y-95019475D01*
X195231790Y-94940426D01*
X195231786Y-94940424D01*
X195231784Y-94940423D01*
X195079057Y-94899500D01*
X195079056Y-94899500D01*
X195017255Y-94899500D01*
X194987814Y-94890855D01*
X194957828Y-94884332D01*
X194952812Y-94880577D01*
X194950216Y-94879815D01*
X194929574Y-94863181D01*
X194778969Y-94712576D01*
X194745484Y-94651253D01*
X194750468Y-94581561D01*
X194792340Y-94525628D01*
X194804643Y-94517511D01*
X194868716Y-94480520D01*
X194980520Y-94368716D01*
X195059577Y-94231784D01*
X195100500Y-94079057D01*
X195100500Y-93920943D01*
X195059577Y-93768216D01*
X195053601Y-93757865D01*
X194980524Y-93631290D01*
X194980518Y-93631282D01*
X194936819Y-93587583D01*
X194903334Y-93526260D01*
X194900500Y-93499902D01*
X194900500Y-90217255D01*
X194920185Y-90150216D01*
X194936819Y-90129574D01*
X195888902Y-89177491D01*
X196845838Y-88220554D01*
X196907159Y-88187071D01*
X196976851Y-88192055D01*
G37*
%TD.AperFunction*%
%TA.AperFunction,Conductor*%
G36*
X192015887Y-85030408D02*
G01*
X192026461Y-85039838D01*
X193061181Y-86074558D01*
X193094666Y-86135881D01*
X193097500Y-86162239D01*
X193097500Y-94795216D01*
X193097500Y-94900670D01*
X193105665Y-94931141D01*
X193124793Y-95002532D01*
X193151156Y-95048193D01*
X193177520Y-95093856D01*
X193177522Y-95093858D01*
X194471483Y-96387819D01*
X194504968Y-96449142D01*
X194499984Y-96518834D01*
X194458112Y-96574767D01*
X194392648Y-96599184D01*
X194383802Y-96599500D01*
X193500098Y-96599500D01*
X193433059Y-96579815D01*
X193412417Y-96563181D01*
X193368717Y-96519481D01*
X193368709Y-96519475D01*
X193231790Y-96440426D01*
X193231786Y-96440424D01*
X193231784Y-96440423D01*
X193079057Y-96399500D01*
X192920943Y-96399500D01*
X192768216Y-96440423D01*
X192768213Y-96440424D01*
X192743037Y-96454959D01*
X192675136Y-96471429D01*
X192609110Y-96448575D01*
X192565921Y-96393653D01*
X192563109Y-96385887D01*
X192505891Y-96209785D01*
X192505889Y-96209779D01*
X192469149Y-96137675D01*
X192423674Y-96048425D01*
X192377491Y-95984859D01*
X192317236Y-95901924D01*
X192317232Y-95901919D01*
X192189177Y-95773864D01*
X192189172Y-95773860D01*
X192042675Y-95667425D01*
X192042674Y-95667424D01*
X192042672Y-95667423D01*
X191990978Y-95641083D01*
X191881317Y-95585207D01*
X191881314Y-95585206D01*
X191709088Y-95529247D01*
X191547398Y-95503638D01*
X191484263Y-95473708D01*
X191447332Y-95414397D01*
X191448330Y-95344534D01*
X191486940Y-95286302D01*
X191547399Y-95258692D01*
X191708970Y-95233102D01*
X191881122Y-95177167D01*
X191881130Y-95177164D01*
X192042408Y-95094987D01*
X192058210Y-95083504D01*
X192058211Y-95083504D01*
X191569088Y-94594381D01*
X191632671Y-94577344D01*
X191746685Y-94511518D01*
X191839777Y-94418426D01*
X191905603Y-94304412D01*
X191922640Y-94240829D01*
X192411763Y-94729952D01*
X192411763Y-94729951D01*
X192423246Y-94714149D01*
X192505423Y-94552871D01*
X192505426Y-94552863D01*
X192561360Y-94380712D01*
X192589678Y-94201925D01*
X192589678Y-94020912D01*
X192561360Y-93842125D01*
X192505426Y-93669974D01*
X192505425Y-93669971D01*
X192423249Y-93508694D01*
X192423244Y-93508686D01*
X192411763Y-93492885D01*
X191922640Y-93982008D01*
X191905603Y-93918426D01*
X191839777Y-93804412D01*
X191746685Y-93711320D01*
X191632671Y-93645494D01*
X191569087Y-93628456D01*
X192058211Y-93139332D01*
X192042408Y-93127850D01*
X191881125Y-93045671D01*
X191881122Y-93045670D01*
X191708971Y-92989736D01*
X191547398Y-92964145D01*
X191484263Y-92934216D01*
X191447332Y-92874904D01*
X191448330Y-92805042D01*
X191486940Y-92746809D01*
X191547398Y-92719199D01*
X191561948Y-92716894D01*
X191709087Y-92693590D01*
X191881317Y-92637630D01*
X192042672Y-92555415D01*
X192189179Y-92448972D01*
X192317231Y-92320920D01*
X192423674Y-92174413D01*
X192505889Y-92013058D01*
X192561849Y-91840828D01*
X192579626Y-91728588D01*
X192590178Y-91661970D01*
X192590178Y-91480867D01*
X192570518Y-91356745D01*
X192561849Y-91302010D01*
X192533869Y-91215895D01*
X192505890Y-91129782D01*
X192505889Y-91129779D01*
X192453649Y-91027254D01*
X192423674Y-90968425D01*
X192396442Y-90930943D01*
X192317236Y-90821924D01*
X192317232Y-90821919D01*
X192189177Y-90693864D01*
X192189172Y-90693860D01*
X192042675Y-90587425D01*
X192042674Y-90587424D01*
X192042672Y-90587423D01*
X191990978Y-90561083D01*
X191881317Y-90505207D01*
X191881314Y-90505206D01*
X191709088Y-90449248D01*
X191548999Y-90423892D01*
X191485864Y-90393963D01*
X191448933Y-90334651D01*
X191449931Y-90264789D01*
X191488541Y-90206556D01*
X191548999Y-90178946D01*
X191628649Y-90166330D01*
X191709087Y-90153590D01*
X191881317Y-90097630D01*
X192042672Y-90015415D01*
X192189179Y-89908972D01*
X192317231Y-89780920D01*
X192423674Y-89634413D01*
X192505889Y-89473058D01*
X192561849Y-89300828D01*
X192576443Y-89208678D01*
X192590178Y-89121970D01*
X192590178Y-88940867D01*
X192571891Y-88825412D01*
X192561849Y-88762010D01*
X192522019Y-88639423D01*
X192505890Y-88589782D01*
X192505889Y-88589779D01*
X192473397Y-88526011D01*
X192423674Y-88428425D01*
X192393446Y-88386819D01*
X192317236Y-88281924D01*
X192317232Y-88281919D01*
X192189177Y-88153864D01*
X192189172Y-88153860D01*
X192042675Y-88047425D01*
X192042674Y-88047424D01*
X192042672Y-88047423D01*
X191990978Y-88021083D01*
X191881317Y-87965207D01*
X191881314Y-87965206D01*
X191709088Y-87909248D01*
X191548999Y-87883892D01*
X191485864Y-87853963D01*
X191448933Y-87794651D01*
X191449931Y-87724789D01*
X191488541Y-87666556D01*
X191548999Y-87638946D01*
X191628649Y-87626330D01*
X191709087Y-87613590D01*
X191881317Y-87557630D01*
X192042672Y-87475415D01*
X192189179Y-87368972D01*
X192317231Y-87240920D01*
X192423674Y-87094413D01*
X192505889Y-86933058D01*
X192561849Y-86760828D01*
X192582367Y-86631282D01*
X192590178Y-86581970D01*
X192590178Y-86400867D01*
X192562429Y-86225674D01*
X192561849Y-86222010D01*
X192513940Y-86074558D01*
X192505890Y-86049782D01*
X192505889Y-86049779D01*
X192477418Y-85993903D01*
X192423674Y-85888425D01*
X192352451Y-85790394D01*
X192317236Y-85741924D01*
X192317232Y-85741919D01*
X192189177Y-85613864D01*
X192189172Y-85613860D01*
X192042675Y-85507425D01*
X192042674Y-85507424D01*
X192042672Y-85507423D01*
X191990978Y-85481083D01*
X191881317Y-85425207D01*
X191881314Y-85425206D01*
X191709088Y-85369248D01*
X191548999Y-85343892D01*
X191485864Y-85313963D01*
X191448933Y-85254651D01*
X191449931Y-85184789D01*
X191488541Y-85126556D01*
X191548999Y-85098946D01*
X191628649Y-85086330D01*
X191709087Y-85073590D01*
X191881317Y-85017630D01*
X191882477Y-85017039D01*
X191882963Y-85016947D01*
X191885821Y-85015764D01*
X191886069Y-85016364D01*
X191951145Y-85004137D01*
X192015887Y-85030408D01*
G37*
%TD.AperFunction*%
%TA.AperFunction,Conductor*%
G36*
X190973753Y-94304412D02*
G01*
X191039579Y-94418426D01*
X191132671Y-94511518D01*
X191246685Y-94577344D01*
X191310268Y-94594381D01*
X190821144Y-95083504D01*
X190821144Y-95083505D01*
X190836945Y-95094985D01*
X190836953Y-95094990D01*
X190998230Y-95177166D01*
X190998233Y-95177167D01*
X191170384Y-95233101D01*
X191331957Y-95258692D01*
X191395091Y-95288621D01*
X191432023Y-95347932D01*
X191431025Y-95417795D01*
X191392416Y-95476028D01*
X191331958Y-95503638D01*
X191170267Y-95529248D01*
X190998041Y-95585206D01*
X190998038Y-95585207D01*
X190836680Y-95667425D01*
X190690183Y-95773860D01*
X190690178Y-95773864D01*
X190612181Y-95851862D01*
X190550858Y-95885347D01*
X190481166Y-95880363D01*
X190425233Y-95838491D01*
X190400816Y-95773027D01*
X190400500Y-95764181D01*
X190400500Y-94848406D01*
X190420185Y-94781367D01*
X190436819Y-94760725D01*
X190956715Y-94240828D01*
X190973753Y-94304412D01*
G37*
%TD.AperFunction*%
%TA.AperFunction,Conductor*%
G36*
X210563181Y-94705800D02*
G01*
X210596666Y-94767123D01*
X210599500Y-94793481D01*
X210599500Y-95709257D01*
X210579815Y-95776296D01*
X210527011Y-95822051D01*
X210457853Y-95831995D01*
X210394297Y-95802970D01*
X210387819Y-95796938D01*
X210377486Y-95786605D01*
X210377481Y-95786601D01*
X210230984Y-95680166D01*
X210230983Y-95680165D01*
X210230981Y-95680164D01*
X210154915Y-95641406D01*
X210069626Y-95597948D01*
X210069623Y-95597947D01*
X209897397Y-95541988D01*
X209735707Y-95516379D01*
X209672572Y-95486449D01*
X209635641Y-95427138D01*
X209636639Y-95357275D01*
X209675249Y-95299043D01*
X209735708Y-95271433D01*
X209897279Y-95245843D01*
X210069431Y-95189908D01*
X210069439Y-95189905D01*
X210230717Y-95107728D01*
X210246519Y-95096245D01*
X210246520Y-95096245D01*
X209757397Y-94607122D01*
X209820980Y-94590085D01*
X209934994Y-94524259D01*
X210028086Y-94431167D01*
X210093912Y-94317153D01*
X210110949Y-94253569D01*
X210563181Y-94705800D01*
G37*
%TD.AperFunction*%
%TA.AperFunction,Conductor*%
G36*
X204163631Y-75420185D02*
G01*
X204209386Y-75472989D01*
X204219330Y-75542147D01*
X204199694Y-75593391D01*
X204111052Y-75726051D01*
X204111047Y-75726060D01*
X204050743Y-75871648D01*
X204050741Y-75871656D01*
X204020000Y-76026202D01*
X204020000Y-76155000D01*
X204520000Y-76155000D01*
X204520000Y-76655000D01*
X204020000Y-76655000D01*
X204020000Y-76783797D01*
X204050741Y-76938343D01*
X204050743Y-76938351D01*
X204111047Y-77083939D01*
X204111052Y-77083948D01*
X204198598Y-77214969D01*
X204198601Y-77214973D01*
X204310026Y-77326398D01*
X204310034Y-77326404D01*
X204441047Y-77413944D01*
X204441065Y-77413954D01*
X204569999Y-77467360D01*
X204570000Y-77467360D01*
X204570000Y-76871988D01*
X204579940Y-76889205D01*
X204635795Y-76945060D01*
X204704204Y-76984556D01*
X204780504Y-77005000D01*
X204859496Y-77005000D01*
X204935796Y-76984556D01*
X205004205Y-76945060D01*
X205060060Y-76889205D01*
X205070000Y-76871988D01*
X205070000Y-77467360D01*
X205198934Y-77413954D01*
X205198952Y-77413944D01*
X205329965Y-77326404D01*
X205329973Y-77326398D01*
X205441398Y-77214973D01*
X205441401Y-77214969D01*
X205528947Y-77083948D01*
X205528952Y-77083939D01*
X205589256Y-76938351D01*
X205589258Y-76938343D01*
X205619999Y-76783797D01*
X205620000Y-76783794D01*
X205620000Y-76655000D01*
X205120000Y-76655000D01*
X205120000Y-76155000D01*
X205620000Y-76155000D01*
X205620000Y-76026206D01*
X205619999Y-76026202D01*
X205589258Y-75871656D01*
X205589256Y-75871648D01*
X205528952Y-75726060D01*
X205528947Y-75726051D01*
X205440306Y-75593391D01*
X205419428Y-75526714D01*
X205437912Y-75459333D01*
X205489891Y-75412643D01*
X205543408Y-75400500D01*
X208353487Y-75400500D01*
X208420526Y-75420185D01*
X208466281Y-75472989D01*
X208477487Y-75524500D01*
X208477487Y-77239016D01*
X208477489Y-77239042D01*
X208480400Y-77264147D01*
X208480402Y-77264151D01*
X208525780Y-77366924D01*
X208525781Y-77366925D01*
X208605222Y-77446366D01*
X208707996Y-77491745D01*
X208733122Y-77494660D01*
X209470860Y-77494659D01*
X209537897Y-77514343D01*
X209583652Y-77567147D01*
X209593596Y-77636306D01*
X209564571Y-77699862D01*
X209505793Y-77737636D01*
X209490257Y-77741132D01*
X209358576Y-77761989D01*
X209186350Y-77817947D01*
X209186347Y-77817948D01*
X209024989Y-77900166D01*
X208878492Y-78006601D01*
X208878487Y-78006605D01*
X208750432Y-78134660D01*
X208750428Y-78134665D01*
X208643993Y-78281162D01*
X208561775Y-78442520D01*
X208561774Y-78442523D01*
X208505816Y-78614749D01*
X208477487Y-78793608D01*
X208477487Y-78974711D01*
X208505816Y-79153570D01*
X208561774Y-79325796D01*
X208561775Y-79325799D01*
X208643993Y-79487157D01*
X208750428Y-79633654D01*
X208750432Y-79633659D01*
X208878487Y-79761714D01*
X208878492Y-79761718D01*
X209006274Y-79854556D01*
X209024993Y-79868156D01*
X209125180Y-79919204D01*
X209186347Y-79950371D01*
X209186350Y-79950372D01*
X209272463Y-79978351D01*
X209358578Y-80006331D01*
X209478025Y-80025249D01*
X209520266Y-80031940D01*
X209583401Y-80061869D01*
X209620332Y-80121181D01*
X209619334Y-80191043D01*
X209580724Y-80249276D01*
X209520266Y-80276886D01*
X209358693Y-80302477D01*
X209186542Y-80358411D01*
X209186534Y-80358414D01*
X209025256Y-80440592D01*
X209009453Y-80452072D01*
X209009453Y-80452073D01*
X209498578Y-80941197D01*
X209434994Y-80958235D01*
X209320980Y-81024061D01*
X209227888Y-81117153D01*
X209162062Y-81231167D01*
X209145024Y-81294750D01*
X208655900Y-80805626D01*
X208655899Y-80805626D01*
X208644419Y-80821429D01*
X208562241Y-80982707D01*
X208562238Y-80982715D01*
X208506304Y-81154866D01*
X208477987Y-81333653D01*
X208477987Y-81514666D01*
X208506304Y-81693453D01*
X208562238Y-81865604D01*
X208562239Y-81865607D01*
X208644418Y-82026890D01*
X208655900Y-82042692D01*
X208655900Y-82042693D01*
X209145024Y-81553569D01*
X209162062Y-81617153D01*
X209227888Y-81731167D01*
X209320980Y-81824259D01*
X209434994Y-81890085D01*
X209498577Y-81907122D01*
X209009453Y-82396245D01*
X209009453Y-82396246D01*
X209025254Y-82407726D01*
X209025262Y-82407731D01*
X209186539Y-82489907D01*
X209186542Y-82489908D01*
X209358693Y-82545842D01*
X209520266Y-82571433D01*
X209583400Y-82601362D01*
X209620332Y-82660673D01*
X209619334Y-82730536D01*
X209580725Y-82788769D01*
X209520267Y-82816379D01*
X209358576Y-82841989D01*
X209186350Y-82897947D01*
X209186347Y-82897948D01*
X209024989Y-82980166D01*
X208878492Y-83086601D01*
X208878487Y-83086605D01*
X208750432Y-83214660D01*
X208750428Y-83214665D01*
X208643993Y-83361162D01*
X208561775Y-83522520D01*
X208561774Y-83522523D01*
X208505816Y-83694749D01*
X208477487Y-83873608D01*
X208477487Y-84054711D01*
X208505816Y-84233570D01*
X208561774Y-84405796D01*
X208561775Y-84405799D01*
X208643993Y-84567157D01*
X208750428Y-84713654D01*
X208750432Y-84713659D01*
X208878487Y-84841714D01*
X208878492Y-84841718D01*
X208972774Y-84910217D01*
X209024993Y-84948156D01*
X209130471Y-85001900D01*
X209186347Y-85030371D01*
X209186350Y-85030372D01*
X209272463Y-85058351D01*
X209358578Y-85086331D01*
X209431626Y-85097900D01*
X209518665Y-85111687D01*
X209581800Y-85141616D01*
X209618731Y-85200928D01*
X209617733Y-85270791D01*
X209579123Y-85329023D01*
X209518665Y-85356633D01*
X209358576Y-85381989D01*
X209186350Y-85437947D01*
X209186347Y-85437948D01*
X209024989Y-85520166D01*
X208878492Y-85626601D01*
X208878487Y-85626605D01*
X208750432Y-85754660D01*
X208750428Y-85754665D01*
X208643993Y-85901162D01*
X208591910Y-86003380D01*
X208543935Y-86054176D01*
X208481425Y-86071085D01*
X208088754Y-86071085D01*
X208088738Y-86071084D01*
X208081142Y-86071084D01*
X207975689Y-86071084D01*
X207873828Y-86098378D01*
X207873826Y-86098378D01*
X207873826Y-86098379D01*
X207782499Y-86151107D01*
X205199522Y-88734084D01*
X205199520Y-88734087D01*
X205176044Y-88774749D01*
X205146793Y-88825412D01*
X205132563Y-88878520D01*
X205132563Y-88878521D01*
X205132562Y-88878520D01*
X205119500Y-88927271D01*
X205119500Y-94912181D01*
X205099815Y-94979220D01*
X205088779Y-94993882D01*
X205079935Y-95003978D01*
X205065001Y-95015001D01*
X205036731Y-95053305D01*
X205033319Y-95057201D01*
X205008026Y-95073265D01*
X204984162Y-95091385D01*
X204977598Y-95092592D01*
X204974340Y-95094662D01*
X204966570Y-95094620D01*
X204940040Y-95099500D01*
X203947273Y-95099500D01*
X203845410Y-95126793D01*
X203799870Y-95153087D01*
X203799869Y-95153086D01*
X203754093Y-95179516D01*
X203754084Y-95179522D01*
X203587681Y-95345926D01*
X203526358Y-95379411D01*
X203456666Y-95374427D01*
X203412319Y-95345926D01*
X203144915Y-95078522D01*
X203144913Y-95078520D01*
X203099250Y-95052156D01*
X203053589Y-95025793D01*
X203002657Y-95012146D01*
X202951727Y-94998500D01*
X202048273Y-94998500D01*
X202048271Y-94998500D01*
X201988739Y-95014451D01*
X201918889Y-95012787D01*
X201894649Y-95002064D01*
X201852276Y-94977601D01*
X201852274Y-94977600D01*
X201852272Y-94977599D01*
X201699545Y-94936676D01*
X201541431Y-94936676D01*
X201541429Y-94936676D01*
X201442307Y-94963235D01*
X201372457Y-94961572D01*
X201322534Y-94931141D01*
X197835819Y-91444426D01*
X197802334Y-91383103D01*
X197799500Y-91356745D01*
X197799500Y-90724500D01*
X197819185Y-90657461D01*
X197871989Y-90611706D01*
X197923500Y-90600500D01*
X198079055Y-90600500D01*
X198079057Y-90600500D01*
X198231784Y-90559577D01*
X198368716Y-90480520D01*
X198412417Y-90436819D01*
X198473740Y-90403334D01*
X198500098Y-90400500D01*
X202282745Y-90400500D01*
X202349784Y-90420185D01*
X202370426Y-90436819D01*
X202873181Y-90939573D01*
X202906666Y-91000896D01*
X202909500Y-91027254D01*
X202909500Y-91089057D01*
X202923826Y-91142520D01*
X202950423Y-91241783D01*
X202950426Y-91241790D01*
X203029475Y-91378709D01*
X203029479Y-91378714D01*
X203029480Y-91378716D01*
X203141284Y-91490520D01*
X203141286Y-91490521D01*
X203141290Y-91490524D01*
X203194550Y-91521273D01*
X203278216Y-91569577D01*
X203430943Y-91610500D01*
X203430945Y-91610500D01*
X203589055Y-91610500D01*
X203589057Y-91610500D01*
X203741784Y-91569577D01*
X203878716Y-91490520D01*
X203990520Y-91378716D01*
X204069577Y-91241784D01*
X204110500Y-91089057D01*
X204110500Y-90930943D01*
X204069577Y-90778216D01*
X204058189Y-90758491D01*
X203990524Y-90641290D01*
X203990518Y-90641282D01*
X203878717Y-90529481D01*
X203878709Y-90529475D01*
X203741790Y-90450426D01*
X203741786Y-90450424D01*
X203741784Y-90450423D01*
X203589057Y-90409500D01*
X203589056Y-90409500D01*
X203527254Y-90409500D01*
X203460215Y-90389815D01*
X203439573Y-90373181D01*
X203094548Y-90028156D01*
X202745913Y-89679520D01*
X202689854Y-89647154D01*
X202654589Y-89626793D01*
X202597203Y-89611417D01*
X202552727Y-89599500D01*
X202552726Y-89599500D01*
X198500098Y-89599500D01*
X198433059Y-89579815D01*
X198412417Y-89563181D01*
X198368717Y-89519481D01*
X198368709Y-89519475D01*
X198231790Y-89440426D01*
X198231786Y-89440424D01*
X198231784Y-89440423D01*
X198079057Y-89399500D01*
X197923500Y-89399500D01*
X197856461Y-89379815D01*
X197810706Y-89327011D01*
X197799500Y-89275500D01*
X197799500Y-88768255D01*
X197819185Y-88701216D01*
X197835819Y-88680574D01*
X198879574Y-87636819D01*
X198940897Y-87603334D01*
X198967255Y-87600500D01*
X199029055Y-87600500D01*
X199029057Y-87600500D01*
X199181784Y-87559577D01*
X199318716Y-87480520D01*
X199430520Y-87368716D01*
X199509577Y-87231784D01*
X199550500Y-87079057D01*
X199550500Y-86920943D01*
X199509577Y-86768216D01*
X199505312Y-86760828D01*
X199430524Y-86631290D01*
X199430518Y-86631282D01*
X199318717Y-86519481D01*
X199318709Y-86519475D01*
X199181790Y-86440426D01*
X199181786Y-86440424D01*
X199181784Y-86440423D01*
X199029057Y-86399500D01*
X198966255Y-86399500D01*
X198899216Y-86379815D01*
X198853461Y-86327011D01*
X198843517Y-86257853D01*
X198872542Y-86194297D01*
X198878574Y-86187819D01*
X200090260Y-84976133D01*
X201320480Y-83745913D01*
X201373207Y-83654588D01*
X201400500Y-83552727D01*
X201400500Y-83447273D01*
X201400500Y-80447273D01*
X201373207Y-80345413D01*
X201320480Y-80254087D01*
X201245913Y-80179520D01*
X201045627Y-79979234D01*
X202814500Y-79979234D01*
X202814500Y-80130766D01*
X202829741Y-80187645D01*
X202853719Y-80277136D01*
X202888215Y-80336884D01*
X202929485Y-80408365D01*
X203036635Y-80515515D01*
X203167865Y-80591281D01*
X203314234Y-80630500D01*
X203314236Y-80630500D01*
X203465764Y-80630500D01*
X203465766Y-80630500D01*
X203612135Y-80591281D01*
X203743365Y-80515515D01*
X203850515Y-80408365D01*
X203858604Y-80394353D01*
X203909168Y-80346139D01*
X203977774Y-80332914D01*
X203982985Y-80335000D01*
X204520000Y-80335000D01*
X204520000Y-80835000D01*
X204020000Y-80835000D01*
X204020000Y-81213797D01*
X204050741Y-81368343D01*
X204050743Y-81368351D01*
X204111047Y-81513939D01*
X204111052Y-81513948D01*
X204198598Y-81644969D01*
X204198601Y-81644973D01*
X204310026Y-81756398D01*
X204310034Y-81756404D01*
X204441047Y-81843944D01*
X204441065Y-81843954D01*
X204569999Y-81897360D01*
X204570000Y-81897360D01*
X204570000Y-81301988D01*
X204579940Y-81319205D01*
X204635795Y-81375060D01*
X204704204Y-81414556D01*
X204780504Y-81435000D01*
X204859496Y-81435000D01*
X204935796Y-81414556D01*
X205004205Y-81375060D01*
X205060060Y-81319205D01*
X205070000Y-81301988D01*
X205070000Y-81897360D01*
X205198934Y-81843954D01*
X205198952Y-81843944D01*
X205329965Y-81756404D01*
X205329973Y-81756398D01*
X205441398Y-81644973D01*
X205441401Y-81644969D01*
X205528947Y-81513948D01*
X205528952Y-81513939D01*
X205589256Y-81368351D01*
X205589258Y-81368344D01*
X205601940Y-81304590D01*
X205619999Y-81213797D01*
X205620000Y-81213794D01*
X205620000Y-80835000D01*
X205120000Y-80835000D01*
X205120000Y-80335000D01*
X205620000Y-80335000D01*
X205620000Y-79956206D01*
X205619999Y-79956202D01*
X205589258Y-79801656D01*
X205589256Y-79801648D01*
X205528952Y-79656060D01*
X205528947Y-79656051D01*
X205441401Y-79525030D01*
X205441398Y-79525026D01*
X205329973Y-79413601D01*
X205329969Y-79413598D01*
X205198948Y-79326052D01*
X205198938Y-79326047D01*
X205070000Y-79272639D01*
X205070000Y-79868011D01*
X205060060Y-79850795D01*
X205004205Y-79794940D01*
X204935796Y-79755444D01*
X204859496Y-79735000D01*
X204780504Y-79735000D01*
X204704204Y-79755444D01*
X204635795Y-79794940D01*
X204579940Y-79850795D01*
X204570000Y-79868011D01*
X204570000Y-79272639D01*
X204569999Y-79272639D01*
X204441061Y-79326047D01*
X204441051Y-79326052D01*
X204310030Y-79413598D01*
X204310026Y-79413601D01*
X204198601Y-79525026D01*
X204198598Y-79525030D01*
X204111052Y-79656051D01*
X204111049Y-79656057D01*
X204087446Y-79713040D01*
X204043604Y-79767443D01*
X203977310Y-79789507D01*
X203909611Y-79772227D01*
X203865498Y-79727587D01*
X203862781Y-79722881D01*
X203850515Y-79701635D01*
X203743365Y-79594485D01*
X203677750Y-79556602D01*
X203612136Y-79518719D01*
X203538950Y-79499109D01*
X203465766Y-79479500D01*
X203314234Y-79479500D01*
X203167863Y-79518719D01*
X203036635Y-79594485D01*
X203036632Y-79594487D01*
X202929487Y-79701632D01*
X202929485Y-79701635D01*
X202853719Y-79832863D01*
X202825647Y-79937631D01*
X202814500Y-79979234D01*
X201045627Y-79979234D01*
X198251913Y-77185520D01*
X198206250Y-77159156D01*
X198160589Y-77132793D01*
X198109657Y-77119146D01*
X198058727Y-77105500D01*
X198058726Y-77105500D01*
X197065601Y-77105500D01*
X196998562Y-77085815D01*
X196952807Y-77033011D01*
X196942863Y-76963853D01*
X196948198Y-76944393D01*
X196947489Y-76944178D01*
X196949258Y-76938343D01*
X196979999Y-76783797D01*
X196980000Y-76783794D01*
X196980000Y-76655000D01*
X196480000Y-76655000D01*
X196480000Y-76155000D01*
X196980000Y-76155000D01*
X196980000Y-76026206D01*
X196979999Y-76026202D01*
X196949258Y-75871656D01*
X196949256Y-75871648D01*
X196888952Y-75726060D01*
X196888947Y-75726051D01*
X196800306Y-75593391D01*
X196779428Y-75526714D01*
X196797912Y-75459333D01*
X196849891Y-75412643D01*
X196903408Y-75400500D01*
X204096592Y-75400500D01*
X204163631Y-75420185D01*
G37*
%TD.AperFunction*%
%TA.AperFunction,Conductor*%
G36*
X210518834Y-92422881D02*
G01*
X210574767Y-92464753D01*
X210599184Y-92530217D01*
X210599500Y-92539063D01*
X210599500Y-93454838D01*
X210579815Y-93521877D01*
X210563181Y-93542519D01*
X210110949Y-93994750D01*
X210093912Y-93931167D01*
X210028086Y-93817153D01*
X209934994Y-93724061D01*
X209820980Y-93658235D01*
X209757396Y-93641197D01*
X210246520Y-93152073D01*
X210230717Y-93140591D01*
X210069434Y-93058412D01*
X210069431Y-93058411D01*
X209897280Y-93002477D01*
X209735707Y-92976886D01*
X209672572Y-92946957D01*
X209635641Y-92887645D01*
X209636639Y-92817783D01*
X209675249Y-92759550D01*
X209735707Y-92731940D01*
X209750257Y-92729635D01*
X209897396Y-92706331D01*
X210069626Y-92650371D01*
X210230981Y-92568156D01*
X210377488Y-92461713D01*
X210387819Y-92451382D01*
X210449142Y-92417897D01*
X210518834Y-92422881D01*
G37*
%TD.AperFunction*%
%TA.AperFunction,Conductor*%
G36*
X190605703Y-92364944D02*
G01*
X190612181Y-92370976D01*
X190690178Y-92448973D01*
X190690183Y-92448977D01*
X190802002Y-92530217D01*
X190836684Y-92555415D01*
X190942162Y-92609159D01*
X190998038Y-92637630D01*
X190998041Y-92637631D01*
X191037252Y-92650371D01*
X191170269Y-92693590D01*
X191289716Y-92712508D01*
X191331957Y-92719199D01*
X191395092Y-92749128D01*
X191432023Y-92808440D01*
X191431025Y-92878302D01*
X191392415Y-92936535D01*
X191331957Y-92964145D01*
X191170384Y-92989736D01*
X190998233Y-93045670D01*
X190998225Y-93045673D01*
X190836947Y-93127851D01*
X190821144Y-93139331D01*
X190821144Y-93139332D01*
X191310269Y-93628456D01*
X191246685Y-93645494D01*
X191132671Y-93711320D01*
X191039579Y-93804412D01*
X190973753Y-93918426D01*
X190956715Y-93982009D01*
X190436819Y-93462113D01*
X190403334Y-93400790D01*
X190400500Y-93374432D01*
X190400500Y-92458657D01*
X190420185Y-92391618D01*
X190472989Y-92345863D01*
X190542147Y-92335919D01*
X190605703Y-92364944D01*
G37*
%TD.AperFunction*%
%TA.AperFunction,Conductor*%
G36*
X195569480Y-79301510D02*
G01*
X195615235Y-79354314D01*
X195625179Y-79423472D01*
X195596154Y-79487028D01*
X195590122Y-79493506D01*
X195558601Y-79525026D01*
X195558598Y-79525030D01*
X195471052Y-79656051D01*
X195471047Y-79656060D01*
X195410743Y-79801648D01*
X195410741Y-79801656D01*
X195380000Y-79956202D01*
X195380000Y-80335000D01*
X195880000Y-80335000D01*
X195880000Y-80835000D01*
X195380000Y-80835000D01*
X195380000Y-81213797D01*
X195410741Y-81368343D01*
X195410743Y-81368351D01*
X195471047Y-81513939D01*
X195471052Y-81513948D01*
X195558598Y-81644969D01*
X195558601Y-81644973D01*
X195670026Y-81756398D01*
X195670034Y-81756404D01*
X195801047Y-81843944D01*
X195801065Y-81843954D01*
X195929999Y-81897360D01*
X195930000Y-81897360D01*
X195930000Y-81301988D01*
X195939940Y-81319205D01*
X195995795Y-81375060D01*
X196064204Y-81414556D01*
X196140504Y-81435000D01*
X196219496Y-81435000D01*
X196295796Y-81414556D01*
X196364205Y-81375060D01*
X196420060Y-81319205D01*
X196430000Y-81301988D01*
X196430000Y-81897360D01*
X196558934Y-81843954D01*
X196558952Y-81843944D01*
X196689965Y-81756404D01*
X196689973Y-81756398D01*
X196801398Y-81644973D01*
X196801401Y-81644969D01*
X196888947Y-81513948D01*
X196888952Y-81513939D01*
X196949256Y-81368351D01*
X196949258Y-81368343D01*
X196979999Y-81213797D01*
X196980000Y-81213794D01*
X196980000Y-80835000D01*
X196480000Y-80835000D01*
X196480000Y-80335000D01*
X197031362Y-80335000D01*
X197031362Y-80336884D01*
X197077320Y-80340163D01*
X197133261Y-80382024D01*
X197141391Y-80394346D01*
X197149485Y-80408365D01*
X197256635Y-80515515D01*
X197387865Y-80591281D01*
X197534234Y-80630500D01*
X197534236Y-80630500D01*
X197685764Y-80630500D01*
X197685766Y-80630500D01*
X197832135Y-80591281D01*
X197963365Y-80515515D01*
X198070515Y-80408365D01*
X198093105Y-80369238D01*
X198143669Y-80321023D01*
X198212276Y-80307799D01*
X198277141Y-80333766D01*
X198288172Y-80343557D01*
X199029631Y-81085016D01*
X199063116Y-81146339D01*
X199065950Y-81172697D01*
X199065950Y-84249195D01*
X199046265Y-84316234D01*
X199029631Y-84336876D01*
X194110181Y-89256326D01*
X194048858Y-89289811D01*
X193979166Y-89284827D01*
X193923233Y-89242955D01*
X193898816Y-89177491D01*
X193898500Y-89168645D01*
X193898500Y-85892259D01*
X193898500Y-85892257D01*
X193871207Y-85790397D01*
X193818480Y-85699071D01*
X193743913Y-85624504D01*
X192561233Y-84441824D01*
X192527748Y-84380501D01*
X192530983Y-84315825D01*
X192561849Y-84220828D01*
X192590178Y-84041970D01*
X192590178Y-83860867D01*
X192573697Y-83756816D01*
X192561849Y-83682010D01*
X192519843Y-83552726D01*
X192505890Y-83509782D01*
X192505889Y-83509779D01*
X192474040Y-83447273D01*
X192423674Y-83348425D01*
X192375955Y-83282745D01*
X192317236Y-83201924D01*
X192317232Y-83201919D01*
X192189177Y-83073864D01*
X192189172Y-83073860D01*
X192042675Y-82967425D01*
X192042674Y-82967424D01*
X192042672Y-82967423D01*
X191990978Y-82941083D01*
X191881317Y-82885207D01*
X191881314Y-82885206D01*
X191709088Y-82829247D01*
X191547398Y-82803638D01*
X191484263Y-82773708D01*
X191447332Y-82714397D01*
X191448330Y-82644534D01*
X191486940Y-82586302D01*
X191547399Y-82558692D01*
X191708970Y-82533102D01*
X191881122Y-82477167D01*
X191881130Y-82477164D01*
X192042408Y-82394987D01*
X192058210Y-82383504D01*
X192058211Y-82383504D01*
X191569088Y-81894381D01*
X191632671Y-81877344D01*
X191746685Y-81811518D01*
X191839777Y-81718426D01*
X191905603Y-81604412D01*
X191922640Y-81540829D01*
X192411763Y-82029952D01*
X192411763Y-82029951D01*
X192423246Y-82014149D01*
X192505423Y-81852871D01*
X192505426Y-81852863D01*
X192561360Y-81680712D01*
X192589678Y-81501925D01*
X192589678Y-81320912D01*
X192561360Y-81142125D01*
X192505426Y-80969974D01*
X192505424Y-80969971D01*
X192439167Y-80839933D01*
X192439166Y-80839931D01*
X192423252Y-80808699D01*
X192423244Y-80808686D01*
X192411763Y-80792885D01*
X191922640Y-81282008D01*
X191905603Y-81218426D01*
X191839777Y-81104412D01*
X191746685Y-81011320D01*
X191632671Y-80945494D01*
X191569087Y-80928456D01*
X192058211Y-80439332D01*
X192042408Y-80427850D01*
X191881125Y-80345671D01*
X191881122Y-80345670D01*
X191708971Y-80289736D01*
X191547398Y-80264145D01*
X191484263Y-80234216D01*
X191447332Y-80174904D01*
X191448330Y-80105042D01*
X191486940Y-80046809D01*
X191547398Y-80019199D01*
X191561948Y-80016894D01*
X191709087Y-79993590D01*
X191881317Y-79937630D01*
X192042672Y-79855415D01*
X192189179Y-79748972D01*
X192317231Y-79620920D01*
X192423674Y-79474413D01*
X192449630Y-79423472D01*
X192487307Y-79349529D01*
X192535281Y-79298734D01*
X192597791Y-79281825D01*
X195502441Y-79281825D01*
X195569480Y-79301510D01*
G37*
%TD.AperFunction*%
%TA.AperFunction,Conductor*%
G36*
X190973753Y-81604412D02*
G01*
X191039579Y-81718426D01*
X191132671Y-81811518D01*
X191246685Y-81877344D01*
X191310268Y-81894381D01*
X190821144Y-82383504D01*
X190821144Y-82383505D01*
X190836945Y-82394985D01*
X190836953Y-82394990D01*
X190998230Y-82477166D01*
X190998233Y-82477167D01*
X191170384Y-82533101D01*
X191331957Y-82558692D01*
X191395091Y-82588621D01*
X191432023Y-82647932D01*
X191431025Y-82717795D01*
X191392416Y-82776028D01*
X191331958Y-82803638D01*
X191170267Y-82829248D01*
X190998041Y-82885206D01*
X190998038Y-82885207D01*
X190836680Y-82967425D01*
X190690183Y-83073860D01*
X190690178Y-83073864D01*
X190612181Y-83151862D01*
X190550858Y-83185347D01*
X190481166Y-83180363D01*
X190425233Y-83138491D01*
X190400816Y-83073027D01*
X190400500Y-83064181D01*
X190400500Y-82148406D01*
X190420185Y-82081367D01*
X190436819Y-82060725D01*
X190956715Y-81540828D01*
X190973753Y-81604412D01*
G37*
%TD.AperFunction*%
%TA.AperFunction,Conductor*%
G36*
X210563181Y-82005800D02*
G01*
X210596666Y-82067123D01*
X210599500Y-82093481D01*
X210599500Y-83009257D01*
X210579815Y-83076296D01*
X210527011Y-83122051D01*
X210457853Y-83131995D01*
X210394297Y-83102970D01*
X210387819Y-83096938D01*
X210377486Y-83086605D01*
X210377481Y-83086601D01*
X210230984Y-82980166D01*
X210230983Y-82980165D01*
X210230981Y-82980164D01*
X210179287Y-82953824D01*
X210069626Y-82897948D01*
X210069623Y-82897947D01*
X209897397Y-82841988D01*
X209735707Y-82816379D01*
X209672572Y-82786449D01*
X209635641Y-82727138D01*
X209636639Y-82657275D01*
X209675249Y-82599043D01*
X209735708Y-82571433D01*
X209897279Y-82545843D01*
X210069431Y-82489908D01*
X210069439Y-82489905D01*
X210230717Y-82407728D01*
X210246519Y-82396245D01*
X210246520Y-82396245D01*
X209757397Y-81907122D01*
X209820980Y-81890085D01*
X209934994Y-81824259D01*
X210028086Y-81731167D01*
X210093912Y-81617153D01*
X210110949Y-81553569D01*
X210563181Y-82005800D01*
G37*
%TD.AperFunction*%
%TA.AperFunction,Conductor*%
G36*
X210518834Y-79722881D02*
G01*
X210574767Y-79764753D01*
X210599184Y-79830217D01*
X210599500Y-79839063D01*
X210599500Y-80754838D01*
X210579815Y-80821877D01*
X210563181Y-80842519D01*
X210110949Y-81294750D01*
X210093912Y-81231167D01*
X210028086Y-81117153D01*
X209934994Y-81024061D01*
X209820980Y-80958235D01*
X209757396Y-80941197D01*
X210246520Y-80452073D01*
X210230717Y-80440591D01*
X210069434Y-80358412D01*
X210069431Y-80358411D01*
X209897280Y-80302477D01*
X209735707Y-80276886D01*
X209672572Y-80246957D01*
X209635641Y-80187645D01*
X209636639Y-80117783D01*
X209675249Y-80059550D01*
X209735707Y-80031940D01*
X209750257Y-80029635D01*
X209897396Y-80006331D01*
X210069626Y-79950371D01*
X210230981Y-79868156D01*
X210377488Y-79761713D01*
X210387819Y-79751382D01*
X210449142Y-79717897D01*
X210518834Y-79722881D01*
G37*
%TD.AperFunction*%
%TA.AperFunction,Conductor*%
G36*
X190605703Y-79664944D02*
G01*
X190612181Y-79670976D01*
X190690178Y-79748973D01*
X190690183Y-79748977D01*
X190802002Y-79830217D01*
X190836684Y-79855415D01*
X190942162Y-79909159D01*
X190998038Y-79937630D01*
X190998041Y-79937631D01*
X191055211Y-79956206D01*
X191170269Y-79993590D01*
X191289716Y-80012508D01*
X191331957Y-80019199D01*
X191395092Y-80049128D01*
X191432023Y-80108440D01*
X191431025Y-80178302D01*
X191392415Y-80236535D01*
X191331957Y-80264145D01*
X191170384Y-80289736D01*
X190998233Y-80345670D01*
X190998225Y-80345673D01*
X190836947Y-80427851D01*
X190821144Y-80439331D01*
X190821144Y-80439332D01*
X191310269Y-80928456D01*
X191246685Y-80945494D01*
X191132671Y-81011320D01*
X191039579Y-81104412D01*
X190973753Y-81218426D01*
X190956715Y-81282009D01*
X190436819Y-80762113D01*
X190403334Y-80700790D01*
X190400500Y-80674432D01*
X190400500Y-79758657D01*
X190420185Y-79691618D01*
X190472989Y-79645863D01*
X190542147Y-79635919D01*
X190605703Y-79664944D01*
G37*
%TD.AperFunction*%
%TA.AperFunction,Conductor*%
G36*
X195523631Y-75420185D02*
G01*
X195569386Y-75472989D01*
X195579330Y-75542147D01*
X195559694Y-75593391D01*
X195471052Y-75726051D01*
X195471047Y-75726060D01*
X195410743Y-75871648D01*
X195410741Y-75871656D01*
X195380000Y-76026202D01*
X195380000Y-76155000D01*
X195880000Y-76155000D01*
X195880000Y-76655000D01*
X195380000Y-76655000D01*
X195380000Y-76783797D01*
X195410741Y-76938343D01*
X195412511Y-76944178D01*
X195410133Y-76944899D01*
X195416423Y-77003550D01*
X195385131Y-77066020D01*
X195325033Y-77101657D01*
X195294399Y-77105500D01*
X192896271Y-77105500D01*
X192829232Y-77085815D01*
X192808590Y-77069181D01*
X192626496Y-76887087D01*
X192593011Y-76825764D01*
X192590177Y-76799406D01*
X192590177Y-75524500D01*
X192609862Y-75457461D01*
X192662666Y-75411706D01*
X192714177Y-75400500D01*
X195456592Y-75400500D01*
X195523631Y-75420185D01*
G37*
%TD.AperFunction*%
%TD*%
M02*
